<svg width="72" height="72" fill="none" xmlns="http://www.w3.org/2000/svg"><g opacity=".25" fill="#fff"><path fill-rule="evenodd" clip-rule="evenodd" d="M36 69c18.225 0 33-14.775 33-33S54.225 3 36 3 3 17.775 3 36s14.775 33 33 33zm0 3c19.882 0 36-16.118 36-36S55.882 0 36 0 0 16.118 0 36s16.118 36 36 36z"/><path d="M16.808 32.774L12 33.492a13.8 13.8 0 01.312-2.06c.188-.75.396-1.374.625-1.874.395-.146.905-.302 1.53-.468a35.55 35.55 0 014.464-.843 34.39 34.39 0 012.466-.281v17.608c-.208.104-.51.187-.905.25a6.44 6.44 0 01-1.374.125c-.541 0-1.01-.042-1.405-.125a3.704 3.704 0 01-.905-.25v-12.8zm12.989 2.31c-1.041-.354-1.842-.895-2.404-1.623-.541-.75-.812-1.707-.812-2.873 0-.999.198-1.852.593-2.56a5.026 5.026 0 011.655-1.717 7.176 7.176 0 012.341-.999A12.23 12.23 0 0133.95 25c.895 0 1.769.094 2.622.281.854.187 1.613.49 2.28.905a4.488 4.488 0 011.592 1.593c.395.645.593 1.446.593 2.404 0 .645-.094 1.227-.281 1.748a4.31 4.31 0 01-.687 1.342 3.76 3.76 0 01-.968.937 3.93 3.93 0 01-1.124.53v.22c1.103.353 2.009.946 2.716 1.779.708.832 1.062 1.977 1.062 3.434 0 1.103-.219 2.05-.656 2.84a5.548 5.548 0 01-1.748 1.937c-.729.52-1.603.894-2.623 1.123-.999.25-2.07.375-3.215.375-.937 0-1.873-.094-2.81-.281a7.617 7.617 0 01-2.498-.905 5.295 5.295 0 01-1.78-1.749c-.457-.749-.686-1.685-.686-2.81 0-.749.104-1.425.312-2.029.23-.603.52-1.124.874-1.56a5.026 5.026 0 011.28-1.125c.5-.312 1.03-.54 1.593-.686v-.219zm3.215 2.06c-.812.292-1.457.666-1.936 1.124-.457.458-.686 1.083-.686 1.874 0 .5.093.926.28 1.28.209.354.469.634.781.843.312.208.666.364 1.062.468a5.9 5.9 0 002.404 0c.395-.104.738-.25 1.03-.437.312-.208.562-.468.75-.78.186-.313.28-.688.28-1.125 0-.437-.104-.822-.312-1.155a2.685 2.685 0 00-.812-.874 4.45 4.45 0 00-1.249-.687 17.79 17.79 0 00-1.592-.53zm1.561-4.09c1.332-.52 1.998-1.342 1.998-2.466 0-.395-.083-.718-.25-.968a1.716 1.716 0 00-.624-.655 2.331 2.331 0 00-.874-.343 4.103 4.103 0 00-1-.125c-.728 0-1.352.156-1.872.468-.52.291-.78.79-.78 1.498s.301 1.239.905 1.593c.603.354 1.436.687 2.497.999zm15.374 2.03v-5.12a8.206 8.206 0 011.905-.5 16.17 16.17 0 012.341-.156v5.776h5.495c.083.166.156.437.218.812A7 7 0 0160 37.113c0 .437-.031.843-.094 1.218-.062.354-.135.614-.218.78h-5.495v5.401c-.187.105-.458.198-.812.281-.353.063-.79.094-1.31.094-.5 0-.927-.031-1.28-.094a3.96 3.96 0 01-.844-.28V39.11H44.14c0-.645.052-1.363.156-2.154.125-.79.292-1.415.5-1.873h5.151z"/></g></svg>