<svg width="16" height="16" fill="none" xmlns="http://www.w3.org/2000/svg"><path d="M7.48 4.187c-.172-.3-.264-.566-.273-.8L7.135 2.21a2.67 2.67 0 01.663-.154c.25-.037.529-.056.837-.056l-.072 1.374c-.01.121-.044.257-.101.406a2.48 2.48 0 01-.188.435l.087.042a3.53 3.53 0 01.274-.364c.096-.113.202-.206.317-.28l1.096-.702c.173.131.341.304.505.519.173.215.322.444.447.687l-1.356.659a1.524 1.524 0 01-.418.112 5.159 5.159 0 01-.462.056v.098c.135.019.28.047.433.084.154.028.293.066.418.112l1.255.561c0 .122-.024.252-.072.393-.048.13-.11.261-.187.392-.068.122-.15.234-.246.337a1.298 1.298 0 01-.288.238l-1.154-.771a1.497 1.497 0 01-.288-.267 6.4 6.4 0 01-.26-.35l-.072.042c.058.112.11.238.159.379.048.14.076.27.086.392l.115 1.276C8.52 7.953 8.264 8 7.9 8s-.63-.047-.793-.14l.1-1.276c.01-.112.04-.238.087-.378.058-.15.12-.276.188-.379l-.087-.042c-.057.103-.14.21-.245.322a2.496 2.496 0 01-.288.267l-1.097.757a1.794 1.794 0 01-.519-.589A2.013 2.013 0 015 5.743l1.168-.533c.087-.037.207-.07.36-.098.155-.028.299-.047.434-.056v-.084a3.945 3.945 0 01-.433-.056 1.476 1.476 0 01-.36-.112L5.057 4.27a3.21 3.21 0 01.187-.687c.096-.262.221-.51.375-.743l1.183.757c.211.131.409.341.591.631l.087-.042z" fill="#DABAD9"/></svg>