<svg width="498" height="41" fill="none" xmlns="http://www.w3.org/2000/svg"><path d="M5.414 24.936c0 1.6.426 2.763 1.28 3.488.853.725 2.005 1.088 3.456 1.088a9.75 9.75 0 002.144-.224 8.635 8.635 0 001.888-.704c.042.32.042.683 0 1.088a7.319 7.319 0 01-.224 1.152 4.869 4.869 0 01-.448 1.088 3.187 3.187 0 01-.576.832 9.428 9.428 0 01-1.856.64c-.704.17-1.515.256-2.432.256-2.603 0-4.587-.736-5.952-2.208C1.328 29.939.646 27.88.646 25.256c0-1.493.213-2.784.64-3.872.426-1.11 1.013-2.027 1.76-2.752a7.016 7.016 0 012.656-1.664c1.045-.363 2.176-.544 3.392-.544a9.91 9.91 0 012.176.224c.682.128 1.258.341 1.728.64.17.235.32.523.448.864.128.32.224.672.288 1.056.085.363.138.747.16 1.152a4.2 4.2 0 01-.064 1.056 6.684 6.684 0 00-1.728-.736c-.555-.17-1.206-.256-1.952-.256-1.451 0-2.603.352-3.456 1.056-.854.683-1.28 1.835-1.28 3.456zm24.478-12L22.5 14.04c.064-.96.224-2.016.48-3.168.288-1.152.608-2.112.96-2.88a27.546 27.546 0 012.352-.72 54.652 54.652 0 016.864-1.296 52.926 52.926 0 013.792-.432v27.072c-.32.16-.784.288-1.392.384-.576.128-1.28.192-2.112.192-.832 0-1.552-.064-2.16-.192-.576-.096-1.04-.224-1.392-.384v-19.68zM50.966 33c2.816 0 5.12-.768 6.912-2.304 1.792-1.536 2.8-4.016 3.024-7.44h-.384c-.544.992-1.392 1.872-2.544 2.64-1.152.768-2.768 1.152-4.848 1.152-1.568 0-2.96-.24-4.176-.72-1.216-.512-2.24-1.216-3.072-2.112-.8-.896-1.408-1.952-1.824-3.168-.416-1.248-.624-2.608-.624-4.08 0-1.76.288-3.344.864-4.752.576-1.44 1.408-2.656 2.496-3.648s2.4-1.744 3.936-2.256c1.536-.544 3.248-.816 5.136-.816 4.192 0 7.312 1.296 9.36 3.888 2.08 2.592 3.12 6.32 3.12 11.184 0 3.168-.416 5.92-1.248 8.256-.832 2.304-1.984 4.208-3.456 5.712a13.21 13.21 0 01-5.184 3.408c-2.016.768-4.208 1.152-6.576 1.152-2.592 0-4.816-.416-6.672-1.248-.32-.352-.608-.816-.864-1.392a15.199 15.199 0 01-.576-1.824 17.992 17.992 0 01-.288-1.824 8.278 8.278 0 01.048-1.584c1.024.576 2.192 1.024 3.504 1.344 1.312.288 2.624.432 3.936.432zm4.704-11.952c1.184 0 2.192-.224 3.024-.672a9.713 9.713 0 002.4-1.776v-.336c0-2.176-.496-3.856-1.488-5.04-.96-1.184-2.304-1.776-4.032-1.776-1.568 0-2.784.48-3.648 1.44-.864.928-1.296 2.112-1.296 3.552s.432 2.576 1.296 3.408c.864.8 2.112 1.2 3.744 1.2zm35.052-.08h-.256c-.235.576-.448 1.11-.64 1.6s-.384.96-.576 1.408c-.192.448-.395.896-.608 1.344a69.36 69.36 0 01-.608 1.376l-3.104 6.56c-1.046 0-2.07-.053-3.072-.16-1.003-.085-1.888-.288-2.656-.608v-15.2c.17-.107.416-.192.736-.256a6.37 6.37 0 011.216-.096c.49 0 .896.032 1.216.096.341.064.597.15.768.256v11.168h.256c.426-1.195.821-2.23 1.184-3.104.384-.875.789-1.77 1.216-2.688l2.816-5.92c1.088 0 2.165.064 3.232.192 1.066.128 2.005.352 2.816.672v15.168c-.171.107-.416.192-.736.256a6.37 6.37 0 01-1.216.096 6.9 6.9 0 01-1.248-.096c-.32-.064-.566-.15-.736-.256V20.968zm23.296-4.544c1.152 0 2.197.181 3.136.544a6.111 6.111 0 012.4 1.568c.661.683 1.173 1.547 1.536 2.592.362 1.045.544 2.261.544 3.648 0 1.472-.182 2.763-.544 3.872-.342 1.11-.843 2.037-1.504 2.784a6.256 6.256 0 01-2.4 1.632c-.939.384-1.995.576-3.168.576-2.198 0-3.936-.565-5.216-1.696-1.259-1.13-2.027-2.87-2.304-5.216h-2.72v6.016c-.214.107-.512.192-.896.256-.363.085-.822.128-1.376.128a6.624 6.624 0 01-1.408-.128 3.78 3.78 0 01-.896-.256V17.32c.213-.107.501-.192.864-.256a6.624 6.624 0 011.408-.128c.554 0 1.013.043 1.376.128.384.064.693.15.928.256v5.6h2.752c.298-2.112 1.109-3.723 2.432-4.832 1.344-1.11 3.029-1.664 5.056-1.664zm-3.04 8.384c0 1.664.245 2.933.736 3.808.512.875 1.28 1.312 2.304 1.312 1.024 0 1.77-.437 2.24-1.312.49-.875.736-2.144.736-3.808 0-1.493-.256-2.645-.768-3.456-.512-.81-1.248-1.216-2.208-1.216-1.024 0-1.792.405-2.304 1.216-.491.81-.736 1.963-.736 3.456zm28.595-7.744v15.68c-.214.107-.512.192-.896.256a6.63 6.63 0 01-1.408.128 6.624 6.624 0 01-1.408-.128c-.384-.064-.683-.15-.896-.256V20.968h-3.68v.992c0 1.6-.107 3.083-.32 4.448-.192 1.365-.566 2.57-1.12 3.616a6.645 6.645 0 01-2.24 2.496c-.939.64-2.166 1.035-3.68 1.184a2.597 2.597 0 01-.448-.768 5.167 5.167 0 01-.288-1.024 6.996 6.996 0 01-.096-1.152 5.9 5.9 0 01.096-1.088c.768-.128 1.397-.395 1.888-.8a3.982 3.982 0 001.184-1.568c.298-.64.501-1.387.608-2.24.106-.853.16-1.803.16-2.848v-5.152h12.544zm12.855 10.368c-.725 0-1.28.139-1.664.416-.363.256-.683.715-.96 1.376a14.964 14.964 0 01-2.048 3.552c-.235.107-.597.192-1.088.256a9.57 9.57 0 01-1.632.128c-.533 0-1.024-.021-1.472-.064-.448-.043-.789-.128-1.024-.256.469-.64.917-1.301 1.344-1.984.448-.704.875-1.461 1.28-2.272.277-.555.565-1.003.864-1.344.299-.363.725-.661 1.28-.896v-.256c-.832-.235-1.504-.65-2.016-1.248-.491-.619-.736-1.547-.736-2.784 0-1.92.683-3.296 2.048-4.128 1.365-.853 3.285-1.28 5.76-1.28 1.131 0 2.187.085 3.168.256a13.13 13.13 0 012.944.8v15.04c-.213.107-.512.192-.896.256a6.624 6.624 0 01-1.408.128 6.624 6.624 0 01-1.408-.128 3.799 3.799 0 01-.928-.256v-5.312h-1.408zm1.472-7.136c-.448-.15-1.035-.224-1.76-.224-.96 0-1.717.15-2.272.448-.555.299-.832.821-.832 1.568 0 .79.256 1.301.768 1.536.533.235 1.216.352 2.048.352h2.048v-3.68zm30.021-3.232v15.68c-.213.107-.512.192-.896.256a6.624 6.624 0 01-1.408.128 6.624 6.624 0 01-1.408-.128c-.384-.064-.683-.15-.896-.256V21.032h-5.472v11.712c-.213.107-.512.192-.896.256a6.624 6.624 0 01-1.408.128 6.624 6.624 0 01-1.408-.128c-.384-.064-.683-.15-.896-.256v-15.68h14.688zm11.539-.64c1.216 0 2.314.181 3.296.544.981.363 1.813.896 2.496 1.6.704.704 1.237 1.579 1.6 2.624.384 1.024.576 2.219.576 3.584 0 2.901-.715 5.11-2.144 6.624-1.408 1.493-3.35 2.24-5.824 2.24-2.582 0-4.555-.725-5.92-2.176-1.366-1.472-2.048-3.701-2.048-6.688 0-1.301.192-2.464.576-3.488.384-1.045.928-1.93 1.632-2.656A6.766 6.766 0 01192.196 17c.981-.384 2.069-.576 3.264-.576zm-3.2 8.384c0 1.6.266 2.837.8 3.712.533.875 1.333 1.312 2.4 1.312 1.109 0 1.92-.437 2.432-1.312s.768-2.112.768-3.712c0-1.408-.278-2.517-.832-3.328-.555-.832-1.344-1.248-2.368-1.248-1.088 0-1.899.416-2.432 1.248-.512.81-.768 1.92-.768 3.328zm27.149-8.32c-1.6-.544-2.832-1.376-3.696-2.496-.832-1.152-1.248-2.624-1.248-4.416 0-1.536.304-2.848.912-3.936A7.727 7.727 0 01217.921 3c1.056-.704 2.256-1.216 3.6-1.536a18.8 18.8 0 014.272-.48c1.376 0 2.72.144 4.032.432 1.312.288 2.48.752 3.504 1.392a6.901 6.901 0 012.448 2.448c.608.992.912 2.224.912 3.696 0 .992-.144 1.888-.432 2.688-.256.8-.608 1.488-1.056 2.064a5.78 5.78 0 01-1.488 1.44 6.04 6.04 0 01-1.728.816v.336c1.696.544 3.088 1.456 4.176 2.736 1.088 1.28 1.632 3.04 1.632 5.28 0 1.696-.336 3.152-1.008 4.368-.64 1.184-1.536 2.176-2.688 2.976-1.12.8-2.464 1.376-4.032 1.728-1.536.384-3.184.576-4.944.576-1.44 0-2.88-.144-4.32-.432-1.408-.256-2.688-.72-3.84-1.392a8.139 8.139 0 01-2.736-2.688c-.704-1.152-1.056-2.592-1.056-4.32 0-1.152.16-2.192.48-3.12.352-.928.8-1.728 1.344-2.4a7.728 7.728 0 011.968-1.728 8.727 8.727 0 012.448-1.056v-.336zm4.944 3.168c-1.248.448-2.24 1.024-2.976 1.728-.704.704-1.056 1.664-1.056 2.88 0 .768.144 1.424.432 1.968.32.544.72.976 1.2 1.296.48.32 1.024.56 1.632.72a9.063 9.063 0 001.872.192 8.39 8.39 0 001.824-.192 5.497 5.497 0 001.584-.672c.48-.32.864-.72 1.152-1.2.288-.48.432-1.056.432-1.728 0-.672-.16-1.264-.48-1.776-.288-.512-.704-.96-1.248-1.344-.512-.416-1.152-.768-1.92-1.056a27.386 27.386 0 00-2.448-.816zm2.4-6.288c2.048-.8 3.072-2.064 3.072-3.792 0-.608-.128-1.104-.384-1.488a2.637 2.637 0 00-.96-1.008 3.584 3.584 0 00-1.344-.528 6.312 6.312 0 00-1.536-.192c-1.12 0-2.08.24-2.88.72-.8.448-1.2 1.216-1.2 2.304 0 1.088.464 1.904 1.392 2.448.928.544 2.208 1.056 3.84 1.536zm30.192 17.968c-.363.704-.917 1.259-1.664 1.664-.725.427-1.643.64-2.752.64a6.979 6.979 0 01-2.016-.288 4.416 4.416 0 01-1.696-.864 4.597 4.597 0 01-1.12-1.6c-.277-.64-.416-1.43-.416-2.368 0-.981.16-1.813.48-2.496.341-.683.8-1.237 1.376-1.664a5.961 5.961 0 012.08-.928 9.913 9.913 0 012.592-.32c1.045 0 2.016.139 2.912.416v-.448c0-.981-.245-1.664-.736-2.048-.491-.405-1.269-.608-2.336-.608-.939 0-1.845.117-2.72.352a9.617 9.617 0 00-2.4.992 4.011 4.011 0 01-.192-1.056 6.932 6.932 0 01.032-1.152c.043-.405.117-.79.224-1.152.107-.363.256-.672.448-.928.576-.32 1.333-.576 2.272-.768.96-.192 2.037-.288 3.232-.288 1.152 0 2.155.117 3.008.352.853.213 1.557.565 2.112 1.056.576.49 1.003 1.152 1.28 1.984.277.81.416 1.803.416 2.976v5.536c0 .49.096.821.288.992.213.15.48.224.8.224.555 0 1.013-.128 1.376-.384.064.64.011 1.312-.16 2.016-.149.704-.373 1.28-.672 1.728a4.019 4.019 0 01-1.184.544 5.13 5.13 0 01-1.472.192c-.939 0-1.653-.203-2.144-.608-.491-.384-.821-.95-.992-1.696h-.256zm-.128-4.736a5.637 5.637 0 00-2.112-.384c-.939 0-1.643.181-2.112.544-.448.341-.672.821-.672 1.44s.203 1.056.608 1.312c.427.256.96.384 1.6.384.512 0 1.003-.085 1.472-.256a2.61 2.61 0 001.216-.864V26.6zm20.694-1.824c1.003.235 1.792.661 2.368 1.28.597.597.896 1.44.896 2.528 0 .896-.203 1.653-.608 2.272a4.292 4.292 0 01-1.664 1.472c-.683.363-1.493.619-2.432.768a16.81 16.81 0 01-3.008.256 50.24 50.24 0 01-3.744-.128 28.36 28.36 0 01-3.008-.32V17.48c.96-.256 1.941-.448 2.944-.576a26.418 26.418 0 013.328-.192c1.024 0 1.984.085 2.88.256.896.15 1.664.405 2.304.768.661.363 1.173.832 1.536 1.408.384.555.576 1.237.576 2.048 0 .81-.192 1.515-.576 2.112-.384.597-.981 1.003-1.792 1.216v.256zm-6.912 5.088c.341.043.693.075 1.056.096.384.021.811.032 1.28.032 1.067 0 1.899-.128 2.496-.384.597-.277.896-.747.896-1.408 0-.619-.288-1.067-.864-1.344-.576-.299-1.408-.448-2.496-.448h-2.368v3.456zm0-6.528h2.112c.896 0 1.589-.128 2.08-.384.491-.277.736-.704.736-1.28 0-.576-.277-.992-.832-1.248-.555-.277-1.344-.416-2.368-.416-.619 0-1.195.053-1.728.16v3.168zm18.258 9.408c-.213.107-.512.192-.896.256a6.624 6.624 0 01-1.408.128 6.63 6.63 0 01-1.408-.128 3.799 3.799 0 01-.928-.256v-15.68h11.552c.107.192.182.48.224.864a10.637 10.637 0 010 2.336c-.042.363-.117.64-.224.832h-6.912v11.648zm17.426-2.912a70.87 70.87 0 01.32-2.4c.15-.853.31-1.579.48-2.176l2.368-8.096c.171-.064.406-.128.704-.192.299-.064.704-.096 1.216-.096.64 0 1.184.064 1.632.192.448.107.822.256 1.12.448l-2.336 7.264a97.687 97.687 0 01-1.824 5.344c-.64 1.707-1.376 3.243-2.208 4.608-.917 1.493-2.005 2.741-3.264 3.744-1.258 1.024-2.826 1.845-4.704 2.464-.554-.427-1.024-.992-1.408-1.696a5.958 5.958 0 01-.704-2.208c1.28-.341 2.368-.843 3.264-1.504a9.82 9.82 0 002.24-2.272l-5.824-15.744c.299-.192.672-.341 1.12-.448.47-.128 1.046-.192 1.728-.192.491 0 .896.032 1.216.096.342.064.587.128.736.192l2.944 8.192c.086.256.171.565.256.928.107.341.203.715.288 1.12.086.384.16.79.224 1.216.064.427.118.832.16 1.216h.256zm13.459-4.896c0 1.6.426 2.763 1.28 3.488.853.725 2.005 1.088 3.456 1.088a9.75 9.75 0 002.144-.224 8.648 8.648 0 001.888-.704c.042.32.042.683 0 1.088a7.435 7.435 0 01-.224 1.152 4.883 4.883 0 01-.448 1.088 3.187 3.187 0 01-.576.832 9.444 9.444 0 01-1.856.64c-.704.17-1.515.256-2.432.256-2.603 0-4.587-.736-5.952-2.208-1.366-1.493-2.048-3.552-2.048-6.176 0-1.493.213-2.784.64-3.872.426-1.11 1.013-2.027 1.76-2.752a7.01 7.01 0 012.656-1.664c1.045-.363 2.176-.544 3.392-.544a9.91 9.91 0 012.176.224c.682.128 1.258.341 1.728.64.17.235.32.523.448.864.128.32.224.672.288 1.056.085.363.138.747.16 1.152.021.384 0 .736-.064 1.056a6.684 6.684 0 00-1.728-.736c-.555-.17-1.206-.256-1.952-.256-1.451 0-2.603.352-3.456 1.056-.854.683-1.28 1.835-1.28 3.456zm25.188-7.872c.106.192.181.48.224.864a10.883 10.883 0 010 2.336c-.043.363-.118.64-.224.832h-5.024v11.648c-.214.107-.512.192-.896.256a6.63 6.63 0 01-1.408.128 6.624 6.624 0 01-1.408-.128 3.786 3.786 0 01-.928-.256V21.096h-5.312c0-.704.053-1.419.16-2.144.106-.725.266-1.355.48-1.888h14.336zm10.953 14.272c-.363.704-.918 1.259-1.664 1.664-.726.427-1.643.64-2.752.64a6.979 6.979 0 01-2.016-.288 4.41 4.41 0 01-1.696-.864 4.584 4.584 0 01-1.12-1.6c-.278-.64-.416-1.43-.416-2.368 0-.981.16-1.813.48-2.496.341-.683.8-1.237 1.376-1.664a5.953 5.953 0 012.08-.928 9.913 9.913 0 012.592-.32c1.045 0 2.016.139 2.912.416v-.448c0-.981-.246-1.664-.736-2.048-.491-.405-1.27-.608-2.336-.608-.939 0-1.846.117-2.72.352a9.617 9.617 0 00-2.4.992 4.011 4.011 0 01-.192-1.056 6.826 6.826 0 01.032-1.152c.042-.405.117-.79.224-1.152.106-.363.256-.672.448-.928.576-.32 1.333-.576 2.272-.768.96-.192 2.037-.288 3.232-.288 1.152 0 2.154.117 3.008.352.853.213 1.557.565 2.112 1.056.576.49 1.002 1.152 1.28 1.984.277.81.416 1.803.416 2.976v5.536c0 .49.096.821.288.992.213.15.48.224.8.224.554 0 1.013-.128 1.376-.384.064.64.01 1.312-.16 2.016-.15.704-.374 1.28-.672 1.728a4.03 4.03 0 01-1.184.544 5.136 5.136 0 01-1.472.192c-.939 0-1.654-.203-2.144-.608-.491-.384-.822-.95-.992-1.696h-.256zm-.128-4.736a5.637 5.637 0 00-2.112-.384c-.939 0-1.643.181-2.112.544-.448.341-.672.821-.672 1.44s.202 1.056.608 1.312c.426.256.96.384 1.6.384.512 0 1.002-.085 1.472-.256.49-.17.896-.459 1.216-.864V26.6zm38.544.016c0 1.184-.064 2.32-.192 3.408a14.434 14.434 0 01-.672 2.976h-21.456c-.64-1.856-.96-4.016-.96-6.48a80.783 80.783 0 014.56-2.544 57.549 57.549 0 004.656-2.688c1.44-.96 2.64-1.952 3.6-2.976s1.44-2.096 1.44-3.216c0-1.056-.448-1.84-1.344-2.352-.864-.544-2.032-.816-3.504-.816-1.504 0-3.008.256-4.512.768a21.366 21.366 0 00-4.368 2.016c-.096-1.12.016-2.32.336-3.6.32-1.28.752-2.352 1.296-3.216 1.12-.672 2.432-1.232 3.936-1.68 1.536-.48 3.36-.72 5.472-.72 1.568 0 3.008.16 4.32.48 1.312.288 2.416.768 3.312 1.44a6.623 6.623 0 012.16 2.448c.512.992.768 2.16.768 3.504 0 1.6-.288 3.056-.864 4.368a12.176 12.176 0 01-2.256 3.552c-.96 1.056-2.096 2-3.408 2.832a28.87 28.87 0 01-4.08 2.112v.384h11.76zm17.446-21.12c2.016 0 3.84.304 5.472.912 1.664.608 3.072 1.52 4.224 2.736 1.184 1.184 2.08 2.656 2.688 4.416.64 1.76.96 3.776.96 6.048 0 2.272-.32 4.304-.96 6.096-.608 1.76-1.504 3.248-2.688 4.464-1.152 1.216-2.56 2.16-4.224 2.832-1.632.64-3.456.96-5.472.96-4.288 0-7.584-1.232-9.888-3.696-2.304-2.496-3.456-6.032-3.456-10.608 0-2.24.336-4.24 1.008-6 .672-1.76 1.6-3.232 2.784-4.416a11.862 11.862 0 014.224-2.784c1.632-.64 3.408-.96 5.328-.96zm-6.096 14.112c0 2.592.512 4.624 1.536 6.096 1.056 1.44 2.576 2.16 4.56 2.16 2.016 0 3.536-.752 4.56-2.256 1.024-1.504 1.536-3.504 1.536-6s-.528-4.464-1.584-5.904c-1.056-1.44-2.56-2.16-4.512-2.16-2.016 0-3.536.72-4.56 2.16-1.024 1.44-1.536 3.408-1.536 5.904zm46.635 7.008c0 1.184-.064 2.32-.192 3.408A14.434 14.434 0 01451.42 33h-21.456c-.64-1.856-.96-4.016-.96-6.48a80.783 80.783 0 014.56-2.544 57.549 57.549 0 004.656-2.688c1.44-.96 2.64-1.952 3.6-2.976s1.44-2.096 1.44-3.216c0-1.056-.448-1.84-1.344-2.352-.864-.544-2.032-.816-3.504-.816-1.504 0-3.008.256-4.512.768a21.366 21.366 0 00-4.368 2.016c-.096-1.12.016-2.32.336-3.6.32-1.28.752-2.352 1.296-3.216 1.12-.672 2.432-1.232 3.936-1.68 1.536-.48 3.36-.72 5.472-.72 1.568 0 3.008.16 4.32.48 1.312.288 2.416.768 3.312 1.44a6.623 6.623 0 012.16 2.448c.512.992.768 2.16.768 3.504 0 1.6-.288 3.056-.864 4.368a12.176 12.176 0 01-2.256 3.552c-.96 1.056-2.096 2-3.408 2.832a28.87 28.87 0 01-4.08 2.112v.384h11.76zm10.389-13.68l-7.392 1.104c.064-.96.224-2.016.48-3.168.288-1.152.608-2.112.96-2.88a27.546 27.546 0 012.352-.72 54.652 54.652 0 016.864-1.296 52.926 52.926 0 013.792-.432v27.072c-.32.16-.784.288-1.392.384-.576.128-1.28.192-2.112.192-.832 0-1.552-.064-2.16-.192-.576-.096-1.04-.224-1.392-.384v-19.68zm24.653 19.808c-.213.107-.512.192-.896.256a6.624 6.624 0 01-1.408.128 6.624 6.624 0 01-1.408-.128 3.799 3.799 0 01-.928-.256v-15.68h11.552c.107.192.181.48.224.864a10.637 10.637 0 010 2.336c-.043.363-.117.64-.224.832h-6.912v11.648zm7.817-4.768c.811 0 1.472.235 1.984.704.512.47.768 1.141.768 2.016 0 .939-.256 1.653-.768 2.144-.512.49-1.173.736-1.984.736-.896 0-1.589-.235-2.08-.704-.469-.49-.704-1.205-.704-2.144 0-.853.256-1.525.768-2.016.534-.49 1.206-.736 2.016-.736z" fill="#FF8200"/></svg>