<svg width="96" height="96" fill="none" xmlns="http://www.w3.org/2000/svg"><circle cx="48" cy="48" r="48" fill="#fff"/><path d="M92.07 48.28a43.825 43.825 0 01-6.056 22.18s-15.265 5.375-37.76 5.375c-22.496 0-37.761-5.375-37.761-5.375C-1.682 49.64 5.24 22.765 26.067 10.532 46.894-1.7 73.777 5.22 86.014 26.101a43.491 43.491 0 016.056 22.18z" fill="#EF7D05"/><path d="M54.804 51.987H41.27c.741-1.112 1.36-2.347 1.73-3.645.495-1.42.803-2.842 1.112-4.324a55.1 55.1 0 00.557-4.325c.123-1.421.185-7.661.185-8.711v-2.163h9.95v23.168zm13.102 1.236a1.24 1.24 0 00-1.236-1.236h-2.41V22.21a1.24 1.24 0 00-1.236-1.236H39.168c-.556 0-1.112.062-1.606.186-.433.123-.804.37-1.113.68-.309.432-.432.988-.432 1.544v3.212c0 1.112 0 2.224-.062 3.522-.062 1.297-.124 7.537-.247 8.835a42.143 42.143 0 01-.557 3.892 34.954 34.954 0 01-.927 3.645 14.685 14.685 0 01-1.483 3.15c-.432.742-.989 1.36-1.607 1.916-.309.247-.68.432-1.05.494-.31.062-.68.185-.927.37-.433.372-.618.99-.557 1.545v10.689c0 .68.557 1.235 1.236 1.235h7.108a1.24 1.24 0 001.236-1.235v-4.881h20.147v4.819c0 .68.556 1.235 1.236 1.235h7.169a1.24 1.24 0 001.236-1.235V53.223h-.062z" fill="#fff"/><path d="M12.532 73.55C26.437 93.256 53.753 98.014 73.53 84.051a44.617 44.617 0 0010.506-10.503s-17.675 6.055-35.721 6.055c-18.046 0-35.783-6.055-35.783-6.055z" fill="#5CBE1D"/><path d="M48.315 79.604c18.046 0 35.721-6.055 35.721-6.055s-15.018 12.11-36.03 12.11-35.474-12.11-35.474-12.11 17.737 6.055 35.783 6.055z" fill="#8BD40A"/></svg>