<svg width="200" height="128" fill="none" xmlns="http://www.w3.org/2000/svg"><g filter="url(#filter0_d)" fill="#FF8200"><path d="M23.154 16.498c0 1.612.428 2.782 1.285 3.513.857.73 2.014 1.095 3.471 1.095.771 0 1.49-.075 2.153-.225a8.663 8.663 0 001.896-.71c.043.323.043.688 0 1.096a7.386 7.386 0 01-.224 1.16 4.909 4.909 0 01-.45 1.096 3.192 3.192 0 01-.579.838 9.45 9.45 0 01-1.864.644c-.707.172-1.521.258-2.442.258-2.614 0-4.607-.741-5.978-2.223-1.371-1.504-2.057-3.577-2.057-6.22 0-1.503.214-2.803.643-3.898.428-1.117 1.018-2.041 1.768-2.772a7.043 7.043 0 012.667-1.675c1.05-.365 2.185-.548 3.407-.548.792 0 1.52.075 2.185.226.686.128 1.264.343 1.735.644.172.236.322.526.45.87.129.322.225.677.29 1.063.085.366.139.752.16 1.16.022.387 0 .742-.064 1.064a6.702 6.702 0 00-1.735-.741c-.557-.172-1.211-.258-1.96-.258-1.458 0-2.615.354-3.472 1.063-.857.688-1.285 1.848-1.285 3.48zM46.8 6.66l-6.599.988c.058-.86.2-1.805.429-2.836.257-1.031.543-1.89.857-2.578.543-.2 1.243-.415 2.1-.644A48.643 48.643 0 0149.714.43 47.13 47.13 0 0153.1.043v24.232c-.286.143-.7.258-1.243.344-.514.114-1.143.172-1.886.172-.742 0-1.385-.058-1.928-.172-.514-.086-.928-.2-1.242-.344V6.66zm18.814 17.959c2.514 0 4.57-.688 6.17-2.063 1.6-1.375 2.5-3.594 2.7-6.66h-.343c-.486.889-1.243 1.677-2.271 2.364-1.029.687-2.471 1.031-4.328 1.031-1.4 0-2.642-.215-3.728-.644-1.086-.459-2-1.089-2.742-1.89a8.174 8.174 0 01-1.629-2.837c-.371-1.117-.557-2.334-.557-3.652 0-1.575.257-2.993.771-4.253.515-1.289 1.257-2.377 2.229-3.265.97-.888 2.142-1.561 3.513-2.02C66.771.243 68.3 0 69.984 0c3.743 0 6.528 1.16 8.356 3.48 1.857 2.32 2.786 5.657 2.786 10.01 0 2.836-.372 5.3-1.115 7.39-.742 2.063-1.77 3.767-3.085 5.114a11.792 11.792 0 01-4.628 3.05c-1.8.688-3.756 1.031-5.87 1.031-2.314 0-4.3-.372-5.956-1.117-.286-.315-.543-.73-.772-1.246a13.62 13.62 0 01-.514-1.633c-.114-.544-.2-1.088-.257-1.632a7.428 7.428 0 01.043-1.418c.914.516 1.957.917 3.128 1.203 1.171.258 2.342.387 3.514.387zm4.199-10.698c1.057 0 1.957-.201 2.7-.602a8.672 8.672 0 002.142-1.59v-.3c0-1.948-.443-3.452-1.328-4.512-.857-1.06-2.057-1.59-3.6-1.59-1.4 0-2.485.43-3.256 1.29-.772.83-1.157 1.89-1.157 3.179s.385 2.306 1.157 3.05c.771.716 1.885 1.075 3.342 1.075zm33.525-1.418h-.258c-.235.58-.45 1.117-.642 1.61-.193.495-.386.968-.579 1.419-.193.45-.396.902-.61 1.353a73.94 73.94 0 01-.611 1.386l-3.118 6.605c-1.05 0-2.078-.053-3.085-.16-1.007-.087-1.896-.29-2.667-.613V8.797c.171-.107.418-.193.739-.258a6.381 6.381 0 011.221-.096c.493 0 .9.032 1.222.096.342.065.6.15.77.258v11.246h.258a68.096 68.096 0 011.189-3.126c.386-.88.793-1.783 1.221-2.707l2.828-5.96c1.093 0 2.175.064 3.246.193 1.072.128 2.014.354 2.829.676v15.274c-.172.107-.418.194-.74.258a6.37 6.37 0 01-1.221.097c-.493 0-.91-.033-1.253-.097-.322-.064-.568-.15-.739-.258v-11.89zm23.396-4.576c1.157 0 2.207.183 3.15.548a6.13 6.13 0 012.41 1.579c.664.687 1.178 1.557 1.543 2.61.364 1.052.546 2.277.546 3.673 0 1.483-.182 2.782-.546 3.9-.343 1.116-.847 2.05-1.511 2.803a6.274 6.274 0 01-2.41 1.643c-.943.387-2.004.58-3.182.58-2.207 0-3.953-.57-5.238-1.708-1.265-1.138-2.036-2.89-2.314-5.252h-2.732v6.058c-.214.107-.514.193-.9.258-.364.086-.825.129-1.382.129-.557 0-1.028-.043-1.414-.13a3.804 3.804 0 01-.9-.257V8.829c.214-.107.504-.193.868-.258a6.684 6.684 0 011.414-.128c.557 0 1.018.043 1.382.128.386.065.696.15.932.258v5.64h2.764c.3-2.127 1.114-3.75 2.442-4.866 1.35-1.117 3.043-1.676 5.078-1.676zm-3.053 8.442c0 1.676.246 2.954.739 3.835.514.88 1.286 1.321 2.314 1.321s1.778-.44 2.25-1.32c.493-.882.739-2.16.739-3.835 0-1.504-.257-2.664-.771-3.48-.515-.817-1.254-1.225-2.218-1.225-1.028 0-1.8.408-2.314 1.224-.493.817-.739 1.977-.739 3.48zm28.718-7.798v15.79c-.214.107-.514.193-.9.258-.385.086-.857.129-1.414.129-.557 0-1.028-.043-1.414-.13-.385-.064-.685-.15-.9-.257V12.503h-3.695v.999a29.18 29.18 0 01-.322 4.479c-.193 1.374-.568 2.588-1.125 3.64a6.673 6.673 0 01-2.249 2.514c-.943.645-2.175 1.042-3.696 1.193a2.598 2.598 0 01-.45-.774 5.164 5.164 0 01-.289-1.03 6.986 6.986 0 01-.097-1.16 5.9 5.9 0 01.097-1.097c.771-.128 1.403-.397 1.896-.805.514-.408.91-.935 1.189-1.58.3-.644.503-1.395.611-2.255.107-.859.16-1.815.16-2.868V8.571h12.598zm12.911 10.441c-.728 0-1.285.14-1.671.419-.364.258-.686.72-.964 1.385a15.088 15.088 0 01-2.057 3.577c-.236.107-.6.194-1.093.258a9.58 9.58 0 01-1.639.129 15.65 15.65 0 01-1.478-.065c-.45-.043-.793-.128-1.029-.257a32.03 32.03 0 001.35-1.998c.45-.71.879-1.472 1.286-2.288.278-.559.568-1.01.867-1.354.3-.365.729-.666 1.286-.902v-.258c-.836-.236-1.51-.655-2.025-1.256-.492-.623-.739-1.558-.739-2.804 0-1.933.686-3.319 2.057-4.157 1.371-.859 3.299-1.288 5.785-1.288 1.135 0 2.196.085 3.181.257 1.007.15 1.993.42 2.957.806V24.36c-.214.107-.514.193-.9.258-.385.086-.857.129-1.414.129-.557 0-1.028-.043-1.414-.13a3.82 3.82 0 01-.932-.257v-5.35h-1.414zm1.478-7.186c-.449-.15-1.039-.226-1.767-.226-.964 0-1.725.15-2.282.452-.557.3-.836.827-.836 1.579 0 .794.258 1.31.772 1.546.535.237 1.221.355 2.057.355h2.056v-3.706zM18.751 55.832v15.79c-.214.107-.514.193-.9.258-.385.086-.857.129-1.414.129-.557 0-1.028-.043-1.414-.13-.385-.064-.685-.15-.9-.257V59.828H8.628v11.794c-.214.107-.514.193-.9.258-.386.086-.857.129-1.414.129-.557 0-1.028-.043-1.414-.13-.386-.064-.686-.15-.9-.257v-15.79h14.751zm11.589-.644c1.221 0 2.325.183 3.31.548a6.648 6.648 0 012.507 1.61c.707.71 1.243 1.59 1.607 2.643.386 1.031.578 2.234.578 3.61 0 2.92-.717 5.144-2.153 6.67-1.414 1.503-3.364 2.255-5.85 2.255-2.591 0-4.573-.73-5.945-2.191-1.37-1.482-2.056-3.727-2.056-6.735 0-1.31.192-2.48.578-3.512.386-1.053.932-1.944 1.64-2.675a6.792 6.792 0 012.506-1.643c.985-.387 2.078-.58 3.278-.58zm-3.214 8.442c0 1.612.268 2.858.804 3.738.535.881 1.339 1.322 2.41 1.322 1.114 0 1.928-.44 2.442-1.322.515-.88.772-2.126.772-3.737 0-1.418-.279-2.535-.836-3.352-.557-.838-1.35-1.256-2.378-1.256-1.093 0-1.907.418-2.443 1.256-.514.817-.77 1.934-.77 3.351zM53.45 57.1c-1.428-.487-2.528-1.232-3.3-2.234-.742-1.031-1.114-2.349-1.114-3.953 0-1.375.272-2.55.814-3.523a6.907 6.907 0 012.271-2.363c.943-.63 2.014-1.089 3.214-1.375 1.229-.286 2.5-.43 3.814-.43 1.228 0 2.428.13 3.6.387 1.17.258 2.213.673 3.128 1.246a6.17 6.17 0 012.185 2.191c.543.888.814 1.99.814 3.309 0 .887-.128 1.69-.386 2.406-.228.716-.542 1.331-.942 1.847a5.167 5.167 0 01-1.329 1.289 5.385 5.385 0 01-1.542.73v.301c1.514.487 2.756 1.303 3.728 2.449.971 1.146 1.457 2.721 1.457 4.726 0 1.518-.3 2.822-.9 3.91a7.627 7.627 0 01-2.4 2.664c-1 .716-2.2 1.231-3.6 1.546-1.37.344-2.842.516-4.413.516a19.57 19.57 0 01-3.856-.387 10.433 10.433 0 01-3.429-1.246 7.274 7.274 0 01-2.442-2.406c-.629-1.03-.943-2.32-.943-3.867 0-1.03.143-1.962.429-2.792.314-.83.714-1.547 1.2-2.148a6.904 6.904 0 011.756-1.547 7.78 7.78 0 012.186-.945V57.1zm4.413 2.835c-1.114.402-2 .917-2.656 1.547-.629.63-.943 1.49-.943 2.578 0 .688.129 1.275.386 1.762.285.487.642.873 1.07 1.16.43.286.915.501 1.458.644a8.043 8.043 0 003.299 0 4.9 4.9 0 001.414-.601 3.349 3.349 0 001.029-1.074c.257-.43.386-.946.386-1.547 0-.602-.143-1.131-.429-1.59a3.692 3.692 0 00-1.114-1.203c-.457-.372-1.029-.687-1.714-.945a24.453 24.453 0 00-2.185-.73zm2.143-5.628c1.828-.716 2.742-1.847 2.742-3.394 0-.544-.114-.988-.342-1.332a2.358 2.358 0 00-.857-.902 3.197 3.197 0 00-1.2-.473 5.624 5.624 0 00-1.371-.172c-1 0-1.857.215-2.572.645-.714.4-1.07 1.088-1.07 2.062 0 .974.413 1.704 1.242 2.191.828.487 1.971.945 3.428 1.375zm28.836 15.897c-.364.709-.92 1.268-1.67 1.676-.73.43-1.65.644-2.765.644a6.993 6.993 0 01-2.024-.29 4.428 4.428 0 01-1.704-.87 4.629 4.629 0 01-1.125-1.611c-.278-.644-.417-1.44-.417-2.385 0-.988.16-1.826.482-2.513A4.61 4.61 0 0181 63.179c.6-.43 1.296-.74 2.089-.934a9.935 9.935 0 012.603-.322c1.05 0 2.025.14 2.924.419v-.452c0-.988-.246-1.675-.739-2.062-.493-.408-1.275-.612-2.346-.612-.943 0-1.853.118-2.732.354a9.653 9.653 0 00-2.41 1 4.077 4.077 0 01-.193-1.064 7.006 7.006 0 01.032-1.16c.043-.408.118-.795.225-1.16.107-.365.257-.677.45-.935.579-.322 1.34-.58 2.282-.773.964-.193 2.046-.29 3.246-.29 1.157 0 2.164.118 3.021.354.857.215 1.564.57 2.121 1.064.579.494 1.007 1.16 1.286 1.998.278.816.417 1.815.417 2.996v5.575c0 .494.097.827.29.999.214.15.482.226.803.226.557 0 1.018-.13 1.382-.387.064.644.01 1.321-.16 2.03-.15.709-.376 1.289-.675 1.74-.343.236-.74.419-1.19.548a5.14 5.14 0 01-1.478.193c-.943 0-1.66-.204-2.153-.612-.493-.387-.825-.956-.996-1.708h-.258zm-.128-4.769a5.648 5.648 0 00-2.121-.387c-.943 0-1.65.183-2.121.548-.45.344-.675.827-.675 1.45s.203 1.064.61 1.321c.429.258.964.387 1.607.387.514 0 1.007-.086 1.479-.258.492-.172.9-.462 1.22-.87v-2.191zm20.783-1.837c1.007.237 1.8.666 2.378 1.29.6.6.9 1.45.9 2.545 0 .902-.203 1.665-.61 2.288a4.326 4.326 0 01-1.672 1.482c-.685.365-1.499.623-2.442.773-.943.172-1.95.258-3.021.258a50.08 50.08 0 01-3.76-.129 28.405 28.405 0 01-3.021-.322V56.251c.964-.258 1.949-.45 2.956-.58a26.471 26.471 0 013.343-.193c1.028 0 1.992.086 2.892.258.9.15 1.671.408 2.314.773.664.365 1.179.838 1.543 1.418.386.559.578 1.246.578 2.062 0 .817-.192 1.526-.578 2.127-.386.602-.986 1.01-1.8 1.224v.258zm-6.942 5.124c.343.043.697.075 1.061.097.385.021.814.032 1.285.032 1.072 0 1.907-.13 2.507-.387.6-.28.9-.752.9-1.418 0-.623-.289-1.074-.868-1.353-.578-.301-1.414-.451-2.506-.451h-2.379v3.48zm0-6.574h2.121c.9 0 1.597-.129 2.089-.387.493-.279.74-.708.74-1.288 0-.58-.279-1-.836-1.257-.557-.28-1.35-.419-2.378-.419-.622 0-1.2.054-1.736.161v3.19zm18.337 9.474c-.214.107-.514.193-.9.258-.385.086-.857.129-1.414.129-.557 0-1.028-.043-1.414-.13a3.82 3.82 0 01-.932-.257v-15.79h11.602c.107.194.182.484.225.87a10.785 10.785 0 010 2.352c-.043.366-.118.645-.225.839h-6.942v11.729zm17.502-2.932c.085-.752.192-1.558.321-2.417.15-.86.311-1.59.482-2.191l2.378-8.153c.172-.064.407-.129.707-.193.3-.065.707-.097 1.221-.097.643 0 1.19.064 1.64.193.449.108.824.258 1.124.452l-2.346 7.314a97.945 97.945 0 01-1.832 5.382c-.642 1.718-1.382 3.265-2.217 4.64-.921 1.504-2.014 2.76-3.278 3.77-1.264 1.031-2.839 1.858-4.724 2.481-.558-.43-1.029-.999-1.415-1.708a6.017 6.017 0 01-.707-2.223c1.286-.344 2.379-.849 3.278-1.515a9.883 9.883 0 002.25-2.287l-5.849-15.854c.3-.194.675-.344 1.125-.452.471-.129 1.05-.193 1.735-.193.493 0 .9.032 1.222.097.342.064.589.129.739.193l2.956 8.25c.086.257.172.569.258.934.107.344.203.72.289 1.128.085.386.16.794.225 1.224.064.43.118.838.16 1.225h.258zm13.516-4.93c0 1.61.429 2.781 1.286 3.512.857.73 2.014 1.095 3.471 1.095a9.74 9.74 0 002.153-.225 8.683 8.683 0 001.896-.71c.043.323.043.688 0 1.096a7.421 7.421 0 01-.225 1.16 4.895 4.895 0 01-.45 1.096 3.189 3.189 0 01-.578.838 9.461 9.461 0 01-1.864.644c-.707.172-1.522.258-2.443.258-2.614 0-4.606-.741-5.978-2.223-1.371-1.504-2.056-3.577-2.056-6.22 0-1.503.214-2.803.642-3.898.429-1.117 1.018-2.041 1.768-2.772a7.046 7.046 0 012.667-1.675c1.05-.365 2.186-.548 3.407-.548.793 0 1.521.075 2.185.225.686.13 1.264.344 1.736.645.171.236.321.526.45.87.128.322.225.677.289 1.063.086.366.139.752.161 1.16.021.387 0 .742-.065 1.064a6.702 6.702 0 00-1.735-.741c-.557-.172-1.211-.258-1.96-.258-1.457 0-2.614.354-3.471 1.063-.857.688-1.286 1.848-1.286 3.48zm25.297-7.928c.107.194.182.484.225.87a11.035 11.035 0 010 2.352c-.043.366-.118.645-.225.839h-5.046v11.729c-.214.107-.514.193-.9.258-.386.086-.857.129-1.414.129-.557 0-1.028-.043-1.414-.13a3.807 3.807 0 01-.932-.257v-11.73h-5.335c0-.708.054-1.428.161-2.158.107-.73.267-1.364.482-1.902h14.398zm11 14.372c-.364.709-.921 1.268-1.671 1.676-.729.43-1.65.644-2.764.644a6.996 6.996 0 01-2.025-.29 4.426 4.426 0 01-1.703-.87 4.613 4.613 0 01-1.125-1.611c-.279-.644-.418-1.44-.418-2.385 0-.988.161-1.826.482-2.513a4.617 4.617 0 011.382-1.676c.6-.43 1.296-.74 2.089-.934a9.938 9.938 0 012.603-.322c1.05 0 2.025.14 2.925.419v-.452c0-.988-.247-1.675-.739-2.062-.493-.408-1.275-.612-2.346-.612-.943 0-1.854.118-2.732.354a9.634 9.634 0 00-2.41 1 4.024 4.024 0 01-.193-1.064 6.92 6.92 0 01.032-1.16c.043-.408.118-.795.225-1.16.107-.365.257-.677.45-.935.578-.322 1.339-.58 2.282-.773.964-.193 2.046-.29 3.246-.29 1.156 0 2.163.118 3.02.354.857.215 1.565.57 2.122 1.064.578.494 1.007 1.16 1.285 1.998.279.816.418 1.815.418 2.996v5.575c0 .494.096.827.289.999.214.15.482.226.804.226.557 0 1.017-.13 1.382-.387a6.07 6.07 0 01-.161 2.03c-.15.709-.375 1.289-.675 1.74a4.037 4.037 0 01-1.189.548 5.142 5.142 0 01-1.479.193c-.942 0-1.66-.204-2.153-.612-.493-.387-.825-.956-.996-1.708h-.257zm-.129-4.769a5.642 5.642 0 00-2.121-.387c-.943 0-1.65.183-2.121.548-.45.344-.675.827-.675 1.45s.204 1.064.611 1.321c.428.258.964.387 1.607.387.514 0 1.007-.086 1.478-.258a2.62 2.62 0 001.221-.87v-2.191zm-131 47.991c0 1.06-.057 2.077-.171 3.051a12.96 12.96 0 01-.6 2.664H37.152c-.57-1.662-.857-3.595-.857-5.801a72.923 72.923 0 014.071-2.277 51.145 51.145 0 004.157-2.406c1.285-.859 2.357-1.747 3.214-2.663.857-.917 1.285-1.877 1.285-2.879 0-.945-.4-1.647-1.2-2.105-.771-.487-1.814-.731-3.128-.731-1.343 0-2.685.229-4.028.688a19.032 19.032 0 00-3.9 1.804c-.085-1.002.015-2.076.3-3.222.286-1.146.672-2.105 1.158-2.879 1-.601 2.17-1.103 3.514-1.504 1.37-.43 2.999-.644 4.885-.644 1.4 0 2.685.143 3.856.43 1.171.257 2.157.687 2.957 1.289a5.924 5.924 0 011.928 2.19c.457.889.686 1.934.686 3.137 0 1.432-.258 2.736-.772 3.91a10.902 10.902 0 01-2.014 3.179 14.728 14.728 0 01-3.042 2.535 25.843 25.843 0 01-3.642 1.891v.343h10.498zm15.574-18.904c1.8 0 3.428.272 4.885.816 1.486.545 2.743 1.36 3.771 2.45 1.057 1.06 1.857 2.377 2.4 3.952.571 1.575.857 3.38.857 5.414 0 2.033-.286 3.852-.857 5.456-.543 1.575-1.343 2.907-2.4 3.996-1.028 1.088-2.285 1.933-3.77 2.535-1.458.573-3.086.859-4.886.859-3.828 0-6.77-1.103-8.827-3.308-2.057-2.234-3.085-5.399-3.085-9.495 0-2.005.3-3.796.9-5.371.6-1.575 1.428-2.893 2.485-3.953a10.588 10.588 0 013.77-2.492c1.458-.573 3.043-.859 4.757-.859zm-5.442 12.632c0 2.32.457 4.139 1.372 5.456.942 1.289 2.3 1.934 4.07 1.934 1.8 0 3.157-.674 4.071-2.02.914-1.346 1.371-3.136 1.371-5.37 0-2.235-.471-3.996-1.414-5.285-.942-1.289-2.285-1.933-4.028-1.933-1.8 0-3.156.644-4.07 1.933-.915 1.289-1.372 3.05-1.372 5.285zm41.632 6.272c0 1.06-.057 2.077-.171 3.051a12.92 12.92 0 01-.6 2.664H88.917c-.572-1.662-.858-3.595-.858-5.801a72.928 72.928 0 014.071-2.277 51.125 51.125 0 004.157-2.406c1.285-.859 2.357-1.747 3.214-2.663.857-.917 1.285-1.877 1.285-2.879 0-.945-.4-1.647-1.2-2.105-.77-.487-1.814-.731-3.128-.731-1.342 0-2.685.229-4.028.688a19.032 19.032 0 00-3.9 1.804c-.085-1.002.015-2.076.3-3.222.287-1.146.672-2.105 1.158-2.879 1-.601 2.17-1.103 3.514-1.504 1.37-.43 3-.644 4.885-.644 1.4 0 2.685.143 3.856.43 1.171.257 2.157.687 2.957 1.289a5.926 5.926 0 011.928 2.19c.457.889.686 1.934.686 3.137 0 1.432-.257 2.736-.772 3.91a10.89 10.89 0 01-2.014 3.179 14.734 14.734 0 01-3.042 2.535 25.854 25.854 0 01-3.642 1.891v.343h10.498zm9.275-12.244l-6.599.988c.057-.86.2-1.805.429-2.836.257-1.031.543-1.89.857-2.578a24.6 24.6 0 012.1-.644 48.502 48.502 0 016.127-1.16 47.11 47.11 0 013.385-.387v24.232c-.285.143-.699.258-1.242.344-.514.114-1.143.172-1.886.172-.742 0-1.385-.058-1.928-.172-.514-.086-.928-.201-1.243-.344v-17.615zm27.869 17.615c-.285.143-.685.258-1.199.344-.515.114-1.143.172-1.886.172-.743 0-1.371-.058-1.885-.172-.514-.086-.929-.201-1.243-.344V97.744h15.469c.143.258.243.645.3 1.16a14.474 14.474 0 010 3.137c-.057.487-.157.859-.3 1.117h-9.256v15.639zm10.468-6.402c1.086 0 1.972.315 2.657.945.686.631 1.029 1.533 1.029 2.707 0 1.261-.343 2.22-1.029 2.879-.685.659-1.571.988-2.657.988-1.199 0-2.128-.315-2.785-.945-.628-.659-.943-1.618-.943-2.879 0-1.145.343-2.048 1.029-2.707.714-.658 1.614-.988 2.699-.988z"/></g><defs><filter id="filter0_d" x="0" y="0" width="199.143" height="128" filterUnits="userSpaceOnUse" color-interpolation-filters="sRGB"><feFlood flood-opacity="0" result="BackgroundImageFix"/><feColorMatrix in="SourceAlpha" values="0 0 0 0 0 0 0 0 0 0 0 0 0 0 0 0 0 0 127 0"/><feOffset dy="4"/><feGaussianBlur stdDeviation="2"/><feColorMatrix values="0 0 0 0 0 0 0 0 0 0 0 0 0 0 0 0 0 0 0.25 0"/><feBlend in2="BackgroundImageFix" result="effect1_dropShadow"/><feBlend in="SourceGraphic" in2="effect1_dropShadow" result="shape"/></filter></defs></svg>