<svg width="10" height="15" fill="none" xmlns="http://www.w3.org/2000/svg"><path d="M4.255 10.066C3.177 9.95 2.201 9.687 1.37 9.032c-.102-.088-.204-.16-.305-.248C.7 8.434.657 8.026.948 7.62c.248-.35.656-.452 1.093-.248.087.044.16.087.233.146C3.818 8.58 5.96 8.609 7.519 7.56c.16-.116.32-.218.51-.262.378-.102.713.044.917.364.233.364.219.729-.058 1.02a4.469 4.469 0 01-1.53.99c-.539.205-1.136.321-1.733.394.087.102.13.146.189.204.801.801 1.603 1.603 2.404 2.419.277.276.335.611.175.932-.16.35-.525.583-.889.554-.233-.015-.408-.132-.568-.292-.598-.612-1.224-1.209-1.807-1.82-.175-.176-.262-.147-.408.014a111.07 111.07 0 01-1.85 1.85c-.277.277-.612.32-.932.175-.35-.16-.569-.525-.54-.874.015-.233.132-.423.292-.583l2.375-2.375c.058-.073.102-.131.19-.204z" fill="#1A3C7B"/><path d="M4.91 7.298c-1.923 0-3.496-1.603-3.496-3.526a3.529 3.529 0 013.54-3.51c1.952 0 3.511 1.602 3.497 3.569-.015 1.923-1.603 3.482-3.54 3.467zm1.75-3.526c0-.961-.772-1.719-1.72-1.719-.961 0-1.733.772-1.719 1.734 0 .947.773 1.704 1.734 1.704.947.015 1.705-.757 1.705-1.719z" fill="#1A3C7B"/></svg>