<svg width="13" height="9" fill="none" xmlns="http://www.w3.org/2000/svg"><path d="M12.389 6.786c-.382-.448-.83-.844-1.253-1.253-.382-.369-.408-.58-.092-1.015.33-.462.699-.923 1.029-1.385.316-.435.633-.87.804-1.384.105-.33.013-.475-.33-.54-.053-.014-.118-.014-.184-.014h-2.018c-.25 0-.382.105-.475.33a10.31 10.31 0 01-.382.883c-.316.646-.672 1.28-1.173 1.807-.106.118-.238.263-.422.21-.238-.079-.304-.46-.29-.593v-2.32c-.04-.33-.12-.475-.449-.541L5.058.958c-.277 0-.422.105-.567.277-.093.105-.12.171.065.197.343.066.541.29.594.633.079.554.079 1.121.026 1.675a1.46 1.46 0 01-.105.475c-.106.237-.264.29-.475.145-.198-.132-.33-.317-.462-.515-.514-.685-.91-1.45-1.239-2.254-.092-.238-.264-.37-.501-.383a41.846 41.846 0 00-1.82 0c-.356.013-.461.185-.316.514.66 1.464 1.397 2.888 2.347 4.194.488.672 1.055 1.252 1.78 1.674.83.475 1.714.62 2.65.567.436-.026.567-.132.594-.567.013-.303.053-.593.198-.87.145-.264.369-.316.62-.145.131.08.237.185.329.303.25.264.488.554.738.805.317.33.7.514 1.187.474h1.86c.303-.013.448-.382.276-.725-.118-.237-.277-.435-.448-.646z" fill="#1A3C7B"/></svg>