<svg width="14" height="14" fill="none" xmlns="http://www.w3.org/2000/svg"><path d="M6.746 13.467a6.494 6.494 0 01-3.287-.891l-2.587.891.526-2.718A6.589 6.589 0 01.142 6.877C.142 3.24 3.108.272 6.746.272c3.639 0 6.605 2.967 6.605 6.605-.015 3.638-2.966 6.59-6.605 6.59zM3.561 11.51l.205.132a5.649 5.649 0 002.966.862 5.612 5.612 0 005.61-5.611c.015-3.113-2.498-5.64-5.596-5.64a5.637 5.637 0 00-5.625 5.625 5.5 5.5 0 001.198 3.449l.132.175-.293 1.49 1.403-.482z" fill="#1A3C7B"/><path d="M3.415 4.335s.394-.672.701-.716c.322-.044.716-.044.833.16.117.205.6 1.404.6 1.404s.087.204-.045.409c-.131.204-.423.497-.423.497s-.161.204 0 .423c.16.22.409.629.935 1.14.511.512 1.505.891 1.505.891s.146.015.234-.073c.087-.087.584-.701.584-.701s.16-.205.424-.088c.263.117 1.388.687 1.388.687s.132.044.132.248c0 .205-.088.687-.249.848-.16.16-.643.672-1.373.672-.731 0-2.455-.584-3.376-1.52-.92-.92-1.739-1.855-1.929-2.703-.204-.847-.19-1.227.059-1.578z" fill="#1A3C7B"/></svg>