<svg width="66" height="66" fill="none" xmlns="http://www.w3.org/2000/svg"><circle cx="33" cy="33" r="33" fill="#FFE500"/><g clip-path="url(#clip0)"><path d="M51.381 16.221c-2.66-4.652-8.451-6.663-13.478-4.48a10.609 10.609 0 00-5.517 5.505l-10.253 4.45a10.608 10.608 0 00-7.789.27c-5.037 2.187-7.522 7.792-5.94 12.911l3.83 14.824a6.892 6.892 0 0013.488.052 2.7 2.7 0 00.045-.256l1.379-6.966a5.021 5.021 0 002.563-.382c2.372-1.03 3.548-3.674 2.812-6.095l3.25-1.411c1.266 2.19 4.002 3.137 6.373 2.108a5.052 5.052 0 002.03-1.611l6.03 3.75c.076.045.143.095.219.14a6.891 6.891 0 009.173-9.889l-8.215-12.92z" fill="#004276"/><path d="M29.15 40.864a3.636 3.636 0 11-2.896-6.67 3.636 3.636 0 012.897 6.67z" fill="#FFE500"/><path d="M26.374 34.466a3.332 3.332 0 014.377 1.727 3.332 3.332 0 01-1.727 4.378 3.332 3.332 0 01-4.378-1.728 3.332 3.332 0 011.728-4.377zm-.246-.567a3.952 3.952 0 00-2.049 5.19 3.952 3.952 0 005.19 2.049 3.952 3.952 0 002.049-5.19 3.946 3.946 0 00-5.19-2.049z" fill="#004276"/><path d="M41.587 35.465a3.636 3.636 0 111.887-4.783 3.65 3.65 0 01-1.887 4.783z" fill="#FFE500"/><path d="M38.81 29.068a3.333 3.333 0 014.377 1.727 3.333 3.333 0 01-1.727 4.377 3.332 3.332 0 01-4.378-1.727 3.326 3.326 0 011.728-4.377zm-.246-.567a3.952 3.952 0 00-2.049 5.19 3.953 3.953 0 005.19 2.048 3.952 3.952 0 002.049-5.19 3.952 3.952 0 00-5.19-2.048z" fill="#004276"/><path d="M20.918 28.21l-2.58 1.12-1.128-2.6a.668.668 0 00-.881-.347l-1.351.587a.668.668 0 00-.348.88l1.128 2.6-2.58 1.12a.68.68 0 00-.353.894l.575 1.323c.151.35.554.5.894.352l2.58-1.12 1.128 2.6c.148.34.54.495.88.347l1.352-.587a.668.668 0 00.348-.88l-1.128-2.6 2.58-1.119a.68.68 0 00.352-.894l-.574-1.323a.686.686 0 00-.894-.353zm21.099-9.036a1.803 1.803 0 10-1.436-3.307 1.803 1.803 0 001.436 3.307zm2.728 6.284a1.803 1.803 0 10-1.436-3.307 1.803 1.803 0 001.436 3.307zm-4.504-1.784a1.803 1.803 0 10-1.436-3.308 1.803 1.803 0 001.436 3.308zm6.275-2.724a1.803 1.803 0 10-1.435-3.308 1.803 1.803 0 001.435 3.308zM29.02 27.781l-1.654.718a.908.908 0 00-.47 1.193.908.908 0 001.192.47l1.653-.718a.908.908 0 00.471-1.192.908.908 0 00-1.192-.47zm4.753-2.063l-1.654.718a.908.908 0 00-.47 1.192.908.908 0 001.192.47l1.654-.717a.908.908 0 00-.722-1.663z" fill="#FFE500"/></g><defs><clipPath id="clip0"><path fill="#fff" transform="rotate(-23.465 66.619 8.046)" d="M0 0h51.92v32.904H0z"/></clipPath></defs></svg>