<svg width="249" height="36" fill="none" xmlns="http://www.w3.org/2000/svg"><path fill-rule="evenodd" clip-rule="evenodd" d="M16.898 30.388h-5.77v-2.965c-5.366-.773-10.08-4.753-10.08-11.657 0-6.945 4.592-10.844 10.078-11.575V1.226h5.77V4.19c5.487.69 10.16 4.59 10.16 11.575 0 6.945-4.755 10.926-10.16 11.657v2.965zm.739-2.335v3.073h-7.249v-3.078C4.982 27.016.311 22.818.311 15.766c0-3.645 1.21-6.543 3.184-8.626 1.82-1.92 4.255-3.11 6.893-3.581V.487h7.249v3.067c2.64.454 5.092 1.634 6.93 3.553 1.997 2.082 3.229 4.991 3.229 8.66 0 7.093-4.712 11.292-10.16 12.286zm-.74-6.276c.25-.053.497-.12.74-.202 1.973-.668 3.65-2.337 3.65-5.809 0-3.508-1.677-5.116-3.65-5.77a7.03 7.03 0 00-.74-.2v11.981zm.74-.988a4.33 4.33 0 001.746-1.217c.677-.794 1.165-1.994 1.165-3.806 0-1.833-.49-3.02-1.161-3.797-.476-.55-1.078-.933-1.75-1.19v10.01zm-8.94-8.788c-.659.773-1.138 1.95-1.138 3.765 0 1.836.48 3.026 1.141 3.809.46.544 1.04.93 1.688 1.196v-9.944c-.649.255-1.23.634-1.69 1.174zm1.691-1.96c-1.932.656-3.568 2.26-3.568 5.725 0 3.5 1.636 5.11 3.568 5.795.243.086.49.157.74.216V9.837c-.25.054-.497.121-.74.204zm30.433 15.23c-.894 2.68-2.52 5.685-7.436 5.685-3.735 0-6.219-1.857-7.385-5.304a12.312 12.312 0 01-.214-.707l5.404-1.584c.366 1.137.813 2.396 1.95 2.396 1.139 0 1.545-.852 1.992-1.908l.528-1.381-7.924-21.242h6.258l4.592 14.053h.081l4.145-14.053h6.136L40.821 25.27zm-2.228-12.35L42.26.486h7.718l-8.456 25.017v.001c-.46 1.377-1.136 2.935-2.399 4.146-1.286 1.234-3.113 2.044-5.738 2.044-2.127 0-3.934-.567-5.359-1.706-1.42-1.136-2.395-2.79-2.954-4.85l-.189-.699 6.79-1.99.22.685c.188.582.365 1.086.6 1.446.22.334.415.438.648.438.342 0 .529-.11.696-.304.21-.24.38-.603.61-1.142l.423-1.109L26.672.487h7.858l4.063 12.433zm9.275 11.78h2.56c1.829-2.72 2.479-5.686 2.479-11.453V1.226h18.327V24.7h3.17v10.56h-4.958l-.731-4.873H53.556l-.731 4.873h-4.958V24.7zm6.325 6.425L53.462 36h-6.333V23.963h2.899c1.547-2.455 2.14-5.242 2.14-10.715V.488h19.805v23.475h3.17V36H68.81l-.732-4.874H54.193zm3.398-7.082h7.215V7.447h-5.471v5.801c0 4.77-.523 8.188-1.745 10.796zm-1.23.739h9.184V6.709h-6.949v6.539c0 4.937-.568 8.304-1.827 10.796-.129.255-.265.501-.408.739zm19.13-2.511v-6.92h15.374v6.92H75.49zm14.636-.738H76.229V16.09h13.898v5.442zm2.225-10.103l.064-.615c.354-3.393 1.311-6.105 2.989-7.976C97.104.945 99.463 0 102.416 0c1.929 0 3.567.357 4.932 1.09 1.371.734 2.42 1.824 3.204 3.216 1.548 2.746 2.072 6.69 2.072 11.541 0 4.864-.471 8.81-1.993 11.553-.772 1.392-1.818 2.48-3.2 3.213-1.376.729-3.039 1.082-5.015 1.082-2.93 0-5.33-.933-7.055-2.843-1.708-1.89-2.675-4.65-2.946-8.155l-.047-.604 7.034-1.973v-4.662l-7.05-2.027zm7.152 1.607h5.847c-.082-2.016-.284-3.515-.714-4.528-.234-.55-.517-.912-.848-1.142-.326-.227-.76-.367-1.373-.367-.504 0-.881.112-1.177.298-.299.188-.567.483-.8.927-.482.915-.76 2.345-.902 4.343l-.033.468zm6.586 0c.01.24.018.486.024.738h-5.973v4.02h5.973c-.004.253-.009.499-.016.74-.122 4.413-.714 6.897-3.682 6.897-2.286 0-3.143-2-3.542-5.63a35.033 35.033 0 01-.074-.747l-5.65 1.584c.529 6.823 3.739 10.316 9.265 10.316 7.559 0 9.469-5.402 9.469-15.109 0-9.666-2.113-15.109-9.469-15.109-5.567 0-8.574 3.534-9.265 10.154l5.649 1.625c.018-.258.038-.508.062-.75.338-3.548 1.234-5.505 3.554-5.505 2.772 0 3.502 2.443 3.674 6.776zm-.731 5.497h-5.864l.04.455c.183 2.045.471 3.513.954 4.456.234.458.498.759.789.949.287.187.649.3 1.138.3.672 0 1.133-.148 1.468-.378.336-.232.615-.595.839-1.15.415-1.033.577-2.562.636-4.632zm9.584 12.591V.487h7.167v9.791l6.672-9.79h8.414l-8.669 12.692 9.21 17.946h-8.288l-5.746-11.41-1.593 2.255v9.155h-7.167zm6.428-9.39l2.438-3.452 6.095 12.104h6.624l-8.859-17.262 8.128-11.9h-6.624l-7.64 11.21h-.162V1.226h-5.689v29.162h5.689v-8.651zm14.996-12.509c.65-4.914 3.576-8.489 9.021-8.489 5.161 0 8.493 3.25 8.493 7.758 0 2.013-.664 5.28-3.084 6.145a3.47 3.47 0 01-.37.11v.568a4.016 4.016 0 01.394.09c2.689.77 3.467 4.248 3.467 6.652 0 4.224-2.52 8.936-8.859 8.936-5.77 0-8.452-4.062-8.981-9.423l5.69-1.625c.016.254.037.505.061.75.27 2.711 1.046 4.896 3.393 4.896 2.072 0 2.885-1.584 2.885-4.183 0-2.356-.935-3.493-3.983-3.493v-4.874c2.845 0 3.617-1.26 3.617-3.371 0-2.478-1.138-3.534-2.723-3.534-1.792 0-2.864 1.304-3.341 3.975-.042.235-.08.48-.113.737l-5.567-1.625zm15.412 5.765c1.128.563 1.89 1.563 2.38 2.648.645 1.43.868 3.095.868 4.421 0 2.247-.669 4.66-2.224 6.525-1.572 1.886-4.001 3.15-7.374 3.15-3.078 0-5.403-1.094-7.015-2.957-1.591-1.84-2.428-4.36-2.701-7.133l-.06-.613 7.161-2.045.061.912c.1 1.508.318 2.793.766 3.683.218.434.476.745.775.948.293.2.668.326 1.176.326.813 0 1.286-.291 1.597-.777.349-.545.549-1.42.549-2.668 0-1.105-.223-1.723-.616-2.093-.407-.383-1.164-.662-2.628-.662h-.738v-6.35h.738c1.335 0 1.993-.299 2.339-.664.352-.371.539-.977.539-1.97 0-1.137-.262-1.826-.593-2.22-.316-.375-.771-.574-1.391-.574-.741 0-1.28.274-1.708.863-.462.635-.816 1.667-1.013 3.204l-.11.857-7.005-2.045.083-.628c.34-2.57 1.284-4.858 2.92-6.51C140.202.957 142.492 0 145.388 0c2.737 0 5.05.864 6.686 2.386 1.639 1.526 2.546 3.666 2.546 6.11 0 1.124-.192 2.631-.766 3.967-.424.988-1.085 1.939-2.075 2.529zm19.18 16.134l-1.422-5.442h-6.25l-1.382 5.442h-7.398L163.003.487h6.852l8.582 30.64h-7.478zm-8.247-6.18h7.396l1.422 5.442h5.933l-8.168-29.162h-5.73l-8.086 29.162h5.851l1.382-5.443zm1.504-5.809h4.388l-2.235-8.488-2.153 8.488zm.949-.738h2.481l-1.263-4.798-1.218 4.798zm14.106 12.727V.487h5.871l6.083 10.146L197.308.487h5.75v30.64h-7.167V15.895l-4.659 7.515-4.795-7.557v15.272h-7.166zm6.428-17.39l.243-.041 5.283 8.326 5.161-8.326.244.04v16.653h5.689V1.226h-4.592l-6.502 10.844-6.502-10.844h-4.714v29.162h5.69V13.735zm20.438 17.39V.487h18.341v7.001h-11.175v4.697h8.453v7.04h-8.453v4.941h11.175v6.96h-18.341zm17.603-6.221v5.483h-16.864V1.226h16.864V6.75h-11.175v6.173h8.452v5.564h-8.452v6.418h11.175zm2.834 6.221V.487h7.167v11.657h5.755V.487h7.167v30.64h-7.167V19.184h-5.755v11.941h-7.167zm6.428-29.9v11.656h7.233V1.226h5.689v29.162h-5.689V18.447h-7.233v11.94h-5.689V1.227h5.689z" fill="#fff"/><path d="M29.273 15.028c0-6.986-4.673-10.885-10.159-11.576V.487h-5.77v2.965c-5.486.731-10.078 4.63-10.078 11.576 0 6.904 4.714 10.885 10.078 11.656v2.965h5.77v-2.965c5.405-.73 10.16-4.711 10.16-11.656zm-10.159 6.01V9.059c2.276.487 4.39 2.03 4.39 5.97 0 3.899-2.114 5.523-4.39 6.01zm-10.078-6.01c0-3.9 2.073-5.443 4.308-5.93v11.94c-2.235-.527-4.308-2.07-4.308-6.01z" fill="#fff"/><path d="M35.601 30.218c4.917 0 6.543-3.006 7.437-5.686L51.165.487H45.03L40.884 14.54h-.081L36.21.487h-6.258l7.924 21.242-.528 1.381c-.447 1.056-.854 1.909-1.991 1.909-1.138 0-1.585-1.26-1.951-2.396l-5.405 1.584c1.057 3.899 3.617 6.01 7.6 6.01zm37.849-6.255V.487H55.125V12.51c0 5.768-.65 8.733-2.48 11.454h-2.56v10.56h4.958l.732-4.874H70.93l.732 4.874h4.957v-10.56h-3.17zm-5.688.081h-9.184c1.544-2.559 2.235-6.092 2.235-11.535V5.97h6.949v18.074zm10.684-3.249h13.898v-5.442H78.446v5.442zM104.633 0c-5.567 0-8.574 3.534-9.265 10.154l5.648 1.624c.285-4.02 1.138-6.254 3.617-6.254 2.926 0 3.576 2.72 3.698 7.513h-5.974v4.021h5.974c-.081 4.874-.569 7.636-3.698 7.636-2.438 0-3.251-2.274-3.617-6.377l-5.648 1.584c.528 6.824 3.739 10.317 9.265 10.317 7.559 0 9.468-5.402 9.468-15.11 0-9.666-2.113-15.108-9.468-15.108zm13.265 29.65h5.689v-8.652l2.439-3.452 6.095 12.103h6.624l-8.859-17.261 8.127-11.9h-6.623l-7.64 11.21h-.163V.487h-5.689v29.161zm29.748.608c6.339 0 8.859-4.711 8.859-8.935 0-2.518-.854-6.214-3.861-6.742v-.569c2.723-.65 3.454-4.142 3.454-6.254 0-4.509-3.332-7.758-8.493-7.758-5.445 0-8.371 3.574-9.021 8.489l5.567 1.624c.407-3.168 1.504-4.711 3.454-4.711 1.585 0 2.723 1.056 2.723 3.533 0 2.112-.772 3.371-3.617 3.371v4.874c3.048 0 3.983 1.137 3.983 3.493 0 2.6-.813 4.184-2.886 4.184-2.56 0-3.25-2.6-3.454-5.646l-5.689 1.625c.528 5.36 3.211 9.422 8.981 9.422zm26.101-.608h5.933L171.512.486h-5.73l-8.087 29.162h5.852l1.382-5.442h7.396l1.422 5.442zm-7.315-11.251l2.154-8.489 2.235 8.489h-4.389zm15.794 11.251h5.689V12.996l.244-.04 5.283 8.325 5.161-8.326.244.04V29.65h5.689V.487h-4.592l-6.502 10.845L186.94.487h-4.714V29.65zm26.866 0h16.864v-5.484h-11.175V17.75h8.453v-5.564h-8.453V6.01h11.175V.487h-16.864V29.65zm20.438 0h5.689V17.707h7.233V29.65h5.689V.487h-5.689v11.657h-7.233V.487h-5.689V29.65z" fill="#fff"/></svg>