<svg width="175" height="32" fill="none" xmlns="http://www.w3.org/2000/svg"><path d="M23.298 32l6.665-20.057v20.058h9.996V.077H26.477L20.005 16.04 13.532.077H.05v31.924h9.996V11.943l6.703 20.058h6.55zm104.408-20.67c0 .689-.153 1.302-1.417 1.302h-11.567V6.354h11.567c1.417 0 1.379.919 1.379 1.493v3.483h.038zm2.758 8.268c3.102-.268 6.205-2.373 6.205-5.856V5.894c-.345-3.598-3.064-5.55-6.243-5.78h-25.662V32h9.958V19.598h3.984L125.178 32h11.452l-7.698-12.402h1.532zM69.872 6.392V.077h-25.93V32l26.275-.038v-6.24H53.939v-6.851h15.933v-6.24H53.94V6.393h15.933zm12.448 0h-9.46V.076h28.916v6.316h-9.498v25.607H82.32V6.392zm81.964 17.838c-.039.382-.192 1.301-1.417 1.416h-10.84c-1.225-.115-1.455-1.072-1.493-1.416V7.54c.038-.344.229-1.11 1.455-1.263h10.878c1.225.115 1.378.88 1.417 1.264V24.23zM168.037 0H146.78c-3.179.268-5.898 1.876-6.243 5.512v20.67c.383 3.636 3.064 5.55 6.243 5.78h21.257c3.179-.268 5.898-2.182 6.243-5.78V5.512c-.345-3.636-3.064-5.244-6.243-5.512z" fill="#FFE500"/></svg>