<svg width="164" height="144" fill="none" xmlns="http://www.w3.org/2000/svg"><circle cx="82.457" cy="72" r="72" fill="#E4C4DA"/><path d="M20.381 15.507c-4.796-.42-8.993 3.151-9.41 7.931L3.6 107.674c-.419 4.78 3.094 9.025 7.89 9.445l132.127 11.559c4.797.42 8.994-3.151 9.412-7.931l7.369-84.236c.419-4.78-3.094-9.025-7.891-9.445L20.381 15.506z" fill="url(#paint0_linear)" stroke="#fff" stroke-width="6"/><path d="M155.155 31.17L6.977 109.784a5.727 5.727 0 01-.332-2.49L13.96 23.7c.275-3.148 3.034-5.478 6.161-5.205l132.127 11.56a5.629 5.629 0 012.908 1.115z" fill="#FF8200"/><path d="M55.99 42.9c-.514 6.424-6.175 11.116-12.5 10.559-2.947-.258-5.473-1.493-7.479-3.687-2.291-2.514-3.3-5.52-3.016-8.905.244-2.897 1.425-5.405 3.548-7.41 2.61-2.462 5.743-3.526 9.29-3.137 2.848.311 5.27 1.58 7.216 3.712 2.223 2.446 3.28 5.738 2.941 8.868zm-10.894-6.693l-3.815-.334a.822.822 0 00-.298.01c-.098.03-.235.097-.26.174-.024.086.037.236.11.3.183.156.22.334.2.56-.092.95-.15 1.906-.272 2.852-.106.815-.37 1.582-.895 2.239-.26.324-.502.6-.99.483-.27-.067-.58.235-.605.527-.121 1.337-.233 2.67-.355 4.006-.012.14.034.21.169.221.68.06 1.356.128 2.038.17a.711.711 0 00.761-.71c.007-.232.05-.466.057-.697.01-.377.262-.61.665-.57 1.703.167 3.412.303 5.115.456.403.036.608.29.576.7-.015.232-.04.466-.06.697-.041.466.166.748.633.802.748.083 1.504.136 2.254.201.034.003.081.012.105-.004.092-.057.219-.108.253-.197.028-.072-.029-.226-.098-.276-.21-.159-.236-.354-.21-.594.082-.892.156-1.785.234-2.678.016-.183.036-.361.043-.545.015-.367-.12-.515-.476-.55-.134-.012-.278-.016-.405-.067-.287-.113-.312-.374-.29-.63.153-1.795.31-3.586.48-5.379.03-.304-.053-.549-.29-.688-.17-.102-.394-.13-.602-.15-1.257-.114-2.515-.22-3.772-.33zM25.65 56.172c1.048.092 2.094.175 3.141.284a.72.72 0 01.44.21c.092.1.137.288.124.432-.113 1.447-.243 2.888-.366 4.334a.857.857 0 00.03.319c.067.221.291.21.457.264.301.1.428.244.405.566-.067.815-.134 1.626-.214 2.44-.017.2.016.365.156.513a.516.516 0 01.096.254c.017.151-.055.228-.22.214-.637-.06-1.27-.107-1.907-.171a.483.483 0 01-.423-.511c.017-.284.05-.567.07-.85.023-.305-.13-.507-.43-.573a2.325 2.325 0 00-.302-.044c-1.227-.108-2.457-.22-3.685-.322-.281-.025-.56-.032-.714.275a.717.717 0 00-.078.243c-.033.274-.048.553-.077.827-.025.244-.203.43-.438.418-.578-.033-1.159-.092-1.735-.138-.165-.015-.125-.13-.116-.225.087-1.002.175-2.004.267-3.005.011-.127.027-.261.073-.38a.513.513 0 01.574-.327c.396.07.543-.207.715-.434.424-.546.645-1.18.71-1.873.066-.705.123-1.407.194-2.111.015-.175-.016-.322-.16-.422-.148-.106-.135-.258-.068-.366.04-.071.193-.115.293-.106 1.063.075 2.125.172 3.187.265zm-1.883 5.234c.06.027.088.047.122.054.683.082 1.36.19 2.047.228.33.02.55-.044.582-.52.056-.785.128-1.564.206-2.347.037-.375-.119-.542-.465-.585-.436-.056-.88-.082-1.321-.125-.16-.014-.25.053-.263.21l-.147 1.378c-.007.079-.014.161-.042.233-.19.515-.332 1.047-.719 1.474zm33.743 5.063c.124-1.411.242-2.814.373-4.216.029-.327.1-.645.129-.972.026-.296.021-.595.034-.892.008-.192.052-.386.038-.576a.48.48 0 00-.16-.326c-.143-.109-.127-.243-.074-.344.032-.067.177-.13.264-.122.651.044 1.302.092 1.95.171.32.037.538.249.5.623a71.07 71.07 0 00-.18 2.113c-.009.1.039.258.106.29.071.032.22-.025.296-.088.881-.74 1.75-1.489 2.632-2.223.302-.255.669-.354 1.064-.328.313.018.62.054.932.081.195.017.275.094.257.308-.189 2.06-.37 4.12-.554 6.183-.02.235-.04.453.166.642.061.054.051.215.03.314-.008.035-.146.067-.224.064-.682-.05-1.358-.11-2.038-.174-.317-.027-.461-.22-.433-.542l.185-2.112c.01-.123.046-.277-.108-.317-.09-.021-.225.028-.3.092-.933.766-1.857 1.54-2.78 2.311a.821.821 0 01-.612.205c-.426-.032-.855-.066-1.28-.103-.056-.013-.11-.036-.213-.062zm-18.333-5.593c-.092 1.045-.179 2.09-.279 3.135-.016.178-.003.333.154.44.136.094.132.235.07.348-.031.054-.172.072-.26.069-.664-.05-1.331-.108-1.994-.17-.364-.032-.498-.202-.465-.572l.177-2.025c.012-.144.064-.332-.111-.378-.107-.027-.276.055-.375.138-.867.719-1.721 1.447-2.575 2.175-.274.235-.572.337-.93.292a18.106 18.106 0 00-1.084-.095c-.139-.012-.178-.064-.165-.208.189-2.059.369-4.119.545-6.184.023-.26.024-.52-.23-.705-.054-.04-.074-.217-.034-.274a.385.385 0 01.283-.134c.521.033 1.042.078 1.56.133.191.02.386.046.563.114.25.093.332.253.308.523-.056.689-.12 1.381-.18 2.07-.007.065-.017.13-.01.196.015.181.183.262.329.143.533-.445 1.062-.9 1.594-1.34.456-.377.906-.768 1.39-1.103.19-.132.469-.174.71-.179.345-.01.693.056 1.04.078.196.013.259.097.242.293a799.18 799.18 0 01-.273 3.22zm4.603 2.447c-.043.506-.078.946-.125 1.385a.878.878 0 01-.119.358c-.055.083-.177.178-.263.17-.686-.047-1.37-.115-2.056-.175-.012-.001-.024-.016-.053-.04l.018-.2c.183-2.09.365-4.181.553-6.271a.62.62 0 00-.16-.515c-.069-.072-.09-.231-.06-.33.024-.063.178-.12.269-.117.651.044 1.302.097 1.95.171.299.035.546.254.494.605a6.05 6.05 0 00-.065.784c-.002.083.039.214.093.236.072.033.205.01.27-.042.348-.272.691-.554 1.014-.85.409-.377.88-.511 1.425-.46.723.073 1.444.127 2.167.195.065.006.132.038.196.06-.036.055-.06.127-.11.167-.685.58-1.369 1.157-2.053 1.734-.391.33-.786.65-1.174.985-.34.295-.349.597-.052.952l2.574 3.083c.063.075.135.148.19.231.037.06.052.14.077.213-.072.02-.145.05-.215.056-.08.006-.16-.01-.239-.016-.68-.06-1.355-.132-2.038-.174-.443-.026-.766-.23-1.038-.565-.41-.506-.83-.994-1.255-1.488-.035-.043-.107-.07-.214-.142z" fill="#fff"/><path d="M56.573 60.655c-.233.116-.453.233-.672.34-.297.146-.593.283-.89.428-.36.174-.63.12-.847-.202-.25-.377-.616-.545-1.033-.621-.55-.101-1.298.365-1.447.918-.097.351-.19.72-.182 1.08.015.775.507 1.537 1.47 1.512.425-.011.751-.189 1.042-.47.172-.166.482-.222.667-.087.461.326.907.672 1.368.997.148.105.123.182.035.289-.438.519-.913 1.004-1.57 1.231-.375.13-.774.2-1.164.263-.248.04-.506.048-.753.022-1.42-.146-2.519-.817-3.207-2.089a3.324 3.324 0 01-.355-1.137c-.085-.617-.037-1.223.085-1.818.2-.944.716-1.697 1.503-2.252.582-.405 1.229-.612 1.938-.677 1.079-.103 2.04.2 2.894.824.456.33.772.804 1.025 1.314.02.023.043.052.093.135zM42.82 42.797c.068.024.093.035.12.037.866.076 1.733.16 2.6.227.343.026.54-.137.577-.498.102-1.013.2-2.032.262-3.049.024-.375-.049-.588-.552-.623-.534-.042-1.071-.094-1.604-.14-.07-.006-.14-.004-.236-.008-.09 1.44-.236 2.854-1.167 4.054z" fill="#fff"/><path d="M42.82 42.797c.93-1.2 1.076-2.61 1.163-4.05.095.004.166.001.235.008.533.046 1.07.097 1.604.14.503.04.577.248.552.623a79.492 79.492 0 01-.262 3.05c-.036.36-.233.523-.576.497a173.13 173.13 0 01-2.601-.227c-.022-.007-.05-.022-.115-.04zm59.32 62.956a18.983 18.983 0 01-.259 1.9 9.353 9.353 0 01-.466 1.639l-10.23-.895c-.214-1.066-.26-2.289-.14-3.669.697-.408 1.463-.82 2.299-1.234a27.12 27.12 0 002.351-1.311 10.396 10.396 0 001.862-1.516c.508-.534.79-1.114.845-1.741.051-.592-.124-1.05-.526-1.373-.385-.341-.929-.542-1.63-.603a5.78 5.78 0 00-2.19.241 9.592 9.592 0 00-2.181.947c.01-.631.121-1.298.337-2.002.215-.703.473-1.285.775-1.747a7.617 7.617 0 011.959-.776c.756-.205 1.637-.263 2.644-.175a7.486 7.486 0 012.036.449c.612.216 1.115.53 1.509.944.411.397.714.884.91 1.461.195.577.26 1.242.194 1.995-.078.895-.287 1.699-.625 2.409a7.112 7.112 0 01-1.25 1.895 8.35 8.35 0 01-1.764 1.444c-.65.395-1.332.732-2.048 1.012l-.02.216 5.608.49zm7.979-11.219c.961.084 1.816.33 2.565.739a5.2 5.2 0 011.879 1.708c.507.713.862 1.574 1.066 2.585.219 1.012.272 2.155.161 3.427-.111 1.272-.363 2.397-.756 3.374-.376.96-.876 1.756-1.501 2.387a5.7 5.7 0 01-2.152 1.41c-.81.29-1.695.393-2.656.309-2.045-.179-3.556-1.006-4.534-2.482-.976-1.494-1.352-3.522-1.128-6.084.11-1.255.368-2.36.775-3.318.406-.958.921-1.743 1.543-2.357a5.704 5.704 0 012.151-1.383 6.02 6.02 0 012.587-.315zm-3.598 7.648c-.127 1.452.018 2.611.434 3.478.433.85 1.122 1.317 2.068 1.4.962.084 1.723-.274 2.285-1.074.562-.799.904-1.898 1.026-3.295.123-1.398-.033-2.522-.466-3.373-.433-.85-1.114-1.316-2.045-1.397-.961-.084-1.721.255-2.28 1.02-.559.763-.899 1.843-1.022 3.241zm16.953-6.48c.962.085 1.816.33 2.565.74.763.41 1.39.979 1.88 1.708.506.712.861 1.574 1.065 2.585.219 1.012.273 2.154.161 3.426-.111 1.273-.363 2.397-.756 3.374-.376.96-.876 1.756-1.5 2.388a5.72 5.72 0 01-2.153 1.409c-.81.291-1.695.394-2.656.31-2.045-.179-3.556-1.007-4.534-2.483-.976-1.493-1.352-3.522-1.128-6.084.11-1.254.368-2.36.775-3.318.407-.957.921-1.743 1.544-2.357a5.7 5.7 0 012.15-1.382 6.018 6.018 0 012.587-.316zm-3.598 7.649c-.127 1.451.018 2.61.434 3.477.433.851 1.123 1.317 2.069 1.4.961.084 1.722-.274 2.284-1.073.562-.8.904-1.898 1.026-3.296.123-1.398-.033-2.522-.466-3.372-.432-.85-1.114-1.316-2.045-1.398-.961-.084-1.721.256-2.28 1.019-.559.764-.899 1.845-1.022 3.243z" fill="#fff"/><path fill-rule="evenodd" clip-rule="evenodd" d="M133.546 99.762a11.46 11.46 0 00-1.571.112l-.828 9.472-1.828-.16-.161 1.839 1.828.16-.087.996c.242.176.639.288 1.193.336.553.049.959.007 1.218-.125l.087-.996 1.852.162.161-1.839-1.852-.162.09-1.031c.199.053.468.106.807.16.338.053.635.091.891.114a5.383 5.383 0 001.731-.117 3.75 3.75 0 001.477-.693 3.837 3.837 0 001.066-1.336c.285-.559.462-1.234.531-2.026.069-.78.01-1.453-.177-2.017a3.27 3.27 0 00-.904-1.437c-.406-.393-.921-.694-1.546-.904-.624-.221-1.341-.367-2.15-.438a18.839 18.839 0 00-1.828-.07zm.644 2.379c.358-.04.744-.042 1.159-.006.82.072 1.433.304 1.838.697.407.381.576.962.507 1.742-.066.756-.316 1.282-.749 1.578-.434.296-1.007.412-1.72.35a8.962 8.962 0 01-.764-.103 6.07 6.07 0 01-.631-.144l.36-4.114z" fill="#fff"/><defs><linearGradient id="paint0_linear" x1="161.362" y1="28.757" x2="1.748" y2="112.378" gradientUnits="userSpaceOnUse"><stop stop-color="#A22F92"/><stop offset="1" stop-color="#681A5D"/></linearGradient></defs></svg>