<svg width="16" height="16" fill="none" xmlns="http://www.w3.org/2000/svg"><path d="M12.444 6.121c-.24.727-.48.97-.96 1.212 0 .243-.24.485-.481.485-.48 0-.961-.242-.961-.727v-.727c.24-.728.48-.97.72-1.455.241-.242.241-.242.481-.242.48 0 .721 0 .961.242 0 .243.24.485.24.485v.727zm-8.888-.242c0-.485.24-.727.48-.97.24-.242.24-.242.48-.242h.481c.24 0 .48.242.48.485.24.484.48.727.48.97 0 .484 0 .726-.24.969 0 .242-.24.242-.48.485-.24.242-.72.242-.96 0l-.481-.485c-.24-.243-.24-.485-.24-.727v-.485zm6.246 3.879H7.159c-.24 0-.48.242-.72.242h-.721c-.48-.242-.721-.727-.721-1.212 0-.243.24-.485.48-.727 0-.243.24-.243.48-.485l.722-.728.48-.484c.24-.243.72-.243.961-.243.24 0 .48.243.48.243.24.484.481.484.481.727l.24.242c.24.243.48.485.721.485.24 0 .24.243.48.243l.24.242s.241.242.241.485v.485c-.24.242-.24.242-.72.485h-.481zm.721-6.303c0 .484 0 .97-.24 1.212-.241.242-.241.485-.721.727H8.84c-.24-.242-.24-.485-.48-.485 0-.485-.24-.727-.24-.97v-.727c.24-.485.24-.727.72-.97C9.08 2 9.32 2 9.56 2s.481.242.721.485c.24.242.24.485.24.97zm-2.643 0c0 .242 0 .727-.24.97 0 .242-.24.242-.24.484-.24.243-.721.243-1.202 0l-.24-.242c-.24-.485-.48-.728-.48-.97 0-.485 0-.97.48-1.455.24-.242.48-.242.72-.242s.481.242.721.242c.24.485.48.728.48 1.213z" fill="#DABAD9"/></svg>