<svg width="175" height="144" fill="none" xmlns="http://www.w3.org/2000/svg"><circle cx="85.5" cy="72" r="72" fill="#fff"/><path d="M25.492 58.968c0 .8.213 1.381.64 1.744.427.363 1.003.544 1.728.544a4.86 4.86 0 001.072-.112c.341-.085.656-.203.944-.352.021.16.021.341 0 .544a3.66 3.66 0 01-.112.576 2.433 2.433 0 01-.224.544 1.57 1.57 0 01-.288.416 4.712 4.712 0 01-.928.32 5.19 5.19 0 01-1.216.128c-1.301 0-2.293-.368-2.976-1.104-.683-.747-1.024-1.776-1.024-3.088 0-.747.107-1.392.32-1.936a3.773 3.773 0 01.88-1.376c.373-.373.816-.65 1.328-.832a5.142 5.142 0 011.696-.272c.395 0 .757.037 1.088.112.341.064.63.17.864.32.085.117.16.261.224.432.064.16.112.336.144.528.043.181.07.373.08.576.01.192 0 .368-.032.528a3.342 3.342 0 00-.864-.368 3.332 3.332 0 00-.976-.128c-.725 0-1.301.176-1.728.528-.427.341-.64.917-.64 1.728zm7.954.8c.096 1.11.922 1.664 2.48 1.664a6.42 6.42 0 001.408-.144c.437-.096.8-.208 1.088-.336a2.47 2.47 0 01-.144.976c-.107.341-.25.619-.432.832-.267.15-.619.277-1.056.384a5.571 5.571 0 01-1.472.176c-1.408 0-2.475-.373-3.2-1.12-.726-.757-1.088-1.787-1.088-3.088 0-.672.096-1.275.288-1.808a4.002 4.002 0 01.816-1.392 3.631 3.631 0 011.296-.88 4.411 4.411 0 011.712-.32c.586 0 1.093.085 1.52.256.427.17.779.416 1.056.736.277.31.485.683.624 1.12.139.437.208.917.208 1.44 0 .256-.021.517-.064.784a4.193 4.193 0 01-.176.72h-4.864zm2.928-1.68a1.937 1.937 0 000-.608 1.088 1.088 0 00-.192-.528 1.06 1.06 0 00-.432-.368c-.181-.096-.416-.144-.704-.144-.502 0-.896.15-1.184.448-.288.288-.448.688-.48 1.2h2.992zm6.11-1.92c.212-.523.543-.896.991-1.12a3.38 3.38 0 011.504-.336c.523 0 .976.101 1.36.304.395.192.72.464.976.816.267.352.464.779.592 1.28.128.49.192 1.03.192 1.616 0 .725-.09 1.376-.272 1.952a4.07 4.07 0 01-.784 1.44 3.362 3.362 0 01-1.248.88c-.48.213-1.019.32-1.616.32-.288 0-.565-.027-.832-.08a2.377 2.377 0 01-.688-.208v3.696a1.63 1.63 0 01-.448.128 3.3 3.3 0 01-.704.064 3.3 3.3 0 01-.704-.064 1.9 1.9 0 01-.464-.128V55.24c.235-.117.517-.208.848-.272a5.632 5.632 0 011.04-.096l.128 1.296h.128zm.143 4.912c.139.053.299.101.48.144.181.032.373.048.576.048.725 0 1.243-.219 1.552-.656.32-.437.48-1.013.48-1.728 0-.736-.144-1.27-.432-1.6-.288-.341-.688-.512-1.2-.512-.352 0-.645.075-.88.224a2.023 2.023 0 00-.576.496v3.584zm13.568-6.048c.054.096.09.24.112.432a5.366 5.366 0 010 1.168c-.021.181-.058.32-.112.416h-2.512v5.824a1.631 1.631 0 01-.448.128 3.299 3.299 0 01-.704.064c-.277 0-.512-.021-.704-.064a1.899 1.899 0 01-.464-.128v-5.824h-2.656c0-.352.027-.71.08-1.072.054-.363.134-.677.24-.944h7.168zm7.232 1.952H63.3c-.117.288-.224.555-.32.8s-.192.48-.288.704c-.096.224-.197.448-.304.672-.096.224-.197.453-.304.688l-1.552 3.28a14.52 14.52 0 01-1.536-.08 4.418 4.418 0 01-1.328-.304v-7.6c.086-.053.208-.096.368-.128s.363-.048.608-.048c.246 0 .448.016.608.048.17.032.299.075.384.128v5.584h.128c.214-.597.41-1.115.592-1.552.192-.437.395-.885.608-1.344l1.408-2.96c.544 0 1.083.032 1.616.096a5.683 5.683 0 011.408.336v7.584a1.126 1.126 0 01-.368.128 3.18 3.18 0 01-.608.048 3.45 3.45 0 01-.624-.048 1.125 1.125 0 01-.368-.128v-5.904zm7.776 6.352c-1.344-.15-2.368-.581-3.072-1.296-.704-.715-1.056-1.765-1.056-3.152 0-.608.096-1.152.288-1.632.192-.48.464-.896.816-1.248.363-.352.8-.635 1.312-.848a6.82 6.82 0 011.712-.448v-3.184a3.52 3.52 0 01.944-.336 5.612 5.612 0 011.296-.128v3.632c.64.064 1.21.203 1.712.416.512.203.95.48 1.312.832.363.341.64.757.832 1.248.192.49.288 1.056.288 1.696 0 1.344-.368 2.384-1.104 3.12-.736.725-1.75 1.168-3.04 1.328v3.392a1.61 1.61 0 01-.432.128 2.86 2.86 0 01-.672.064c-.277 0-.506-.021-.688-.064a1.892 1.892 0 01-.448-.128v-3.392zm4.256-4.432c0-.693-.165-1.243-.496-1.648-.33-.416-.853-.677-1.568-.784v5.12c.747-.117 1.275-.4 1.584-.848.32-.448.48-1.061.48-1.84zm-6.256 0c0 .768.155 1.37.464 1.808.32.437.848.72 1.584.848v-5.104c-.725.107-1.248.373-1.568.8-.32.416-.48.965-.48 1.648zm15.724-1.92H84.8c-.117.288-.224.555-.32.8s-.192.48-.288.704c-.096.224-.197.448-.304.672-.096.224-.197.453-.304.688l-1.552 3.28a14.52 14.52 0 01-1.536-.08 4.418 4.418 0 01-1.328-.304v-7.6c.086-.053.208-.096.368-.128s.363-.048.608-.048c.246 0 .448.016.608.048.17.032.299.075.384.128v5.584h.128c.214-.597.41-1.115.592-1.552.192-.437.395-.885.608-1.344l1.408-2.96c.544 0 1.083.032 1.616.096a5.683 5.683 0 011.408.336v7.584a1.126 1.126 0 01-.368.128 3.18 3.18 0 01-.608.048 3.45 3.45 0 01-.624-.048 1.125 1.125 0 01-.368-.128v-5.904zm6.56 1.04H92c.459 0 .79-.096.992-.288.203-.192.363-.48.48-.864l.096-.304c.182-.597.459-1.035.832-1.312.374-.288.907-.432 1.6-.432h.176c.118.213.208.475.272.784.064.31.096.65.096 1.024h-.192c-.234 0-.416.064-.544.192-.128.117-.224.288-.288.512l-.096.32c-.117.352-.272.624-.464.816-.181.181-.453.315-.816.4V59c.16.064.294.128.4.192.118.053.219.123.304.208.096.085.182.187.256.304.086.107.17.245.256.416.16.299.304.565.432.8.139.235.272.459.4.672.139.203.278.41.416.624.139.203.299.427.48.672a1.564 1.564 0 01-.512.144 4.887 4.887 0 01-.72.048c-.31 0-.597-.021-.864-.064a2.385 2.385 0 01-.592-.128 8.733 8.733 0 01-.768-1.184 17.839 17.839 0 01-.64-1.28c-.106-.235-.23-.39-.368-.464-.128-.085-.352-.128-.672-.128h-.464v3.04a1.632 1.632 0 01-.448.128 3.3 3.3 0 01-.704.064 3.3 3.3 0 01-.704-.064 1.899 1.899 0 01-.464-.128V55.16a1.63 1.63 0 01.448-.128 3.3 3.3 0 01.704-.064 3.3 3.3 0 01.704.064 1.9 1.9 0 01.464.128v2.864zm11.154 4.144c-.182.352-.459.63-.832.832-.363.213-.822.32-1.376.32-.352 0-.689-.048-1.009-.144a2.205 2.205 0 01-.848-.432 2.298 2.298 0 01-.56-.8c-.138-.32-.208-.715-.208-1.184 0-.49.08-.907.24-1.248.171-.341.4-.619.689-.832a2.982 2.982 0 011.04-.464c.394-.107.826-.16 1.296-.16.522 0 1.008.07 1.456.208v-.224c0-.49-.123-.832-.368-1.024-.246-.203-.635-.304-1.168-.304-.47 0-.923.059-1.36.176a4.815 4.815 0 00-1.2.496 2.022 2.022 0 01-.097-.528 3.466 3.466 0 01.129-1.152c.053-.181.127-.336.224-.464.288-.16.666-.288 1.136-.384a8.278 8.278 0 011.616-.144c.576 0 1.077.059 1.504.176.426.107.778.283 1.056.528.288.245.501.576.64.992.138.405.208.901.208 1.488v2.768c0 .245.048.41.144.496.106.075.24.112.399.112.278 0 .507-.064.689-.192.032.32.005.656-.08 1.008-.075.352-.187.64-.336.864a2.017 2.017 0 01-.592.272 2.57 2.57 0 01-.736.096c-.47 0-.827-.101-1.072-.304-.246-.192-.411-.475-.496-.848h-.128zm-.064-2.368a2.819 2.819 0 00-1.056-.192c-.47 0-.822.09-1.056.272-.224.17-.336.41-.336.72s.101.528.304.656c.213.128.48.192.8.192.256 0 .501-.043.736-.128a1.31 1.31 0 00.608-.432V59.8zm11.009-4.768c.053.096.091.24.112.432a5.44 5.44 0 010 1.168c-.021.181-.059.32-.112.416h-2.512v5.824a1.635 1.635 0 01-.448.128 3.302 3.302 0 01-.704.064c-.277 0-.512-.021-.704-.064a1.895 1.895 0 01-.464-.128v-5.824h-2.656c0-.352.027-.71.08-1.072a4.16 4.16 0 01.24-.944h7.168zm5.476 7.136c-.181.352-.458.63-.832.832-.362.213-.821.32-1.376.32a3.49 3.49 0 01-1.008-.144 2.21 2.21 0 01-.848-.432 2.311 2.311 0 01-.56-.8c-.138-.32-.208-.715-.208-1.184 0-.49.08-.907.24-1.248.171-.341.4-.619.688-.832a2.99 2.99 0 011.04-.464 4.96 4.96 0 011.296-.16c.523 0 1.008.07 1.456.208v-.224c0-.49-.122-.832-.368-1.024-.245-.203-.634-.304-1.168-.304-.469 0-.922.059-1.36.176a4.824 4.824 0 00-1.2.496 2.047 2.047 0 01-.096-.528 3.577 3.577 0 01.128-1.152 1.46 1.46 0 01.224-.464c.288-.16.667-.288 1.136-.384a8.276 8.276 0 011.616-.144c.576 0 1.078.059 1.504.176.427.107.779.283 1.056.528.288.245.502.576.64.992.139.405.208.901.208 1.488v2.768c0 .245.048.41.144.496a.68.68 0 00.4.112c.278 0 .507-.064.688-.192.032.32.006.656-.08 1.008-.074.352-.186.64-.336.864-.17.117-.368.208-.592.272a2.56 2.56 0 01-.736.096c-.469 0-.826-.101-1.072-.304-.245-.192-.41-.475-.496-.848h-.128zm-.064-2.368a2.819 2.819 0 00-1.056-.192c-.469 0-.821.09-1.056.272-.224.17-.336.41-.336.72s.102.528.304.656c.214.128.48.192.8.192.256 0 .502-.043.736-.128.246-.085.448-.23.608-.432V59.8zm13.041.08h-2.88v2.992a1.635 1.635 0 01-.448.128 3.302 3.302 0 01-.704.064c-.278 0-.512-.021-.704-.064a1.624 1.624 0 01-.448-.128V55.16c.106-.053.256-.096.448-.128.192-.043.426-.064.704-.064.277 0 .512.021.704.064.192.032.341.075.448.128v2.784h2.88V55.16c.106-.053.256-.096.448-.128.192-.043.426-.064.704-.064.277 0 .512.021.704.064.192.032.341.075.448.128v7.712a1.635 1.635 0 01-.448.128 3.302 3.302 0 01-.704.064c-.278 0-.512-.021-.704-.064a1.624 1.624 0 01-.448-.128V59.88zm8.773 2.288c-.181.352-.458.63-.832.832-.362.213-.821.32-1.376.32a3.49 3.49 0 01-1.008-.144 2.21 2.21 0 01-.848-.432 2.311 2.311 0 01-.56-.8c-.138-.32-.208-.715-.208-1.184 0-.49.08-.907.24-1.248.171-.341.4-.619.688-.832a2.99 2.99 0 011.04-.464 4.96 4.96 0 011.296-.16c.523 0 1.008.07 1.456.208v-.224c0-.49-.122-.832-.368-1.024-.245-.203-.634-.304-1.168-.304-.469 0-.922.059-1.36.176a4.824 4.824 0 00-1.2.496 2.047 2.047 0 01-.096-.528 3.577 3.577 0 01.128-1.152 1.46 1.46 0 01.224-.464c.288-.16.667-.288 1.136-.384a8.276 8.276 0 011.616-.144c.576 0 1.078.059 1.504.176.427.107.779.283 1.056.528.288.245.502.576.64.992.139.405.208.901.208 1.488v2.768c0 .245.048.41.144.496a.68.68 0 00.4.112c.278 0 .507-.064.688-.192.032.32.006.656-.08 1.008-.074.352-.186.64-.336.864-.17.117-.368.208-.592.272a2.56 2.56 0 01-.736.096c-.469 0-.826-.101-1.072-.304-.245-.192-.41-.475-.496-.848h-.128zm-.064-2.368a2.819 2.819 0 00-1.056-.192c-.469 0-.821.09-1.056.272-.224.17-.336.41-.336.72s.102.528.304.656c.214.128.48.192.8.192.256 0 .502-.043.736-.128.246-.085.448-.23.608-.432V59.8zM63.78 117.168c.213-.523.544-.896.992-1.12a3.38 3.38 0 011.504-.336c.523 0 .976.101 1.36.304.395.192.72.464.976.816.267.352.464.779.592 1.28.128.491.192 1.029.192 1.616 0 .725-.09 1.376-.272 1.952a4.077 4.077 0 01-.784 1.44 3.365 3.365 0 01-1.248.88c-.48.213-1.019.32-1.616.32a4.26 4.26 0 01-.832-.08 2.386 2.386 0 01-.688-.208v3.696a1.642 1.642 0 01-.448.128 3.28 3.28 0 01-.704.064 3.28 3.28 0 01-.704-.064 1.912 1.912 0 01-.464-.128V116.24c.235-.117.517-.208.848-.272a5.63 5.63 0 011.04-.096l.128 1.296h.128zm.144 4.912c.139.053.299.101.48.144.181.032.373.048.576.048.725 0 1.243-.219 1.552-.656.32-.437.48-1.013.48-1.728 0-.736-.144-1.269-.432-1.6-.288-.341-.688-.512-1.2-.512-.352 0-.645.075-.88.224a2.025 2.025 0 00-.576.496v3.584zm10.495.336c.043-.373.096-.773.16-1.2.075-.427.155-.789.24-1.088l1.184-4.048c.085-.032.203-.064.352-.096a3.04 3.04 0 01.608-.048c.32 0 .592.032.816.096.224.053.41.128.56.224l-1.168 3.632a48.742 48.742 0 01-.912 2.672 13.61 13.61 0 01-1.104 2.304 7.134 7.134 0 01-1.632 1.872c-.63.512-1.413.923-2.352 1.232a2.648 2.648 0 01-.704-.848 2.973 2.973 0 01-.352-1.104c.64-.171 1.184-.421 1.632-.752a4.914 4.914 0 001.12-1.136l-2.912-7.872c.15-.096.336-.171.56-.224.235-.064.523-.096.864-.096.245 0 .448.016.608.048.17.032.293.064.368.096l1.472 4.096c.043.128.085.283.128.464a8.89 8.89 0 01.256 1.168c.032.213.059.416.08.608h.128zm7.54-4.992c.223-.416.538-.72.943-.912.416-.192.896-.288 1.44-.288.459 0 .88.08 1.264.24.384.16.715.4.992.72.288.32.507.72.656 1.2.16.469.24 1.019.24 1.648 0 .672-.096 1.275-.288 1.808-.192.523-.47.971-.832 1.344-.362.363-.81.64-1.344.832-.522.203-1.114.304-1.776.304-.746 0-1.37-.133-1.872-.4a3.274 3.274 0 01-1.2-1.12 4.834 4.834 0 01-.64-1.648 10.192 10.192 0 01-.192-2.032c0-1.131.09-2.128.272-2.992.192-.875.544-1.6 1.056-2.176a4.415 4.415 0 011.776-1.216c.704-.277 1.504-.459 2.4-.544l1.648-.16c.139.267.246.576.32.928.086.352.128.704.128 1.056l-1.712.16a7.389 7.389 0 00-1.472.272 2.618 2.618 0 00-1.024.544c-.266.235-.474.549-.624.944-.15.395-.245.891-.288 1.488h.128zm1.503.8c-.394 0-.736.08-1.024.24-.277.16-.512.363-.704.608 0 .619.032 1.141.096 1.568.064.416.16.752.288 1.008.139.256.315.443.528.56.214.107.47.16.768.16.587 0 1.014-.208 1.28-.624.267-.416.4-.928.4-1.536 0-.245-.026-.485-.08-.72a1.556 1.556 0 00-.256-.64 1.193 1.193 0 00-.496-.448c-.202-.117-.47-.176-.8-.176zm12.922-2.192v7.84a1.642 1.642 0 01-.448.128 3.28 3.28 0 01-.704.064 3.28 3.28 0 01-.704-.064 1.642 1.642 0 01-.448-.128v-5.888h-1.84v.496c0 .8-.053 1.541-.16 2.224a5.455 5.455 0 01-.56 1.808 3.32 3.32 0 01-1.12 1.248c-.47.32-1.083.517-1.84.592a1.303 1.303 0 01-.224-.384 2.59 2.59 0 01-.144-.512 3.498 3.498 0 01-.048-.576c0-.192.016-.373.048-.544.384-.064.699-.197.944-.4a1.99 1.99 0 00.592-.784c.15-.32.25-.693.304-1.12.053-.427.08-.901.08-1.424v-2.576h6.272zm4.156 4.736c.096 1.109.922 1.664 2.48 1.664a6.42 6.42 0 001.408-.144c.437-.096.8-.208 1.088-.336.021.309-.027.635-.144.976a2.364 2.364 0 01-.432.832c-.267.149-.619.277-1.056.384a5.588 5.588 0 01-1.472.176c-1.408 0-2.475-.373-3.2-1.12-.726-.757-1.088-1.787-1.088-3.088 0-.672.096-1.275.288-1.808a4.002 4.002 0 01.816-1.392 3.632 3.632 0 011.296-.88 4.415 4.415 0 011.712-.32c.586 0 1.093.085 1.52.256.426.171.778.416 1.056.736.277.309.485.683.624 1.12.138.437.208.917.208 1.44 0 .256-.022.517-.064.784a4.264 4.264 0 01-.176.72h-4.864zm2.928-1.68a1.937 1.937 0 000-.608 1.098 1.098 0 00-.192-.528 1.063 1.063 0 00-.432-.368c-.182-.096-.416-.144-.704-.144-.502 0-.896.149-1.184.448-.288.288-.448.688-.48 1.2h2.992zm6.589-7.344c.043.565.181.955.416 1.168.245.213.555.32.928.32s.677-.112.912-.336c.245-.235.405-.592.48-1.072.277 0 .544.037.8.112.256.075.459.176.608.304-.107.864-.411 1.52-.912 1.968-.501.448-1.179.672-2.032.672-.779 0-1.397-.203-1.856-.608-.459-.416-.747-1.045-.864-1.888.149-.181.363-.331.64-.448a2.47 2.47 0 01.88-.192zm3.136 6.24h-.128c-.117.288-.224.555-.32.8s-.192.48-.288.704c-.096.224-.197.448-.304.672-.096.224-.197.453-.304.688l-1.552 3.28c-.523 0-1.035-.027-1.536-.08a4.43 4.43 0 01-1.328-.304v-7.6a1.13 1.13 0 01.368-.128c.16-.032.363-.048.608-.048s.448.016.608.048c.171.032.299.075.384.128v5.584h.128c.213-.597.411-1.115.592-1.552.192-.437.395-.885.608-1.344l1.408-2.96c.544 0 1.083.032 1.616.096a5.682 5.682 0 011.408.336v7.584a1.13 1.13 0 01-.368.128c-.16.032-.363.048-.608.048s-.453-.016-.624-.048a1.13 1.13 0 01-.368-.128v-5.904zM11.628 95.982a5.977 5.977 0 01-.27-1.512 15.62 15.62 0 010-1.836c.072-.612.18-1.206.324-1.782.144-.576.324-1.044.54-1.404a30.765 30.765 0 004.158-.378c1.332-.216 2.502-.522 3.51-.918 1.008-.432 1.8-.972 2.376-1.62a3.264 3.264 0 00.918-2.322c0-1.224-.522-2.07-1.566-2.538-1.044-.504-2.376-.756-3.996-.756s-3.33.216-5.13.648A23.905 23.905 0 007.47 83.4c-.072-.432-.09-.954-.054-1.566.036-.648.126-1.314.27-1.998.18-.684.396-1.35.648-1.998a6.929 6.929 0 011.026-1.674c1.26-.648 2.808-1.152 4.644-1.512a27.323 27.323 0 015.67-.594c1.656 0 3.204.18 4.644.54 1.476.324 2.754.846 3.834 1.566a7.618 7.618 0 012.538 2.808c.648 1.116.972 2.466.972 4.05 0 2.34-.666 4.248-1.998 5.724-1.296 1.476-3.024 2.466-5.184 2.97v.432c1.188.216 2.268.522 3.24.918 1.008.36 1.872.882 2.592 1.566.72.648 1.278 1.458 1.674 2.43.432.972.648 2.142.648 3.51 0 1.944-.432 3.618-1.296 5.022-.864 1.404-2.016 2.574-3.456 3.51-1.44.936-3.114 1.62-5.022 2.052a24.846 24.846 0 01-5.94.702 29.53 29.53 0 01-4.752-.378 26.814 26.814 0 01-4.374-.972c-.648-1.044-1.116-2.232-1.404-3.564-.288-1.296-.342-2.52-.162-3.672 1.404.504 2.988.9 4.752 1.188 1.764.252 3.402.378 4.914.378 1.08 0 2.124-.072 3.132-.216 1.008-.18 1.89-.45 2.646-.81.756-.396 1.35-.882 1.782-1.458.468-.612.702-1.35.702-2.214 0-.756-.216-1.386-.648-1.89-.396-.54-1.08-.972-2.052-1.296-.972-.324-2.268-.558-3.888-.702-1.584-.18-3.564-.27-5.94-.27zm38.251-21.924c2.268 0 4.32.342 6.156 1.026 1.872.684 3.456 1.71 4.752 3.078 1.332 1.332 2.34 2.988 3.024 4.968.72 1.98 1.08 4.248 1.08 6.804s-.36 4.842-1.08 6.858c-.684 1.98-1.692 3.654-3.024 5.022-1.296 1.368-2.88 2.43-4.752 3.186-1.836.72-3.888 1.08-6.156 1.08-4.824 0-8.532-1.386-11.124-4.158-2.592-2.808-3.888-6.786-3.888-11.934 0-2.52.378-4.77 1.134-6.75.756-1.98 1.8-3.636 3.132-4.968 1.332-1.368 2.916-2.412 4.752-3.132 1.836-.72 3.834-1.08 5.994-1.08zm-6.858 15.876c0 2.916.576 5.202 1.728 6.858 1.188 1.62 2.898 2.43 5.13 2.43 2.268 0 3.978-.846 5.13-2.538 1.152-1.692 1.728-3.942 1.728-6.75s-.594-5.022-1.782-6.642c-1.188-1.62-2.88-2.43-5.076-2.43-2.268 0-3.978.81-5.13 2.43-1.152 1.62-1.728 3.834-1.728 6.642zm46.704-15.876c2.269 0 4.32.342 6.157 1.026 1.871.684 3.456 1.71 4.752 3.078 1.332 1.332 2.34 2.988 3.024 4.968.72 1.98 1.08 4.248 1.08 6.804s-.36 4.842-1.08 6.858c-.684 1.98-1.692 3.654-3.024 5.022-1.296 1.368-2.88 2.43-4.752 3.186-1.837.72-3.889 1.08-6.157 1.08-4.823 0-8.531-1.386-11.123-4.158-2.593-2.808-3.889-6.786-3.889-11.934 0-2.52.379-4.77 1.135-6.75.755-1.98 1.8-3.636 3.132-4.968 1.331-1.368 2.915-2.412 4.751-3.132 1.837-.72 3.835-1.08 5.995-1.08zm-6.857 15.876c0 2.916.576 5.202 1.728 6.858 1.188 1.62 2.897 2.43 5.13 2.43 2.267 0 3.978-.846 5.13-2.538 1.151-1.692 1.728-3.942 1.728-6.75s-.594-5.022-1.782-6.642c-1.189-1.62-2.88-2.43-5.077-2.43-2.267 0-3.977.81-5.13 2.43-1.151 1.62-1.727 3.834-1.727 6.642zm38.909-15.876c2.268 0 4.32.342 6.156 1.026 1.872.684 3.456 1.71 4.752 3.078 1.332 1.332 2.34 2.988 3.024 4.968.72 1.98 1.08 4.248 1.08 6.804s-.36 4.842-1.08 6.858c-.684 1.98-1.692 3.654-3.024 5.022-1.296 1.368-2.88 2.43-4.752 3.186-1.836.72-3.888 1.08-6.156 1.08-4.824 0-8.532-1.386-11.124-4.158-2.592-2.808-3.888-6.786-3.888-11.934 0-2.52.378-4.77 1.134-6.75.756-1.98 1.8-3.636 3.132-4.968 1.332-1.368 2.916-2.412 4.752-3.132 1.836-.72 3.834-1.08 5.994-1.08zm-6.858 15.876c0 2.916.576 5.202 1.728 6.858 1.188 1.62 2.898 2.43 5.13 2.43 2.268 0 3.978-.846 5.13-2.538 1.152-1.692 1.728-3.942 1.728-6.75s-.594-5.022-1.782-6.642c-1.188-1.62-2.88-2.43-5.076-2.43-2.268 0-3.978.81-5.13 2.43-1.152 1.62-1.728 3.834-1.728 6.642zm38.91-15.876c2.268 0 4.32.342 6.156 1.026 1.872.684 3.456 1.71 4.752 3.078 1.332 1.332 2.34 2.988 3.024 4.968.72 1.98 1.08 4.248 1.08 6.804s-.36 4.842-1.08 6.858c-.684 1.98-1.692 3.654-3.024 5.022-1.296 1.368-2.88 2.43-4.752 3.186-1.836.72-3.888 1.08-6.156 1.08-4.824 0-8.532-1.386-11.124-4.158-2.592-2.808-3.888-6.786-3.888-11.934 0-2.52.378-4.77 1.134-6.75.756-1.98 1.8-3.636 3.132-4.968 1.332-1.368 2.916-2.412 4.752-3.132 1.836-.72 3.834-1.08 5.994-1.08zm-6.858 15.876c0 2.916.576 5.202 1.728 6.858 1.188 1.62 2.898 2.43 5.13 2.43 2.268 0 3.978-.846 5.13-2.538 1.152-1.692 1.728-3.942 1.728-6.75s-.594-5.022-1.782-6.642c-1.188-1.62-2.88-2.43-5.076-2.43-2.268 0-3.978.81-5.13 2.43-1.152 1.62-1.728 3.834-1.728 6.642z" fill="#681A5D"/><path d="M11.628 95.982l-5.692 1.897a6 6 0 005.692 4.103v-6zm-.27-1.512l-5.99.352.002.022 5.988-.374zm0-1.836l-5.959-.701a6.013 6.013 0 00-.03.349l5.989.352zm.324-1.782l-5.82-1.455 5.82 1.455zm.54-1.404l-.15-5.998a6 6 0 00-4.995 2.911l5.145 3.087zm4.158-.378l.96 5.923-.96-5.923zm3.51-.918l2.194 5.585.17-.07-2.364-5.515zm2.376-1.62l-4.362-4.12a6.45 6.45 0 00-.122.134l4.484 3.986zm-.648-4.86l-2.608 5.403c.05.025.102.049.154.072l2.454-5.475zm-9.126-.108l-1.4-5.834a2.644 2.644 0 00-.027.006l1.427 5.828zM7.47 83.4l-5.918.986a6 6 0 008.601 4.38L7.47 83.4zm-.054-1.566l5.99.352v-.02l-5.99-.332zm.27-1.998l-5.802-1.527a6.014 6.014 0 00-.07.29l5.872 1.237zm.648-1.998l-5.483-2.437a6.005 6.005 0 00-.109.262l5.592 2.175zm1.026-1.674l-2.744-5.336a6 6 0 00-1.836 1.46l4.58 3.876zm4.644-1.512l1.155 5.888a6.41 6.41 0 00.087-.018l-1.242-5.87zm10.314-.054l-1.455 5.82c.056.015.112.028.169.04l1.286-5.86zm3.834 1.566l3.328-4.992-3.328 4.992zm2.538 2.808l-5.299 2.815c.036.067.072.132.11.198l5.189-3.013zm-1.026 9.774l-4.454-4.02a5.24 5.24 0 00-.055.061l4.509 3.959zm-5.184 2.97l-1.363-5.843a6 6 0 00-4.637 5.843h6zm0 .432h-6a6 6 0 004.927 5.903l1.073-5.903zm3.24.918l-2.264 5.557c.081.033.163.064.246.093l2.018-5.65zm2.592 1.566l-4.133 4.35.12.11 4.013-4.46zm1.674 2.43l-5.557 2.264.074.173 5.483-2.437zm-.648 8.532l-5.11-3.145 5.11 3.145zm-3.456 3.51l3.27 5.031-3.27-5.031zm-5.022 2.052l-1.325-5.852-.104.025 1.429 5.827zm-10.692.324l.964-5.922a6.176 6.176 0 00-.135-.02l-.829 5.942zm-4.374-.972l-5.098 3.164a5.997 5.997 0 003.291 2.557l1.807-5.721zm-1.404-3.564l5.865-1.268-.008-.034-5.857 1.302zm-.162-3.672l2.027-5.647A6 6 0 00.3 102.346l5.928.926zm4.752 1.188l-.967 5.922.119.018.848-5.94zm8.046.162l.849 5.94c.069-.01.137-.021.206-.033l-1.055-5.907zm2.646-.81l2.58 5.417c.068-.033.137-.067.204-.102l-2.784-5.315zm1.782-1.458l-4.766-3.645-.034.045 4.8 3.6zm.054-4.104l-4.838 3.548c.09.123.184.242.282.357l4.556-3.905zm-2.052-1.296l1.897-5.692-1.897 5.692zm-3.888-.702l-.678 5.962.147.014.531-5.976zm-.248-2.167c.015.046.025.081.031.104l.008.036-.004-.032a1.798 1.798 0 01-.009-.097l-11.976.748c.06.964.22 2 .566 3.035l11.384-3.794zm.028.033a9.662 9.662 0 010-1.132l-11.98-.704a21.62 21.62 0 000 2.54l11.98-.704zm-.031-.783c.043-.367.106-.71.186-1.028L5.86 89.397a20.16 20.16 0 00-.462 2.536l11.918 1.402zm.186-1.028c.023-.092.034-.115.022-.084-.011.03-.057.144-.158.312l-10.29-6.174c-.618 1.03-.983 2.103-1.216 3.036l11.642 2.91zm-5.131 3.14a36.752 36.752 0 004.968-.454l-1.92-11.846a24.78 24.78 0 01-3.348.303l.3 11.996zm4.968-.454c1.656-.269 3.255-.671 4.744-1.256l-4.388-11.17c-.527.208-1.268.417-2.276.58l1.92 11.846zm4.913-1.326c1.611-.69 3.202-1.691 4.497-3.149l-8.968-7.972c.143-.162.15-.083-.256.091l4.727 11.03zm4.375-3.015a9.261 9.261 0 002.556-6.442h-12c0-.243.044-.58.19-.95.148-.372.35-.657.53-.848l8.724 8.24zm2.556-6.442c0-1.468-.318-3.136-1.285-4.703-.984-1.594-2.378-2.66-3.827-3.31l-4.908 10.95c-.405-.181-1.016-.59-1.478-1.339-.445-.721-.502-1.354-.502-1.598h12zm-4.957-7.941c-2.115-1.021-4.418-1.353-6.605-1.353v12c1.053 0 1.414.172 1.387.16l5.218-10.807zm-6.605-1.353c-2.153 0-4.335.287-6.53.814l2.8 11.668c1.405-.337 2.643-.482 3.73-.482v-12zm-6.557.82a29.907 29.907 0 00-6.278 2.297l5.366 10.734a17.904 17.904 0 013.766-1.375l-2.854-11.656zm2.323 6.678c.015.085.013.111.01.064a3.33 3.33 0 01.008-.292l-11.98-.704c-.052.896-.043 1.894.126 2.904l11.836-1.972zm.019-.247c.018-.322.064-.686.15-1.095L1.815 78.6a19.237 19.237 0 00-.39 2.901l11.982.666zm.081-.804c.124-.468.27-.918.438-1.35l-11.184-4.35a24.497 24.497 0 00-.858 2.646l11.604 3.054zm.329-1.088c.092-.208.147-.264.123-.235l-9.16-7.752a12.917 12.917 0 00-1.929 3.113l10.966 4.874zM12.104 81.5c.628-.323 1.606-.676 3.055-.96l-2.31-11.776c-2.223.436-4.341 1.091-6.233 2.064L12.104 81.5zm3.142-.978a21.322 21.322 0 014.428-.464v-12c-2.326 0-4.633.242-6.912.724l2.484 11.74zm4.428-.464c1.221 0 2.276.133 3.189.36l2.91-11.64c-1.967-.493-4.008-.72-6.099-.72v12zm3.358.4c.865.19 1.425.454 1.792.698l6.656-9.984c-1.794-1.196-3.789-1.976-5.876-2.434l-2.572 11.72zm1.792.698c.248.166.42.352.567.63l10.598-5.629a13.616 13.616 0 00-4.509-4.985l-6.656 9.984zm.677.829c.008.014.161.272.161 1.037h12c0-2.403-.495-4.845-1.783-7.063L25.5 81.985zm.161 1.037c0 1.134-.287 1.521-.452 1.704l8.908 8.04c2.5-2.77 3.544-6.198 3.544-9.744h-12zm-.507 1.765c-.365.416-.934.828-2.038 1.086l2.726 11.686c3.216-.75 6.103-2.318 8.33-4.854l-9.018-7.918zm-6.675 6.929v.432h12v-.432h-12zm4.927 6.335c.84.153 1.513.353 2.05.572l4.527-11.114a22.298 22.298 0 00-4.43-1.264L23.406 98.05zm2.295.665c.282.101.41.202.477.266l8.265-8.7c-1.372-1.304-2.972-2.247-4.706-2.867l-4.036 11.301zm.596.376a.191.191 0 01.032.037c.017.026.054.085.1.197l11.113-4.528c-.71-1.74-1.769-3.322-3.217-4.626l-8.028 8.92zm.205.407c.009.019.131.314.131 1.073h12c0-1.977-.31-4.022-1.165-5.947L26.503 99.5zm.131 1.073c0 1.035-.221 1.577-.406 1.877l10.22 6.29c1.543-2.508 2.186-5.314 2.186-8.167h-12zm-.406 1.877c-.378.615-.89 1.152-1.616 1.624l6.54 10.062c2.153-1.4 3.946-3.203 5.296-5.396l-10.22-6.29zm-1.616 1.624c-.769.5-1.766.934-3.077 1.231l2.65 11.704c2.505-.567 4.856-1.501 6.967-2.873l-6.54-10.062zm-3.181 1.256c-1.42.348-2.92.529-4.511.529v12a30.83 30.83 0 007.37-.875l-2.86-11.654zm-4.511.529a23.58 23.58 0 01-3.788-.3l-1.928 11.844a35.48 35.48 0 005.716.456v-12zm-3.923-.32a20.921 20.921 0 01-3.396-.751l-3.614 11.442c1.714.542 3.502.935 5.352 1.193l1.658-11.884zm-.105 1.806c-.249-.401-.479-.934-.637-1.668l-11.73 2.536c.418 1.93 1.124 3.773 2.171 5.46l10.196-6.328zm-.645-1.702c-.148-.664-.14-1.128-.09-1.444L.3 102.346c-.31 1.988-.195 3.972.233 5.9l11.714-2.604zm-8.046 3.277c1.808.649 3.756 1.127 5.812 1.463l1.934-11.844c-1.472-.24-2.692-.554-3.692-.913l-4.054 11.294zm5.93 1.481c1.997.285 3.922.438 5.763.438v-12c-1.183 0-2.534-.099-4.066-.318l-1.696 11.88zm5.763.438c1.347 0 2.675-.09 3.98-.276l-1.697-11.88c-.71.102-1.47.156-2.283.156v12zm4.187-.309c1.423-.255 2.837-.665 4.17-1.3l-5.159-10.834c-.178.085-.528.215-1.12.32l2.109 11.814zm4.375-1.402c1.402-.734 2.74-1.762 3.798-3.173l-9.6-7.2a1.43 1.43 0 01.231-.247c.05-.042.06-.04.003-.01l5.568 10.63zm3.764-3.128c1.365-1.785 1.936-3.846 1.936-5.859h-12c0-.113.016-.33.105-.612.092-.289.238-.571.427-.819L28.22 106zm1.936-5.859c0-1.977-.6-4.053-2.092-5.795l-9.111 7.81a3.414 3.414 0 01-.635-1.109 2.829 2.829 0 01-.162-.906h12zm-1.81-5.438c-1.426-1.945-3.427-2.918-4.993-3.44l-3.794 11.384c.142.048.093.048-.065-.052a3.124 3.124 0 01-.824-.796l9.676-7.096zm-4.993-3.44c-1.594-.532-3.406-.822-5.254-.986l-1.062 11.952c1.392.124 2.172.302 2.522.418l3.794-11.384zm-5.108-.972c-1.889-.214-4.113-.308-6.617-.308v12c2.248 0 3.983.086 5.262.232l1.355-11.924zm37.79-15.206l-2.094 5.623.035.013 2.06-5.636zm4.752 3.078l-4.355 4.126c.037.04.075.078.113.117l4.242-4.243zm3.024 4.968l-5.67 1.96c.01.03.02.06.032.09l5.638-2.05zm0 13.662l-5.65-2.018-.02.059 5.67 1.959zm-3.024 5.022l-4.298-4.186-.057.06 4.355 4.126zM56.035 105l2.19 5.586.057-.023L56.035 105zm-17.28-3.078l-4.408 4.07.026.028 4.382-4.098zm-2.754-18.684l5.606 2.14L36 83.238zm3.132-4.968l4.243 4.243.056-.057-4.299-4.186zm4.752-3.132l-2.19-5.586 2.19 5.586zm.864 21.654l-4.925 3.426.087.122 4.838-3.548zm10.26-.108l-4.96-3.377 4.96 3.377zm-.054-13.392l-4.838 3.548 4.838-3.548zm-10.206 0l4.89 3.477-4.89-3.477zm5.13-3.234c1.664 0 2.992.25 4.062.648l4.19-11.245c-2.604-.97-5.38-1.403-8.252-1.403v12zm4.097.662c1.052.384 1.835.913 2.456 1.569l8.711-8.254c-1.971-2.08-4.356-3.603-7.048-4.587L53.976 80.72zm2.569 1.685c.62.62 1.175 1.466 1.595 2.684l11.343-3.918c-.948-2.742-2.409-5.208-4.453-7.252l-8.485 8.486zm1.628 2.775c.436 1.2.718 2.753.718 4.754h12c0-3.11-.437-6.094-1.44-8.855l-11.278 4.102zm.718 4.754c0 1.998-.281 3.584-.73 4.84l11.3 4.036c.992-2.776 1.43-5.762 1.43-8.876h-12zm-.75 4.899c-.425 1.228-.994 2.119-1.652 2.795L65.086 106c2.006-2.06 3.453-4.517 4.397-7.249L58.14 94.833zm-1.71 2.855c-.662.7-1.51 1.291-2.642 1.748l4.493 11.127c2.612-1.054 4.932-2.586 6.861-4.623l-8.711-8.252zm-2.586 1.726c-1.042.409-2.336.666-3.966.666v12c2.907 0 5.717-.463 8.347-1.494l-4.381-11.172zm-3.966.666c-3.64 0-5.573-1.007-6.741-2.256l-8.765 8.196c4.016 4.295 9.5 6.06 15.506 6.06v-12zm-6.715-2.228c-1.257-1.362-2.297-3.692-2.297-7.864h-12c0 6.124 1.553 11.75 5.48 16.004l8.817-8.14zm-2.297-7.864c0-1.924.289-3.429.74-4.61l-11.21-4.28c-1.062 2.779-1.53 5.774-1.53 8.89h12zm.74-4.61c.492-1.29 1.105-2.201 1.769-2.865l-8.485-8.486c-2 2-3.475 4.4-4.495 7.07l11.21 4.281zm1.825-2.922c.717-.737 1.575-1.313 2.644-1.732l-4.381-11.172a19.346 19.346 0 00-6.86 4.532l8.597 8.372zm2.644-1.732c1.074-.422 2.322-.666 3.803-.666v-12c-2.838 0-5.587.475-8.184 1.494l4.38 11.172zm-9.055 9.21c0 3.62.703 7.266 2.803 10.284l9.85-6.852c-.203-.294-.653-1.22-.653-3.432h-12zm2.89 10.406c2.456 3.349 6.07 4.882 9.968 4.882v-12a1.88 1.88 0 01-.368-.03c-.052-.01-.052-.015-.02 0 .035.016.072.04.102.066.029.023.025.027-.005-.014l-9.677 7.096zm9.968 4.882c4.002 0 7.686-1.631 10.09-5.161l-9.92-6.754c-.028.042-.027.032.01-.002a.671.671 0 01.143-.095c.05-.025.066-.024.026-.015a1.772 1.772 0 01-.349.027v12zm10.09-5.161c2.04-2.996 2.768-6.55 2.768-10.127h-12c0 2.039-.422 2.985-.687 3.373l9.919 6.754zm2.768-10.127c0-3.59-.753-7.203-2.943-10.19l-9.677 7.096c.186.254.62 1.068.62 3.094h12zm-2.943-10.19c-2.435-3.32-6.014-4.882-9.915-4.882v12c.181 0 .285.017.33.026.04.008.033.011-.004-.007a.509.509 0 01-.104-.066c-.026-.022-.019-.022.016.025l9.677-7.096zm-9.915-4.882c-3.894 0-7.57 1.51-10.02 4.953l9.78 6.954c.017-.023.006-.003-.038.034a.645.645 0 01-.137.089c-.04.019-.041.013.016.001.06-.012.188-.031.4-.031v-12zm-10.02 4.953c-2.116 2.977-2.838 6.562-2.838 10.119h12c0-2.059.431-2.902.618-3.165l-9.78-6.954zm56.023-4.731l-2.095 5.623.035.013 2.06-5.636zm4.752 3.078l-4.356 4.126c.037.04.075.078.113.117l4.243-4.243zm3.024 4.968l-5.672 1.96.033.09 5.639-2.05zm0 13.662l-5.65-2.018-.022.059 5.672 1.959zm-3.024 5.022l-4.3-4.186-.056.06 4.356 4.126zM95.882 105l2.19 5.586.056-.023L95.882 105zm-17.28-3.078l-4.41 4.07.027.028 4.383-4.098zm-2.755-18.684l5.606 2.14-5.606-2.14zm3.133-4.968l4.242 4.243.056-.057-4.299-4.186zm4.751-3.132l-2.19-5.586 2.19 5.586zm.865 21.654l-4.926 3.426.087.122 4.838-3.548zm10.26-.108l-4.96-3.377 4.96 3.377zm-.054-13.392l-4.839 3.548 4.839-3.548zm-10.207 0l4.89 3.477-4.89-3.477zm5.13-3.234c1.664 0 2.993.25 4.062.648l4.19-11.245c-2.604-.97-5.38-1.403-8.252-1.403v12zm4.097.662c1.052.384 1.835.913 2.456 1.569l8.711-8.254c-1.971-2.08-4.356-3.603-7.048-4.587L93.822 80.72zm2.569 1.685c.62.62 1.175 1.466 1.595 2.684l11.343-3.918c-.948-2.742-2.409-5.208-4.453-7.252l-8.485 8.486zm1.628 2.775c.436 1.2.718 2.753.718 4.754h12.001c0-3.11-.438-6.094-1.442-8.855l-11.277 4.102zm.718 4.754c0 1.998-.281 3.584-.73 4.84l11.301 4.036c.991-2.776 1.43-5.762 1.43-8.876h-12zm-.75 4.899c-.425 1.228-.994 2.119-1.652 2.795l8.597 8.372c2.006-2.06 3.453-4.517 4.397-7.249l-11.343-3.918zm-1.71 2.855c-.662.7-1.51 1.291-2.642 1.748l4.493 11.127c2.612-1.054 4.932-2.586 6.861-4.623l-8.711-8.252zm-2.586 1.726c-1.042.409-2.336.666-3.966.666v12c2.907 0 5.717-.463 8.347-1.494l-4.381-11.172zm-3.966.666c-3.64 0-5.573-1.007-6.741-2.256l-8.765 8.196c4.016 4.295 9.5 6.06 15.507 6.06v-12zm-6.715-2.228c-1.257-1.362-2.297-3.692-2.297-7.864h-12c0 6.124 1.553 11.75 5.48 16.004l8.817-8.14zm-2.297-7.864c0-1.924.289-3.429.74-4.61l-11.21-4.28c-1.062 2.779-1.53 5.774-1.53 8.89h12zm.74-4.61c.492-1.29 1.105-2.201 1.77-2.865l-8.486-8.486c-2 2-3.475 4.4-4.495 7.07l11.21 4.281zm1.825-2.922c.717-.737 1.576-1.313 2.644-1.732l-4.381-11.172c-2.603 1.021-4.913 2.533-6.86 4.532l8.597 8.372zm2.644-1.732c1.075-.422 2.322-.666 3.803-.666v-12c-2.838 0-5.587.475-8.184 1.494l4.381 11.172zm-9.054 9.21c0 3.62.702 7.266 2.802 10.284l9.85-6.852c-.203-.294-.652-1.22-.652-3.432h-12zm2.89 10.406c2.455 3.349 6.07 4.882 9.968 4.882v-12a1.88 1.88 0 01-.369-.03c-.052-.01-.052-.015-.02 0 .035.016.073.04.102.066.03.023.025.027-.005-.014l-9.677 7.096zm9.968 4.882c4.002 0 7.685-1.631 10.09-5.161l-9.92-6.754c-.029.042-.028.032.01-.002a.671.671 0 01.142-.095c.05-.025.066-.024.026-.015a1.772 1.772 0 01-.349.027v12zm10.09-5.161c2.038-2.996 2.768-6.55 2.768-10.127h-12c0 2.039-.423 2.985-.688 3.373l9.92 6.754zm2.768-10.127c0-3.59-.754-7.203-2.944-10.19l-9.677 7.096c.186.254.62 1.068.62 3.094h12.001zm-2.944-10.19c-2.435-3.32-6.014-4.882-9.915-4.882v12c.181 0 .286.017.33.026.04.008.033.011-.004-.007a.509.509 0 01-.104-.066c-.026-.022-.019-.022.016.025l9.677-7.096zm-9.915-4.882c-3.894 0-7.57 1.51-10.02 4.953l9.78 6.954c.017-.023.006-.003-.037.034a.645.645 0 01-.137.089c-.04.019-.042.013.015.001.06-.012.188-.031.4-.031v-12zm-10.02 4.953c-2.116 2.977-2.837 6.562-2.837 10.119h12c0-2.059.43-2.902.617-3.165l-9.78-6.954zm48.228-4.731l-2.094 5.623.035.013 2.059-5.636zm4.752 3.078l-4.355 4.126c.037.04.075.078.113.117l4.242-4.243zm3.024 4.968l-5.671 1.96.033.09 5.638-2.05zm0 13.662l-5.65-2.018-.021.059 5.671 1.959zm-3.024 5.022l-4.298-4.186-.057.06 4.355 4.126zM127.933 105l2.191 5.586.056-.023-2.247-5.563zm-17.28-3.078l-4.408 4.07a.664.664 0 00.026.028l4.382-4.098zm-2.754-18.684l5.606 2.14-5.606-2.14zm3.132-4.968l4.243 4.243.056-.057-4.299-4.186zm4.752-3.132l-2.19-5.586 2.19 5.586zm.864 21.654l-4.925 3.426.087.122 4.838-3.548zm10.26-.108l-4.959-3.377 4.959 3.377zm-.054-13.392l-4.838 3.548 4.838-3.548zm-10.206 0l4.89 3.477-4.89-3.477zm5.13-3.234c1.664 0 2.993.25 4.062.648l4.189-11.245c-2.603-.97-5.378-1.403-8.251-1.403v12zm4.097.662c1.052.384 1.835.913 2.456 1.569l8.711-8.254c-1.971-2.08-4.356-3.603-7.048-4.587l-4.119 11.272zm2.569 1.685c.62.62 1.175 1.466 1.595 2.684l11.343-3.918c-.948-2.742-2.409-5.208-4.453-7.252l-8.485 8.486zm1.628 2.775c.436 1.2.718 2.753.718 4.754h12c0-3.11-.437-6.094-1.441-8.855l-11.277 4.102zm.718 4.754c0 1.998-.281 3.584-.73 4.84l11.301 4.036c.991-2.776 1.429-5.762 1.429-8.876h-12zm-.751 4.899c-.424 1.228-.993 2.119-1.651 2.795l8.597 8.372c2.006-2.06 3.453-4.517 4.397-7.249l-11.343-3.918zm-1.708 2.855c-.663.7-1.511 1.291-2.643 1.748l4.493 11.127c2.612-1.054 4.932-2.586 6.861-4.623l-8.711-8.252zm-2.587 1.726c-1.042.409-2.336.666-3.966.666v12c2.907 0 5.717-.463 8.347-1.494l-4.381-11.172zm-3.966.666c-3.641 0-5.573-1.007-6.741-2.256l-8.765 8.196c4.016 4.295 9.499 6.06 15.506 6.06v-12zm-6.715-2.228c-1.257-1.362-2.297-3.692-2.297-7.864h-12c0 6.124 1.553 11.75 5.48 16.004l8.817-8.14zm-2.297-7.864c0-1.924.289-3.429.74-4.61l-11.211-4.28c-1.061 2.779-1.529 5.774-1.529 8.89h12zm.74-4.61c.492-1.29 1.105-2.201 1.769-2.865l-8.485-8.486c-2 2-3.475 4.4-4.495 7.07l11.211 4.281zm1.825-2.922c.717-.737 1.576-1.313 2.644-1.732l-4.381-11.172a19.346 19.346 0 00-6.86 4.532l8.597 8.372zm2.644-1.732c1.074-.422 2.322-.666 3.803-.666v-12c-2.838 0-5.587.475-8.184 1.494l4.381 11.172zm-9.055 9.21c0 3.62.703 7.266 2.803 10.284l9.851-6.852c-.204-.294-.654-1.22-.654-3.432h-12zm2.89 10.406c2.456 3.349 6.07 4.882 9.968 4.882v-12a1.88 1.88 0 01-.368-.03c-.052-.01-.052-.015-.02 0 .035.016.073.04.102.066.029.023.025.027-.005-.014l-9.677 7.096zm9.968 4.882c4.002 0 7.686-1.631 10.09-5.161l-9.919-6.754c-.029.042-.028.032.01-.002a.679.679 0 01.142-.095c.05-.025.066-.024.026-.015a1.772 1.772 0 01-.349.027v12zm10.09-5.161c2.039-2.996 2.768-6.55 2.768-10.127h-12c0 2.039-.423 2.985-.687 3.373l9.919 6.754zm2.768-10.127c0-3.59-.753-7.203-2.943-10.19l-9.677 7.096c.186.254.62 1.068.62 3.094h12zm-2.943-10.19c-2.435-3.32-6.014-4.882-9.915-4.882v12c.181 0 .286.017.329.026.041.008.034.011-.003-.007a.48.48 0 01-.104-.066c-.026-.022-.019-.022.016.025l9.677-7.096zm-9.915-4.882c-3.894 0-7.57 1.51-10.019 4.953l9.779 6.954c.017-.023.006-.003-.038.034a.608.608 0 01-.137.089c-.04.019-.041.013.016.001.061-.012.188-.031.399-.031v-12zm-10.019 4.953c-2.117 2.977-2.839 6.562-2.839 10.119h12c0-2.059.431-2.902.618-3.165l-9.779-6.954zm48.227-4.731l-2.094 5.623.035.013 2.059-5.636zm4.752 3.078l-4.355 4.126c.037.04.075.078.113.117l4.242-4.243zm3.024 4.968l-5.671 1.96.033.09 5.638-2.05zm0 13.662l-5.65-2.018-.021.059 5.671 1.959zm-3.024 5.022l-4.298-4.186-.057.06 4.355 4.126zM159.985 105l2.191 5.586.056-.023-2.247-5.563zm-17.28-3.078l-4.408 4.07a.664.664 0 00.026.028l4.382-4.098zm-2.754-18.684l5.606 2.14-5.606-2.14zm3.132-4.968l4.243 4.243.056-.057-4.299-4.186zm4.752-3.132l-2.19-5.586 2.19 5.586zm.864 21.654l-4.925 3.426c.028.041.057.082.087.122l4.838-3.548zm10.26-.108L154 93.307l4.959 3.377zm-.054-13.392l-4.838 3.548 4.838-3.548zm-10.206 0l4.89 3.477-4.89-3.477zm5.13-3.234c1.664 0 2.992.25 4.062.648l4.189-11.245c-2.603-.97-5.378-1.403-8.251-1.403v12zm4.097.662c1.052.384 1.835.913 2.456 1.569l8.711-8.254c-1.971-2.08-4.356-3.603-7.048-4.587l-4.119 11.272zm2.569 1.685c.62.62 1.175 1.466 1.595 2.684l11.343-3.918c-.948-2.742-2.409-5.208-4.453-7.252l-8.485 8.486zm1.628 2.775c.436 1.2.718 2.753.718 4.754h12c0-3.11-.437-6.094-1.441-8.855l-11.277 4.102zm.718 4.754c0 1.998-.281 3.584-.73 4.84l11.301 4.036c.991-2.776 1.429-5.762 1.429-8.876h-12zm-.751 4.899c-.424 1.228-.993 2.119-1.651 2.795l8.597 8.372c2.006-2.06 3.453-4.517 4.397-7.249l-11.343-3.918zm-1.708 2.855c-.663.7-1.511 1.291-2.643 1.748l4.493 11.127c2.612-1.054 4.932-2.586 6.861-4.623l-8.711-8.252zm-2.587 1.726c-1.042.409-2.336.666-3.966.666v12c2.907 0 5.717-.463 8.347-1.494l-4.381-11.172zm-3.966.666c-3.641 0-5.573-1.007-6.741-2.256l-8.765 8.196c4.016 4.295 9.499 6.06 15.506 6.06v-12zm-6.715-2.228c-1.257-1.362-2.297-3.692-2.297-7.864h-12c0 6.124 1.553 11.75 5.48 16.004l8.817-8.14zm-2.297-7.864c0-1.924.289-3.429.74-4.61l-11.211-4.28c-1.061 2.779-1.529 5.774-1.529 8.89h12zm.74-4.61c.492-1.29 1.105-2.201 1.769-2.865l-8.485-8.486c-2 2-3.475 4.4-4.495 7.07l11.211 4.281zm1.825-2.922c.717-.737 1.575-1.313 2.644-1.732l-4.381-11.172a19.346 19.346 0 00-6.86 4.532l8.597 8.372zm2.644-1.732c1.074-.422 2.321-.666 3.803-.666v-12c-2.838 0-5.587.475-8.184 1.494l4.381 11.172zm-9.055 9.21c0 3.62.703 7.266 2.803 10.284l9.851-6.852c-.204-.294-.654-1.22-.654-3.432h-12zm2.89 10.406c2.456 3.349 6.07 4.882 9.968 4.882v-12a1.88 1.88 0 01-.368-.03c-.052-.01-.052-.015-.02 0 .035.016.072.04.102.066.029.023.025.027-.005-.014l-9.677 7.096zm9.968 4.882c4.002 0 7.686-1.631 10.09-5.161L154 93.307c-.029.042-.028.032.01-.002a.679.679 0 01.142-.095c.05-.025.066-.024.026-.015a1.772 1.772 0 01-.349.027v12zm10.09-5.161c2.039-2.996 2.768-6.55 2.768-10.127h-12c0 2.039-.423 2.985-.687 3.373l9.919 6.754zm2.768-10.127c0-3.59-.753-7.203-2.943-10.19l-9.677 7.096c.186.254.62 1.068.62 3.094h12zm-2.943-10.19c-2.435-3.32-6.014-4.882-9.915-4.882v12c.181 0 .285.017.329.026.041.008.034.011-.003-.007a.48.48 0 01-.104-.066c-.026-.022-.019-.022.016.025l9.677-7.096zm-9.915-4.882c-3.894 0-7.571 1.51-10.019 4.953l9.779 6.954c.016-.023.006-.003-.038.034a.608.608 0 01-.137.089c-.04.019-.041.013.016.001.061-.012.188-.031.399-.031v-12zm-10.019 4.953c-2.117 2.977-2.839 6.562-2.839 10.119h12c0-2.059.431-2.902.618-3.165l-9.779-6.954z" fill="#fff"/><circle cx="85.5" cy="28" r="18" fill="#681A5D"/><path d="M88.033 29.97a3.018 3.018 0 01-.244-.727 7.905 7.905 0 01-.136-.909 7.32 7.32 0 01.026-.905c.028-.296.081-.541.16-.736a15.03 15.03 0 002.003-.499 8.407 8.407 0 001.647-.717c.46-.29.807-.616 1.04-.98a1.65 1.65 0 00.277-1.218c-.091-.605-.409-.985-.953-1.138-.547-.171-1.217-.196-2.008-.074-.791.121-1.61.356-2.458.705-.83.346-1.602.774-2.317 1.285a3.611 3.611 0 01-.142-.77 6.725 6.725 0 01-.016-1.01c.037-.352.094-.697.169-1.037.092-.342.218-.644.377-.905.567-.415 1.286-.78 2.156-1.097a13.36 13.36 0 012.726-.719 9.318 9.318 0 012.308-.081c.745.05 1.408.212 1.988.487a3.773 3.773 0 011.448 1.2c.4.503.657 1.147.775 1.93.173 1.158-.011 2.152-.552 2.983-.524.827-1.295 1.447-2.313 1.858l.032.214a7.952 7.952 0 011.65.211c.52.102.98.296 1.383.58.4.267.732.626.997 1.077.283.449.475 1.011.577 1.688.144.962.057 1.823-.261 2.583a5.546 5.546 0 01-1.428 1.996c-.635.57-1.401 1.035-2.302 1.392-.897.374-1.846.639-2.849.793-.791.121-1.574.178-2.349.169a13.01 13.01 0 01-2.208-.153 5.612 5.612 0 01-.95-1.658 4.982 4.982 0 01-.35-1.805c.722.144 1.525.221 2.408.232.88-.008 1.69-.069 2.428-.182a10.807 10.807 0 001.514-.342c.48-.165.89-.364 1.233-.6.34-.252.594-.537.762-.854.183-.338.243-.72.179-1.148-.056-.374-.208-.67-.457-.887-.233-.238-.599-.4-1.098-.487-.499-.088-1.149-.106-1.95-.056-.788.03-1.761.134-2.922.312zM72.3 26.14a2.47 2.47 0 01.722-.46c.302-.149.684-.268 1.146-.357.347-.066.64-.1.88-.1.239 0 .413.013.523.038l1.51 1.59c.148.155.294.333.436.535.154.184.28.374.376.57l.173-.034a2.72 2.72 0 01.101-.66c.06-.242.131-.462.214-.66l.744-2.023c.093-.064.244-.139.452-.225.223-.088.5-.164.833-.228.448-.086.832-.114 1.152-.084.332.013.604.068.817.165l-2.27 5.639 4.715 4.803c-.128.116-.332.224-.613.324a4.666 4.666 0 01-.937.272 6.86 6.86 0 01-1.143.127c-.355.022-.62.012-.792-.031l-1.858-1.89a36.561 36.561 0 01-.48-.527 3.684 3.684 0 01-.354-.574l-.173.033a2.235 2.235 0 01-.123.665c-.077.23-.155.45-.235.664l-1.004 2.44c-.16.106-.4.214-.725.322-.307.12-.663.219-1.067.296-.737.142-1.275.146-1.614.012l2.716-6.366L72.3 26.14z" fill="#fff"/></svg>