<svg width="672" height="202" fill="none" xmlns="http://www.w3.org/2000/svg"><path d="M26.876 177.223c1.805-.588 3.463-.625 4.973-.184 1.51.478 2.874 1.544 4.016 3.272 1.105 1.654 1.695 3.272 1.695 4.889.037 1.618-.332 3.162-1.069 4.669-.736 1.507-1.805 2.904-3.168 4.264-1.363 1.36-2.91 2.61-4.605 3.75-1.62 1.103-3.131 1.948-4.568 2.573A32.2 32.2 0 0119.803 202c-1.18-.625-2.248-1.47-3.205-2.537a20.012 20.012 0 01-2.432-3.308c1.4-.221 3.058-.699 4.9-1.434 1.879-.772 3.574-1.654 5.158-2.72 1.694-1.14 2.873-2.316 3.573-3.492.7-1.177.626-2.353-.147-3.529-.737-1.067-1.695-1.508-2.947-1.361-1.253.147-3.095 1.066-5.49 2.684l-3.02 2.059a21.24 21.24 0 01-1.695-2.905 13.216 13.216 0 01-1.032-3.088l2.91-1.985c.848-.551 1.585-1.139 2.285-1.727.663-.589 1.179-1.177 1.547-1.765.368-.588.59-1.213.626-1.801.037-.625-.147-1.213-.59-1.838-.589-.883-1.362-1.324-2.283-1.324-.921 0-2.174.515-3.647 1.507-1.143.772-2.21 1.692-3.242 2.758s-1.953 2.316-2.8 3.712a6.753 6.753 0 01-.958-1.36 11.497 11.497 0 01-.774-1.801 13.126 13.126 0 01-.515-1.985c-.111-.662-.148-1.324-.074-1.948.663-1.287 1.584-2.537 2.726-3.713a24.002 24.002 0 013.795-3.162 21.566 21.566 0 014.126-2.206c1.363-.514 2.652-.771 3.942-.735a8.348 8.348 0 013.61.919c1.142.588 2.137 1.581 3.058 2.904 1.105 1.618 1.657 3.272 1.694 4.963.037 1.691-.7 3.382-2.247 5.073l.221.368zm35.846-17.094c.663 1.25 1.252 1.948 1.805 2.095.552.147 1.142 0 1.768-.441a5.345 5.345 0 001.068-.919c.258-.331.48-.662.663-1.029.443.441.885.992 1.253 1.654.368.662.7 1.323.958 1.985.258.662.479 1.324.59 2.022.11.662.147 1.25.11 1.765-.368.735-.774 1.397-1.29 1.985-.478.588-1.215 1.213-2.173 1.875-1.658 1.102-3.168 1.617-4.642 1.507-1.437-.111-2.8-.956-4.09-2.537l-.368.258c.295 1.617.148 3.345-.479 5.183-.626 1.838-1.989 3.492-4.089 4.926a12.65 12.65 0 01-3.647 1.691c-1.29.331-2.616.331-4.015 0-1.4-.331-2.8-1.066-4.237-2.206-1.437-1.139-2.91-2.757-4.384-4.926a30.657 30.657 0 01-3.61-7.095c-.885-2.499-1.29-5.036-1.216-7.609.073-3.088.92-5.845 2.505-8.272 1.584-2.426 3.647-4.484 6.152-6.212 2.063-1.434 4.09-2.39 6.079-2.941 1.952-.552 3.905-.735 5.784-.662l9.505 17.903zm-14.736-8.786c-.553.073-1.032.147-1.474.331-.442.147-.958.441-1.584.882-1.326.882-2.284 1.875-2.91 2.978-.627 1.103-.958 2.205-1.032 3.382-.074 1.617.22 3.272.958 4.963a26.84 26.84 0 002.357 4.484c1.437 2.059 2.727 3.309 3.942 3.713 1.216.405 2.505.147 3.832-.772 1.142-.772 1.915-1.654 2.32-2.646.443-.993.664-2.022.774-3.162l-7.183-14.153zm70.849-51.178c.925 2.662 1.773 5.728 2.603 9.2.83 3.472 1.498 6.646 2.061 9.582l7.809 36.448a91.544 91.544 0 01-8.853 5.064c-2.859 1.382-5.589 2.479-8.067 3.179l-22.589-25.369c-1.61-1.704-3.489-3.886-5.582-6.485s-3.903-5.011-5.431-7.235l-.78.488 10.362 20.267c2.458 4.77 4.249 8.868 5.364 12.47 1.117 3.544 1.725 6.773 1.765 9.686.04 2.912-.49 5.565-1.651 8.014-1.104 2.453-2.79 4.936-4.998 7.337-4.633-.562-8.916-3.669-12.79-9.319 2.501-2.446 3.679-5.244 3.478-8.455-.201-3.21-1.469-7.285-3.806-12.165l-13.952-29.513c2.34-2.744 5.142-5.409 8.408-8.053 3.325-2.641 7.06-5.321 11.204-8.041l22.198 25.003c1.934 2.242 3.869 4.485 5.854 6.904 1.929 2.359 3.792 4.89 5.594 7.476l.78-.488c-1.327-2.797-2.521-5.937-3.647-9.307-1.125-3.369-1.921-6.316-2.445-8.843l-7.382-34.333c4.321-2.77 8.272-5.09 11.911-6.96 3.636-1.812 7.198-3.278 10.683-4.34l19.985 38.87c1.173 2.324 2.279 3.598 3.317 3.82 1.036.281 2.156-.017 3.358-.835a7.71 7.71 0 002.882-3.127 18.59 18.59 0 012.238 3.246c.646 1.136 1.171 2.382 1.638 3.626.466 1.244.759 2.48.879 3.649.179 1.173.189 2.221.03 3.145a14.871 14.871 0 01-2.309 3.328c-.92 1.005-2.191 2.053-3.93 3.137-3.602 2.337-6.723 3.067-9.422 2.244-2.699-.823-5.159-3.031-7.497-6.631-.488-.779-1.14-1.799-1.839-3.053a40.474 40.474 0 01-1.654-3.278l-15.167-30.965-.61.612z" fill="#fff"/><path d="M185.326 118.125a210.567 210.567 0 002.071-10.789c.642-3.812 1.166-7.572 1.512-11.281.343-3.651.501-7.078.469-10.165-.032-3.086-.323-5.602-.877-7.49-.4-1.416-.996-2.375-1.73-2.874-.792-.502-1.838-.55-3.255-.15a8.332 8.332 0 00-2.32 1.058c-.66.435-1.089.88-1.401 1.332-.477-1.011-.775-2.131-.948-3.42a20.18 20.18 0 01-.177-3.733c.059-1.278.171-2.437.396-3.532.225-1.096.501-2.014.824-2.698a15.831 15.831 0 013.047-2.945c1.266-.931 2.992-1.725 5.235-2.378 4.484-1.25 8.023-.97 10.613.954 2.651 1.868 4.496 4.805 5.652 8.758 1.052 3.715 1.614 7.932 1.626 12.706.013 4.773-.334 9.763-.98 14.914-.648 5.208-1.646 10.401-2.875 15.583a173.807 173.807 0 01-4.11 14.596c-1.414 4.125-2.999 8.185-4.809 12.06s-3.902 7.562-6.332 11.001a64.6 64.6 0 01-8.307 9.629c-3.109 3-6.727 5.686-10.744 8.179-4.906-2.205-8.414-6.965-10.516-14.396 4.307-2.479 8-5.51 11.133-9.033a54.959 54.959 0 007.803-11.341l-32.318-56.783c.801-.953 2.009-1.887 3.566-2.805 1.556-.918 3.517-1.759 5.935-2.404 1.651-.448 3.062-.732 4.174-.856 1.112-.123 2.1-.078 2.85.073l17.087 30.996c2.528 4.54 4.822 10.349 6.771 17.308l.935-.074zm37.314-74.01c1.607-.741 3.615-1.347 5.905-1.766 2.349-.415 5.096-.638 8.24-.61l-.08 11.812.874-.018c1.649-4.173 4.245-7.43 7.731-9.772 3.486-2.343 7.616-3.491 12.447-3.444 3.67-.005 6.781.72 9.221 2.113 2.44 1.392 4.39 3.287 5.913 5.627 1.461 2.395 2.556 5.181 3.161 8.469.605 3.287.912 6.735.917 10.403a63.93 63.93 0 01-.638 8.76 73.476 73.476 0 01-1.803 8.764 51.055 51.055 0 01-2.932 8.014c-1.164 2.508-2.548 4.714-4.092 6.622-2.964 3.647-6.349 6.344-10.268 7.968-3.919 1.624-8.674 2.453-14.264 2.428-2.213.015-4.3-.198-6.263-.579-1.904-.379-3.341-.794-4.307-1.304l-3.503 29.175c-.951.422-2.19.772-3.659 1.054-1.527.279-3.398.426-5.728.435-2.329.009-4.184-.193-5.684-.494-1.442-.3-2.588-.702-3.444-1.09l12.256-92.567zm11.416 47.847c.684.323 1.717.661 3.046.897 1.325.294 2.717.416 4.173.425 2.737.01 5.146-.462 7.226-1.356 2.082-.951 3.771-2.212 5.069-3.84 1.978-2.47 3.332-5.319 4.125-8.6a46.862 46.862 0 001.15-9.784c.052-4.887-.723-8.299-2.319-10.293-1.597-1.995-3.881-2.973-6.85-2.993-2.911-.017-5.337.802-7.222 2.52-1.884 1.718-3.553 3.795-4.949 6.291l-3.449 26.733zm57.157-29.558c1.765-.385 3.809-.523 6.195-.472 2.382.11 5.103.468 8.156 1.19l-2.573 11.581.863.215c2.502-3.727 5.711-6.373 9.627-7.94 3.916-1.565 8.235-1.774 12.905-.744 3.573.805 6.422 2.158 8.55 4.002 2.067 1.9 3.595 4.124 4.581 6.73.928 2.604 1.372 5.593 1.277 8.906-.095 3.314-.546 6.785-1.352 10.357a58.082 58.082 0 01-2.484 8.384c-1.064 2.861-2.236 5.543-3.638 8.156a57.537 57.537 0 01-4.586 7.24c-1.673 2.193-3.508 4.087-5.382 5.573-3.632 2.976-7.561 4.832-11.733 5.63-4.171.797-8.995.575-14.412-.663-2.189-.508-4.199-1.125-5.971-1.847-1.827-.782-3.135-1.483-3.916-2.217l-9.67 27.785c-.999.187-2.285.303-3.799.291-1.513-.011-3.42-.332-5.671-.785-2.25-.452-4.085-1.061-5.453-1.706-1.371-.587-2.39-1.216-3.177-1.834l31.663-87.832zm.934 49.111c.617.494 1.526 1.002 2.783 1.525 1.257.524 2.575.992 4.017 1.291 2.651.587 5.153.644 7.327.221 2.235-.48 4.141-1.382 5.771-2.645 2.48-1.982 4.402-4.512 5.823-7.532a46.017 46.017 0 003.224-9.281c1.094-4.781 1.023-8.277-.095-10.54-1.119-2.263-3.146-3.754-6.086-4.413-2.823-.654-5.402-.306-7.614.93-2.212 1.237-4.271 2.947-6.174 5.071l-8.976 25.373zm70.218-4.398c-1.061.506-2.243.864-3.547 1.112a26.133 26.133 0 01-3.768.428c-3.666.117-6.362-.576-8.128-2.117-1.804-1.539-2.753-3.845-2.843-6.88a18.55 18.55 0 01.051-2.426c.079-.888.16-1.699.241-2.51l1.01-8.966a13.186 13.186 0 013.995-1.477c1.417-.291 3.187-.481 5.27-.57l-.871 10.422c-.025.31-.048.695-.07 1.08-.022.386-.007.732.004 1 .052 1.229.4 2.137 1.042 2.687.641.55 1.889.805 3.74.726a12.435 12.435 0 004.705-1.122l1.291-14.17c.492-.252 1.101-.47 1.867-.618a18.124 18.124 0 012.77-.31c2.237-.095 3.752.11 4.547.615l-2.517 33.494c-.492.251-1.14.471-1.904.657-.765.186-1.765.306-2.999.358-1.235.052-2.241.018-3.02-.141a7.463 7.463 0 01-1.878-.536l1.012-10.736zm45.591 1.646c-.247 1.472-.206 2.432.161 2.878.366.446.956.691 1.731.735.542.015 1.043-.006 1.464-.101.421-.094.841-.228 1.217-.474.105.649.097 1.38-.025 2.155-.121.774-.281 1.55-.483 2.251a10.51 10.51 0 01-.803 2.034 8.38 8.38 0 01-1.016 1.543c-.757.379-1.557.643-2.361.831-.803.188-1.804.269-3.005.204-2.091-.103-3.699-.651-4.824-1.68-1.125-.991-1.733-2.581-1.784-4.694l-.503-.017c-.785 1.533-2.004 2.854-3.694 4.003-1.691 1.148-3.873 1.625-6.544 1.507-1.434-.093-2.799-.381-4.096-.903-1.297-.522-2.415-1.359-3.353-2.512-.938-1.153-1.659-2.661-2.124-4.526-.466-1.865-.64-4.127-.524-6.863a32.169 32.169 0 011.507-8.18 22.176 22.176 0 013.832-7.124c2.018-2.508 4.492-4.306 7.348-5.311 2.855-1.006 5.889-1.442 9.065-1.269 2.633.12 4.933.6 6.938 1.399 1.966.801 3.711 1.843 5.234 3.125l-3.358 20.989zm-6.698-16.64c-.475-.288-.988-.535-1.419-.67-.47-.135-1.092-.224-1.866-.268-1.666-.083-3.086.13-4.301.644-1.215.513-2.227 1.248-2.999 2.165-1.105 1.278-1.888 2.85-2.389 4.717-.5 1.868-.774 3.61-.859 5.229-.121 2.621.152 4.494.932 5.576.742 1.084 2.004 1.685 3.71 1.805 1.433.093 2.659-.151 3.641-.693a9.949 9.949 0 002.652-2.151l2.898-16.354zm41.238 31.948c-.497.136-1.149.241-1.998.277-.81.034-1.819-.077-3.025-.257-1.205-.179-2.144-.447-2.851-.725-.708-.278-1.261-.562-1.7-.89l5.82-19.44c.101-.35.202-.701.266-1.011.064-.31.127-.659.189-1.008.184-1.123.101-2.158-.208-3.068-.348-.909-1.299-1.484-2.855-1.726-1.597-.278-3.016-.026-4.298.72-1.243.746-2.393 1.871-3.371 3.413l-5.816 20.44a9.891 9.891 0 01-1.997.277c-.811.034-1.82-.077-3.064-.255-1.246-.217-2.222-.445-2.929-.722-.746-.276-1.299-.561-1.738-.888l9.691-31.99c.955-.27 2.032-.393 3.304-.447 1.275-.016 2.749.114 4.461.388l-1.082 6.354.467.095c1.116-1.932 2.676-3.42 4.639-4.504 1.963-1.083 4.385-1.378 7.266-.885 2.686.463 4.618 1.382 5.762 2.833 1.142 1.414 1.722 3.235 1.738 5.427l.545.092c1.003-1.85 2.489-3.259 4.417-4.264 1.928-1.005 4.311-1.298 7.153-.803 2.802.459 4.86 1.602 6.211 3.391 1.352 1.79 1.773 4.425 1.185 7.874-.15 1.006-.411 2.133-.783 3.379l-3.154 11.25c-.441 1.442-.478 2.405-.187 2.893.33.486.846.81 1.624.931.545.092 1.048.109 1.471.053a4.999 4.999 0 001.262-.323 7.118 7.118 0 01-.258 2.127c-.199.777-.439 1.48-.718 2.184-.28.704-.639 1.335-1.039 1.929-.4.594-.805 1.072-1.177 1.396a9.074 9.074 0 01-2.411.564c-.806.111-1.814.038-3.02-.142-2.724-.461-4.581-1.421-5.492-2.844-.949-1.422-1.19-3.45-.756-5.969.093-.542.258-1.203.457-1.981.198-.777.4-1.478.609-2.026l3.062-9.784c.101-.35.202-.701.266-1.011l.192-.931c.184-1.124.1-2.197-.25-3.144-.349-.947-1.302-1.56-2.781-1.805-1.596-.279-2.977-.028-4.142.752-1.164.78-2.277 1.866-3.3 3.255l-5.657 20.549zm61.527-12.529a12.692 12.692 0 01-2.023 4.24c-.987 1.311-2.374 2.331-4.234 3.102-1.861.771-4.199 1.217-7.054 1.337-2.854.121-6.385-.229-10.518-1.093-.253 1.319-.322 2.437-.246 3.319.078.919.341 1.639.754 2.276.412.597 1.012 1.072 1.722 1.427.711.354 1.613.662 2.706.924 2.344.593 4.556.807 6.637.68a25.4 25.4 0 006.095-1.143 18.927 18.927 0 01-.686 2.03 13.854 13.854 0 01-1.108 2.124c-.435.672-.91 1.307-1.426 1.906-.515.599-.999 1.043-1.524 1.411-1.445.561-3.171.865-5.252.992-2.081.126-4.489-.156-7.183-.812-4.53-1.116-7.593-3.178-9.225-6.109-1.593-2.933-1.795-6.771-.643-11.474.76-3.032 1.991-5.892 3.735-8.505 1.703-2.649 3.816-4.777 6.259-6.381 1.992-1.315 4.197-2.177 6.651-2.628 2.415-.448 5.049-.29 7.9.397 3.633.923 6.168 2.393 7.61 4.486 1.403 2.094 1.78 4.617 1.053 7.494zm-21.64.916c4.21.86 7.348 1.035 9.411.486 2.025-.547 3.258-1.522 3.622-2.961.197-.816.089-1.542-.289-2.257-.415-.675-1.209-1.18-2.42-1.475a7.59 7.59 0 00-3.825.009c-1.261.322-2.357.907-3.364 1.758-1.123.855-2.141 2.36-3.135 4.44zm49.5 23.598c-.599 1.372-.791 2.303-.537 2.831.255.527.735.93 1.517 1.128.548.169 1.016.265 1.44.247.426.02.849-.036 1.268-.17a6.611 6.611 0 01-.529 2.1c-.278.743-.636 1.412-.994 2.081a8.692 8.692 0 01-1.276 1.785c-.48.52-.925.962-1.377 1.25-.842.19-1.65.262-2.462.258-.811-.004-1.824-.192-2.959-.528-2.662-.811-4.373-1.969-5.096-3.515-.722-1.547-.73-3.547.014-6.04.17-.546.375-1.17.691-1.914.316-.744.597-1.41.844-1.959l6.683-14.591-1.213-.372c-1.526-.436-2.81-.65-3.892-.643a5.218 5.218 0 00-2.974.934c-.865.575-1.716 1.457-2.516 2.645-.799 1.187-1.661 2.724-2.547 4.608-1.207 2.513-2.392 4.64-3.632 6.385-1.201 1.743-2.495 3.106-3.92 4.128a11.68 11.68 0 01-4.589 2.04c-1.647.339-3.541.342-5.68.01-.663-1.049-.99-2.381-1.02-3.996-.03-1.614.248-3.241.836-4.881 2.297.402 4.211-.025 5.782-1.245 1.569-1.259 3.136-3.48 4.7-6.7 1.422-2.906 2.907-5.239 4.415-7.033 1.546-1.797 3.23-3.099 5.091-3.87 1.86-.771 3.932-1.128 6.256-.996 2.324.133 4.935.638 7.909 1.512l8.925 2.699-9.158 21.812zm22.411-5.488c1.621-.03 3.489.276 5.605.955a20.26 20.26 0 014.649 2.111c1.39.865 2.477 1.896 3.264 3.132a9.888 9.888 0 011.494 4.244c.184 1.608-.009 3.424-.657 5.451-.784 2.457-1.863 4.349-3.277 5.64-1.413 1.29-2.999 2.165-4.834 2.628-1.835.462-3.764.544-5.86.325a37.549 37.549 0 01-6.317-1.348c-3.016-.95-5.45-1.847-7.339-2.651a58.877 58.877 0 01-5.291-2.661l14.237-30.489c.539-.062 1.196-.051 1.934.033.738.084 1.635.277 2.692.617 2.155.678 3.537 1.389 4.147 2.094l-4.447 9.919zm-6.673 14.822c.513.248 1.064.494 1.654.738.59.244 1.257.485 1.961.686.823.273 1.68.429 2.535.547.854.079 1.625.046 2.39-.14.727-.185 1.408-.521 1.965-1.045.558-.523 1.028-1.274 1.334-2.249.547-1.677.336-3.014-.594-3.975-.931-.999-2.2-1.753-3.844-2.26-1.449-.439-2.694-.655-3.736-.611l-3.665 8.309zm48.844 5.471l-11.06-2.032-3.793 12.585c-.535.138-1.189.204-1.999.238-.772.033-1.781-.078-3.027-.295-1.246-.216-2.223-.483-2.932-.799-.709-.316-1.301-.599-1.701-.928l10.384-32.057c.535-.138 1.189-.204 1.923-.197a14.17 14.17 0 012.718.308c2.143.409 3.556.927 4.24 1.552l-3.52 11.726 11.257 2.101 3.676-11.695c.535-.138 1.189-.204 1.923-.197.735.007 1.627.085 2.757.306 2.143.41 3.556.927 4.239 1.552l-9.41 32.246c-.535.138-1.189.205-1.999.239-.771.033-1.781-.079-3.026-.295-1.246-.217-2.224-.483-2.933-.799-.709-.316-1.3-.599-1.701-.928l3.984-12.631zm51.492 3.204c-.09 1.504.064 2.421.508 2.864.404.406 1.031.61 1.801.539a5.655 5.655 0 001.457-.254c.42-.133.797-.342 1.135-.587.182.646.25 1.336.245 2.144a15.577 15.577 0 01-.21 2.317c-.123.736-.287 1.435-.568 2.101a7.82 7.82 0 01-.818 1.65c-.715.453-1.472.831-2.232 1.133-.762.263-1.758.459-2.952.548-2.081.127-3.758-.226-4.993-1.096-1.235-.871-2.031-2.338-2.354-4.478l-.502.021c-.589 1.602-1.647 3.07-3.213 4.406-1.528 1.334-3.66 2.078-6.32 2.229-1.425.099-2.822-.034-4.153-.439-1.33-.367-2.558-1.084-3.607-2.117-1.048-1.033-1.959-2.456-2.653-4.234-.694-1.779-1.137-4.029-1.292-6.754a31.633 31.633 0 01.535-8.33c.54-2.754 1.515-5.257 2.965-7.511 1.739-2.728 3.931-4.782 6.656-6.128 2.725-1.347 5.669-2.087 8.867-2.299 2.622-.15 4.986.02 7.02.587 2.033.568 3.922 1.373 5.554 2.496l-.876 21.192zm-8.63-15.751c-.513-.247-1.022-.418-1.489-.475-.467-.096-1.086-.108-1.895-.035-1.657.108-3.071.476-4.202 1.139-1.131.664-2.063 1.472-2.714 2.5-.946 1.386-1.532 3.065-1.799 4.961-.267 1.896-.346 3.669-.239 5.28.15 2.609.691 4.432 1.584 5.433.892 1.001 2.186 1.446 3.882 1.336 1.426-.099 2.608-.457 3.508-1.11a9.528 9.528 0 002.369-2.447l.995-16.582zm29.882 5.735c-.71.569-2.001 1.085-3.877 1.511a21.278 21.278 0 01-2.455.412c-.618.026-1.122-.03-1.515-.167l-4.61-32.076c.673-.529 1.541-1.027 2.526-1.492.985-.465 2.168-.822 3.583-1.152.92-.192 1.686-.34 2.303-.366.617-.027 1.236-.014 1.783.116l2.262 33.214zm-3.603 7.038c1.531-.334 2.853-.159 3.964.525 1.111.683 1.859 1.921 2.243 3.674.385 1.792.18 3.339-.656 4.567-.835 1.266-2.077 2.049-3.684 2.425-1.532.334-2.853.159-3.964-.525-1.111-.683-1.859-1.921-2.243-3.674-.385-1.792-.219-3.337.579-4.563.758-1.263 2.038-2.048 3.761-2.429zM33.602 87.448l.957-.817c1.583-1.337 2.482-2.69 2.679-4.112.197-1.423-.033-3.01-.817-4.78l-.579-1.345c-1.4-3.225-1.82-6.104-1.24-8.582.56-2.532 2.231-4.885 4.918-7.15l.24-.205c2.314 1.005 4.688 2.914 7.085 5.803l-.515.482c-1.822 1.542-2.127 3.556-.932 6.173l.653 1.382c.746 1.659 1.05 3.282.816 4.78-.214 1.552-.928 3.088-2.213 4.756l.39.423c1.88-.822 3.543-1.014 4.912-.614 1.37.4 2.591.912 3.758 1.626 1.872 1.155 3.41 1.868 4.537 2.103 1.147.29 2.365-.121 3.561-1.143.92-.743 1.49-1.613 1.854-2.723.668.514 1.262 1.176 1.8 1.857.559.736 1.061 1.49 1.453 2.283.392.792.672 1.622.898 2.47.226.85.34 1.55.325 2.234a7.466 7.466 0 01-1.1 2.036 12.549 12.549 0 01-2.188 2.282c-1.436 1.225-2.892 2.026-4.294 2.44-1.403.412-2.788.51-4.193.37a14.067 14.067 0 01-4.07-1.275c-1.334-.658-2.613-1.52-3.893-2.567-1.261-.992-2.3-1.689-3.207-2.183-.908-.494-1.722-.712-2.424-.783-.703-.07-1.386.099-2.012.434-.627.336-1.327.819-2.1 1.45l-.22.26 8.931 13.44c-.238.574-.641 1.204-1.247 1.964-.551.741-1.398 1.52-2.502 2.449a19.623 19.623 0 01-2.836 2.007c-.793.392-1.494.691-2.01.804l-8.693-13.645-.57.502c-1.436 1.225-2.354 2.522-2.754 3.891-.382 1.423-.189 3.269.562 5.667.674 1.991 1.108 3.817 1.448 5.552.34 1.734.404 3.378.245 4.911-.16 1.534-.652 2.995-1.477 4.384-.77 1.37-1.983 2.705-3.566 4.042-3.125-.484-6.109-2.372-8.859-5.758.773-.631 1.362-1.262 1.71-1.873.404-.63.659-1.333.766-2.109.107-.776.103-1.699-.05-2.696-.152-.996-.398-2.269-.7-3.709-.434-2.011-.497-3.654-.078-4.967.363-1.294 1.17-2.739 2.437-4.277l-.39-.423c-1.198.652-2.398.934-3.654.866-1.257-.068-2.572-.671-4-1.791l-1.242-.936c-.835-.643-1.502-1.157-2.058-1.524-.538-.311-1.001-.586-1.408-.695-.352-.128-.702-.071-1.071.116a9.327 9.327 0 00-1.16.762l-.387.316c-1.135-1.527-2.01-3.02-2.571-4.494A20.216 20.216 0 010 93.513l.92-.743a26.467 26.467 0 012.837-2.007 6.167 6.167 0 012.97-.882c1.035-.042 2.163.193 3.44.686 1.223.511 2.631 1.391 4.245 2.695l1.28 1.047c1.594 1.248 3.076 1.98 4.352 2.288 1.277.308 2.66-.16 4.096-1.385l1.16-.948-8.19-12.89c.293-.592.696-1.221 1.21-1.889.515-.667 1.25-1.409 2.282-2.19 1.933-1.578 3.425-2.453 4.552-2.587l8.448 12.74zm37.505-17.127c.131.388.318.756.504 1.125.187.368.373.737.615 1.086.689 1.124 1.505 1.896 2.505 2.297 1 .402 2.31.082 3.95-.904 1.382-.838 2.338-1.84 2.98-3.043.585-1.185 1.004-2.682 1.198-4.475L71.934 41.434c.367-.556.919-1.112 1.581-1.706.663-.594 1.565-1.208 2.69-1.897 2.247-1.377 3.944-2.012 5.072-1.962l11.74 25.191c.69 1.493 1.414 2.357 2.081 2.687.648.274 1.46.122 2.29-.343a5.334 5.334 0 001.362-1.078c.368-.37.662-.778.881-1.223.557.552.986 1.27 1.396 2.118.411.847.766 1.714.991 2.562.3.885.452 1.697.511 2.602.096.83.1 1.57.01 2.216a9.784 9.784 0 01-1.651 2.408c-.681.724-1.62 1.411-2.855 2.137-2.156 1.284-4.094 1.755-5.924 1.45-1.831-.306-3.463-1.48-4.914-3.579l-.516.298c.288 2.307-.071 4.525-1.04 6.764-.969 2.24-3.01 4.225-6.088 6.067-1.898 1.135-3.632 1.845-5.201 2.13-1.57.284-3.011.217-4.306-.147-1.314-.418-2.481-1.133-3.576-2.18-1.096-1.049-2.08-2.318-2.956-3.81-.298-.516-.596-1.031-.858-1.621-.242-.535-.597-1.216-.914-1.972l-10.016-24.11c.88-1.407 1.983-2.705 3.308-3.893 1.344-1.133 3.075-2.397 5.175-3.662l10.9 23.44zM121.009 40.8c2.308-.287 4.398.054 6.139 1.007 1.742.952 3.153 2.57 4.144 4.948.953 2.267 1.314 4.426.935 6.404a13.133 13.133 0 01-2.414 5.441c-1.286 1.668-2.942 3.153-4.894 4.492a37.445 37.445 0 01-6.525 3.502c-2.213.934-4.317 1.645-6.199 2.097-1.902.397-3.822.738-5.688.876-1.279-1.047-2.394-2.335-3.343-3.863a22.249 22.249 0 01-2.184-4.625c1.756.084 3.898-.148 6.335-.602a34.208 34.208 0 006.994-2.12c2.323-.97 4.092-2.124 5.195-3.421 1.102-1.298 1.354-2.74.682-4.362-.617-1.456-1.748-2.245-3.337-2.385-1.571-.085-4.063.572-7.401 2.01l-4.204 1.792c-.561-1.29-1.01-2.617-1.405-3.964-.375-1.29-.529-2.657-.517-4.079l4.038-1.736c1.18-.523 2.25-1.008 3.171-1.566.977-.577 1.769-1.153 2.338-1.839a5.273 5.273 0 001.21-2.074c.182-.74.104-1.515-.251-2.381-.542-1.235-1.339-1.952-2.523-2.168-1.128-.235-2.753.068-4.837 1.02-1.567.654-3.115 1.547-4.607 2.607a23.418 23.418 0 00-4.287 3.916c-.354-.497-.634-1.142-.822-1.88-.243-.719-.395-1.53-.51-2.417-.096-.83-.137-1.68-.123-2.548.015-.868.122-1.644.359-2.402a17.983 17.983 0 014.232-3.898c1.694-1.19 3.519-2.177 5.4-2.998 1.936-.84 3.781-1.403 5.591-1.707 1.809-.303 3.472-.311 5.007.033a10.29 10.29 0 014.186 1.975c1.261.991 2.247 2.446 3.069 4.326.934 2.211 1.239 4.39.898 6.478-.341 2.088-1.663 4.015-3.928 5.706l.076.406zm38.541-8.968l-12.787 4.14 3.305 15.406c-.459.464-1.123.873-1.933 1.394-.83.465-1.899.95-3.357 1.382-1.439.487-2.583.75-3.544.829-.942.134-1.699.082-2.273.029l-7.537-39.56c.46-.464 1.123-.873 1.897-1.32.774-.447 1.752-.84 3.025-1.27 2.435-.824 4.263-1.072 5.355-.764l3.004 14.336 13.008-4.215-2.839-14.392c.46-.464 1.123-.873 1.897-1.32.775-.447 1.752-.84 3.025-1.27 2.435-.824 4.263-1.072 5.355-.763l8.608 39.26c-.46.463-1.123.872-1.934 1.393-.829.466-1.899.951-3.357 1.383-1.457.431-2.583.75-3.543.829-.942.133-1.7.081-2.273.029l-3.102-15.536zm30.182-18.349c1.677-.876 3.854-1.55 6.495-1.95 2.105-.343 4.174-.426 6.097-.213 1.922.212 3.643.74 5.181 1.638 1.538.897 2.819 2.129 3.861 3.75 1.042 1.62 1.809 3.703 2.209 6.157.476 3.045.303 5.632-.5 7.815-.822 2.127-2.07 3.906-3.745 5.336-1.675 1.43-3.757 2.566-6.063 3.407-2.361.86-4.872 1.463-7.438 1.9-3.693.571-6.777.936-9.271 1.04-2.494.104-4.841.096-7.115-.06l-1.036-40.218a8.655 8.655 0 012.065-1.006 18.12 18.12 0 013.193-.772c2.696-.419 4.489-.409 5.562.03l.505 13.146zm.773 19.406c.684.015 1.404-.043 2.18-.12a85.228 85.228 0 002.493-.29 18.452 18.452 0 003.009-.77 7.492 7.492 0 002.488-1.397c.662-.594 1.213-1.335 1.542-2.186.328-.851.416-1.867.244-3.104-.324-2.048-1.272-3.392-2.753-3.94-1.5-.602-3.255-.686-5.305-.363-1.809.304-3.267.736-4.299 1.331l.401 10.84z" fill="#fff"/></svg>