<svg xmlns="http://www.w3.org/2000/svg" fill="none" viewBox="0 0 12 12"><g fill="#222B45" clip-path="url(#a)"><path d="M5.49986 11.4918C2.46745 11.4918 0 9.02445 0 5.99205 0 2.95964 2.46745.492188 5.49986.492188c1.05447 0 2.08038.300466 2.96686.869452.17403.11205.22502.34404.11297.51854-.11242.17449-.34396.22493-.51845.11297-.76499-.49153-1.65092-.75099-2.56138-.75099-2.61897 0-4.749883 2.13092-4.749883 4.74989 0 2.61887 2.130913 4.74975 4.749883 4.74975 2.61887 0 4.74974-2.13088 4.74974-4.74975 0-.15655-.0075-.31155-.0219-.46398-.02-.20653.131-.38954.337-.4095.207-.01904.3894.13101.4095.33699.0169.17651.0254.35549.0254.53649 0 3.0324-2.46733 5.49975-5.49974 5.49975Z"/><path d="M6.12473 7.24282c-.09594 0-.19198-.03653-.26494-.10995L3.60986 4.88294c-.14648-.14658-.14648-.38406 0-.53054s.38396-.14648.53044 0l1.98498 1.98499 5.23432-5.23437c.1465-.146476.384-.146476.5305 0 .1465.14648.1465.38396 0 .53044L6.39023 7.13332c-.07352.07297-.16946.1095-.2655.1095Z"/></g><defs><clipPath id="a"><path fill="#fff" d="M0 0h12v12H0z"/></clipPath></defs></svg>