<svg xmlns="http://www.w3.org/2000/svg" fill="none" viewBox="0 0 29 27"><path fill="#505050" stroke="#505050" stroke-width=".5" d="M14.5922 21.582c-.4384-.0023-.871-.0997-1.267-.2853-.396-.1855-.7459-.4547-1.0247-.7884-2.0626-2.464-5.50021-7.2676-5.50021-11.82253 0-2.03839.82094-3.9933 2.28221-5.43466C10.5438 1.80975 12.5257 1 14.5922 1c2.0666 0 4.0485.80975 5.5098 2.25111 1.4612 1.44136 2.2822 3.39627 2.2822 5.43466 0 4.52103-3.4377 9.35853-5.4888 11.82253-.2801.3352-.6317.6052-1.0299.7908-.3981.1857-.8329.2823-1.2733.2829Zm0-18.88661c-1.6097.00299-3.1527.63507-4.291 1.75784C9.16295 5.576 8.52213 7.09794 8.5191 8.68577c0 4.02373 3.197 8.45433 5.0991 10.73743.1205.1385.2699.2497.4381.3259.1681.0762.3509.1157.5359.1157.185 0 .3679-.0395.536-.1157.1681-.0762.3175-.1874.438-.3259 1.9022-2.2605 5.0991-6.7137 5.0991-10.73743-.003-1.58783-.6438-3.10977-1.7821-4.23254s-2.6812-1.75485-4.291-1.75784Z"/><path fill="#505050" stroke="#505050" d="M14.5924 11.6328c-.5825 0-1.1514-.1704-1.6347-.4889-.4832-.3185-.8587-.7704-1.0802-1.29778-.2215-.52734-.2793-1.10721-.1665-1.66657.1128-.5594.3914-1.0742.8018-1.47892.4104-.40479.9341-.68121 1.5052-.79327.5712-.11206 1.1632-.05449 1.7008.16516.5376.21963.996.59109 1.3179 1.06637.3219.47519.4933 1.03313.4933 1.6033 0 .7644-.3078 1.49891-.8579 2.04151-.5504.5429-1.2984.8491-2.0797.8491Zm0-5.13113c-.4418 0-.8743.1292-1.2428.37203-.3685.24288-.6568.58882-.8273.99487-.1706.40612-.2153.85341-.1283 1.28501.087.43155.3017.82701.6157 1.13672.314.3097.7131.5198 1.1467.6048.4335.0851.8829.0415 1.2916-.1255.4089-.167.7594-.4503 1.0066-.81516.2472-.3649.3795-.79465.3795-1.23486 0-.29222-.0583-.58142-.1715-.85101-.1133-.26958-.279-.51408-.4875-.71971-.2085-.20562-.4556-.36837-.7271-.47928-.2714-.11091-.5622-.16791-.8556-.16791Z"/><path fill="#505050" stroke="#505050" stroke-width=".5" d="M25.2145 26.6455H3.96995c-.49335-.0034-.97819-.1271-1.41131-.3601-.43312-.233-.80107-.5681-1.07106-.9755-.26999-.4073-.43363-.8741-.47635-1.359-.042714-.4848.03683-.9725.23154-1.4196l2.38342-5.4028c.23165-.5236.61297-.9692 1.09732-1.2823.48435-.3132 1.05073-.4803 1.62986-.481h3.89593v1.6955H6.35337c-.24399.0003-.48254.0712-.68618.2037-.20363.1326-.36344.3211-.4597.5423l-2.39488 5.4027c-.07687.1826-.10765.3808-.08969.5777.01797.1969.08414.3865.19282.5526.11427.1732.2705.3156.45456.4143.18406.0986.39016.1505.59965.1509H25.2145c.2094-.0004.4155-.0523.5996-.1509.1841-.0987.3403-.2411.4546-.4143.1086-.1661.1748-.3557.1928-.5526.0179-.1969-.0128-.3951-.0897-.5777l-2.3949-5.4027c-.0962-.2212-.2561-.4097-.4597-.5423-.2036-.1325-.4422-.2034-.6862-.2037h-3.8845v-1.6955h3.8845c.5795-.0008 1.1465.1658 1.6311.4791.4846.3133.8657.7598 1.0961 1.2842l2.3834 5.4028c.2015.4452.286.9332.246 1.4191-.0401.4859-.2035.9541-.4751 1.3614-.2717.4091-.6422.7452-1.0783.978-.436.2328-.9239.3551-1.4197.3557Z"/></svg>