<svg xmlns="http://www.w3.org/2000/svg" fill="#fff" viewBox="0 0 22 22"><g clip-path="url(#a)"><path fill="#fff" d="M11.12 21.82h-.21c-1.71 0-3.3-.04-4.83-.14a6.45 6.45 0 0 1-3.72-1.4 5.97 5.97 0 0 1-2-3.24c-.3-1.17-.32-2.32-.34-3.43a239.06 239.06 0 0 1 0-5.4C.04 7.1.06 5.95.35 4.78a5.97 5.97 0 0 1 2.01-3.24A6.45 6.45 0 0 1 6.08.14C7.62.03 9.2 0 10.91 0s3.3.04 4.83.13c1.4.09 2.7.58 3.72 1.41.99.8 1.66 1.9 2 3.24.3 1.17.32 2.32.33 3.43a235.63 235.63 0 0 1 0 5.4.85.85 0 0 1-1.7-.02 235.54 235.54 0 0 0 0-5.36c-.02-1.01-.03-2.06-.28-3.03a4.3 4.3 0 0 0-1.43-2.34 4.7 4.7 0 0 0-2.75-1.03c-1.5-.09-3.04-.13-4.72-.13-1.68 0-3.23.04-4.73.13a4.7 4.7 0 0 0-2.74 1.03A4.3 4.3 0 0 0 2 5.2c-.25.97-.27 2.02-.28 3.03a240.43 240.43 0 0 0 0 5.36c.01 1 .03 2.05.28 3.03a4.3 4.3 0 0 0 1.43 2.34 4.7 4.7 0 0 0 2.74 1.02c1.5.1 3.05.14 4.73.13 1.68 0 3.22-.04 4.72-.13a4.7 4.7 0 0 0 2.75-1.02c.5-.41.9-.94 1.17-1.57a.85.85 0 0 1 1.56.68 5.78 5.78 0 0 1-1.65 2.2 6.45 6.45 0 0 1-3.72 1.41 75.4 75.4 0 0 1-4.62.14ZM16.2 10.9a5.33 5.33 0 1 0-10.66.01 5.33 5.33 0 0 0 10.66-.01Zm-1.7 0a3.63 3.63 0 1 1-7.25 0 3.63 3.63 0 0 1 7.25 0Zm2.3-7.03a1.28 1.28 0 1 0 0 2.55 1.28 1.28 0 0 0 0-2.55Z"/></g><defs><clipPath id="a"><path fill="#000" d="M0 0h21.82v21.82H0z"/></clipPath></defs></svg>
