<svg xmlns="http://www.w3.org/2000/svg" fill="none" viewBox="0 0 37 37"><path fill="#4C65AD" fill-rule="evenodd" d="M18.3 0A18.24 18.24 0 0 0 0 18.3a18.23 18.23 0 0 0 18.3 18.28 18.23 18.23 0 0 0 18.28-18.29A18.23 18.23 0 0 0 18.3 0Zm0 33.26A14.9 14.9 0 0 1 3.32 18.29 14.9 14.9 0 0 1 18.29 3.33a14.9 14.9 0 0 1 14.97 14.96 14.9 14.9 0 0 1-14.97 14.97Zm6.48-23.62-10.48 3.5a2 2 0 0 0-1.16 1.16l-3.5 10.64c-.16.67 0 1.33.34 1.67.33.33.66.5 1.16.5.17 0 .33 0 .5-.17l10.64-3.5c.5-.16.83-.5 1-1l3.5-10.63c.16-.67 0-1.33-.34-1.67-.33-.5-1-.66-1.66-.5Zm-4.33 10.81-6.65 2.17 2.16-6.66 6.66-2.16-2.17 6.65Z" clip-rule="evenodd"/></svg>