<svg xmlns="http://www.w3.org/2000/svg" fill="none" viewBox="0 0 47 37"><path fill="#4C65AD" d="M36.33 28.6a1.5 1.5 0 0 1-1.03-.43 1.46 1.46 0 0 1-.44-1.02c0-3.1-1.24-6.07-3.46-8.27a11.94 11.94 0 0 0-16.76-.02 11.6 11.6 0 0 0-3.48 8.25 1.48 1.48 0 0 1-2.51 1.03 1.44 1.44 0 0 1-.44-1.03 14.42 14.42 0 0 1 4.14-10.66A14.82 14.82 0 0 1 23 11.98a14.99 14.99 0 0 1 10.66 4.47A14.58 14.58 0 0 1 37.8 27.1a1.44 1.44 0 0 1-.9 1.38 1.5 1.5 0 0 1-.58.12ZM37.7 14.82a1.41 1.41 0 0 1-1.03-.43 1.43 1.43 0 0 1-.33-1.58c.08-.18.19-.34.33-.47l4.18-4.15a1.48 1.48 0 0 1 2.05.04 1.44 1.44 0 0 1 .03 2.02l-4.18 4.14a1.46 1.46 0 0 1-1.04.43ZM8.33 14.82a1.47 1.47 0 0 1-1.04-.43L3.1 10.25a1.43 1.43 0 0 1-.32-1.59 1.48 1.48 0 0 1 2.4-.47l4.19 4.15a1.44 1.44 0 0 1-.48 2.37c-.18.07-.37.1-.56.1ZM23.02 8.6A1.46 1.46 0 0 1 22 8.16a1.42 1.42 0 0 1-.4-1.01v-5.7c0-.38.15-.75.43-1.02a1.48 1.48 0 0 1 2.08 0c.27.27.43.64.43 1.02v5.7a1.44 1.44 0 0 1-.95 1.36c-.19.07-.38.1-.58.09Z"/><path fill="#4C65AD" d="M44.56 28.6H1.47a1.44 1.44 0 0 1-1.04-2.48c.28-.27.65-.42 1.04-.42h43.1c.38 0 .76.15 1.03.43a1.44 1.44 0 0 1 0 2.05c-.27.27-.65.43-1.04.43ZM37.7 36.49H8.26c-.4 0-.77-.15-1.04-.43a1.44 1.44 0 0 1 0-2.05c.27-.27.65-.43 1.04-.43H37.7c.39 0 .76.16 1.04.43a1.44 1.44 0 0 1 0 2.05c-.28.28-.65.43-1.04.43Z"/></svg>