<svg xmlns="http://www.w3.org/2000/svg" fill="none" viewBox="0 0 36 40"><path fill="#4C65AD" stroke="#4C65AD" d="M4.3654 28.6592a.981.981 0 0 1-.3098 0 1.1683 1.1683 0 0 1-.4338-.2175 1.2308 1.2308 0 0 1-.316-.3795C1.0274 23.941.407 19.0415 1.5808 14.4415c1.174-4.6 4.046-8.5235 7.9846-10.9076 3.9385-2.3841 8.6208-3.0334 13.0168-1.805 4.396 1.2284 8.1456 4.2337 10.424 8.355.0818.1451.1355.3056.1578.4725a1.3367 1.3367 0 0 1-.0274.4997c-.0923.3213-.2957.595-.5706.7676L4.9848 28.4886a1.3529 1.3529 0 0 1-.6194.1706ZM18.1397 3.6703c-2.4782-.0057-4.9173.6456-7.0899 1.893-2.1725 1.2475-4.0077 3.0505-5.3343 5.2408-1.3265 2.1903-2.1013 4.6966-2.2518 7.2849-.1506 2.5884.3278 5.1745 1.3907 7.517L30.235 10.2544c-1.3563-2.0399-3.1655-3.7047-5.2723-4.8516-2.1068-1.1468-4.4482-1.7413-6.823-1.7325Z"/><path fill="#4C65AD" stroke="#4C65AD" d="M28.3442 38.7915a1.197 1.197 0 0 1-.6119-.1772 1.2694 1.2694 0 0 1-.4477-.471l-10.188-18.4561a1.332 1.332 0 0 1-.122-.9713c.0841-.3279.2892-.6074.5702-.777a1.1756 1.1756 0 0 1 .9283-.1276c.3133.088.5805.3026.7426.5966l10.1881 18.5243c.1489.291.1846.631.0995.9489-.0851.3179-.2843.5891-.556.7569a1.243 1.243 0 0 1-.6031.1535Z"/><path fill="#4C65AD" stroke="#4C65AD" d="M33.2999 38.7927H12.6791c-.3242 0-.6352-.1348-.8645-.3749-.2292-.2401-.3581-.5657-.3581-.9052s.1289-.6652.3581-.9052c.2293-.2401.5403-.375.8645-.375h20.6208c.3242 0 .6352.1349.8645.375.2293.24.3581.5657.3581.9052s-.1288.6651-.3581.9052c-.2293.2401-.5403.3749-.8645.3749ZM23.6333 17.0115a1.1464 1.1464 0 0 1-.5899-.13 1.2082 1.2082 0 0 1-.4533-.4159c-1.3412-2.5591-3.154-4.8145-5.3337-6.6356-2.1797-1.8211-4.6829-3.1718-7.3648-3.974a1.1968 1.1968 0 0 1-.4457-.2083 1.2586 1.2586 0 0 1-.3323-.3742 1.3176 1.3176 0 0 1-.1658-.4804 1.337 1.337 0 0 1 .027-.51 1.3043 1.3043 0 0 1 .2155-.4583 1.2404 1.2404 0 0 1 .3697-.3336 1.185 1.185 0 0 1 .4649-.1556 1.171 1.171 0 0 1 .4861.0472c2.9844.8708 5.7737 2.3536 8.2055 4.3624 2.4319 2.0088 4.4578 4.5034 5.9601 7.3388a1.313 1.313 0 0 1 .1267.9393c-.076.3185-.2677.5934-.5342.7664a1.202 1.202 0 0 1-.6358.2218Z"/><path fill="#4C65AD" stroke="#4C65AD" d="M12.6786 23.6461a1.1971 1.1971 0 0 1-.624-.1803 1.2708 1.2708 0 0 1-.4519-.4849c-1.5967-2.7926-2.648-5.8889-3.0929-9.1097a25.7058 25.7058 0 0 1 .501-9.6532c.0878-.3257.2938-.6026.574-.7715a1.1911 1.1911 0 0 1 .9258-.1325c.1553.0435.3008.1186.4283.221.1275.1025.2344.2303.3147.376.0802.1458.1322.3067.153.4735a1.3381 1.3381 0 0 1-.0321.4987 22.9445 22.9445 0 0 0-.4224 8.6425c.4086 2.8816 1.3612 5.6493 2.8024 8.1418.1462.2951.1769.6381.0857.9565-.0913.3184-.2974.5871-.5748.7492a1.085 1.085 0 0 1-.5868.2729Z"/></svg>