<svg xmlns="http://www.w3.org/2000/svg" fill="none" viewBox="0 0 34 38"><path fill="#4C65AD" fill-rule="evenodd" d="M33.45 31.6v3.7c0 1.12-.74 1.87-1.86 1.87-1.11 0-1.86-.75-1.86-1.86v-3.72a5.48 5.48 0 0 0-5.57-5.57H9.29a5.48 5.48 0 0 0-5.57 5.57v3.72c0 1.11-.75 1.86-1.86 1.86C.74 37.17 0 36.42 0 35.3v-3.72a9.2 9.2 0 0 1 9.3-9.29h14.86a9.2 9.2 0 0 1 9.29 9.3ZM7.43 9.3a9.2 9.2 0 0 1 9.3-9.3 9.2 9.2 0 0 1 9.29 9.3 9.2 9.2 0 0 1-9.3 9.28A9.2 9.2 0 0 1 7.44 9.3Zm3.72 0a5.48 5.48 0 0 0 5.58 5.57 5.48 5.48 0 0 0 5.57-5.58 5.48 5.48 0 0 0-5.57-5.57 5.48 5.48 0 0 0-5.58 5.57Z" clip-rule="evenodd"/></svg>