<svg xmlns="http://www.w3.org/2000/svg" fill="none" viewBox="0 0 51 39"><g fill="#4C65AD" clip-path="url(#a)"><path d="M4.75 38.75c-.2 0-.4-.04-.6-.13-.19-.09-.36-.22-.51-.4a1.86 1.86 0 0 1-.34-.59 2.09 2.09 0 0 1-.12-.7 43.39 43.39 0 0 1 5.5-22.82c3.06-5.63 7.6-9.93 12.94-12.24a22.45 22.45 0 0 1 16.63-.56C45.63 3.77 51 9.58 51 14.91c.1 1-.09 2-.51 2.86a4.28 4.28 0 0 1-1.87 1.94c-.93.3-1.91.33-2.86.1a5.7 5.7 0 0 1-2.57-1.47c-.39.75-.98 1.32-1.68 1.64a5.74 5.74 0 0 1-3.25.06 6.4 6.4 0 0 1-2.9-1.75 3.9 3.9 0 0 1-1.89 1.8c-2.58 1.05-5.93-1.26-7.74-3.94-2.2-2.96-5.8-6.05-9.87-4.23-5.53 2.5-9.55 13-9.55 25.01 0 .48-.17.94-.46 1.28-.3.34-.68.54-1.1.54ZM18.68 7.7c1.84.2 3.63.84 5.25 1.87a14.65 14.65 0 0 1 4.22 4.1 5.67 5.67 0 0 0 1.8 2.03c.74.49 1.56.77 2.4.8.4-.17.47-1.06.47-1.57 0-.37.1-.73.27-1.04.18-.3.43-.54.72-.69.3-.13.61-.17.92-.1.3.08.59.26.8.52 1.98 2.46 4 3.2 4.72 2.86.38-.18.42-1.23.42-1.55 0-.37.1-.74.27-1.04.18-.3.44-.55.73-.68.3-.14.62-.16.93-.08.3.08.59.27.8.54 1.69 2.17 3.37 2.78 4 2.46.32-.15.36-.93.36-1.25 0-3.1-4.02-7.82-10.52-10.06a19.94 19.94 0 0 0-9.54-.86c-3.2.5-6.27 1.77-9.02 3.74Z"/><path d="M12.92 38.75c-.42 0-.81-.19-1.11-.53a2 2 0 0 1-.47-1.29c.32-7.1 2.4-13.93 5.98-19.67.24-.36.6-.6.98-.67.4-.07.79.02 1.12.27.31.28.52.7.58 1.15.07.46-.02.93-.24 1.31a36.46 36.46 0 0 0-5.26 17.61 2 2 0 0 1-.47 1.3c-.3.33-.7.52-1.11.52ZM29.2 38.75c-.41-.03-.8-.25-1.08-.61a2.07 2.07 0 0 1-.41-1.33 30.29 30.29 0 0 1 3.23-11.37c1.8-3.46 4.23-6.41 7.12-8.63.17-.16.37-.27.59-.34.21-.06.43-.07.65-.03.22.05.43.14.61.29.18.14.34.33.46.54a2.05 2.05 0 0 1 .19 1.48c-.06.25-.17.48-.3.68-.14.2-.32.37-.52.48a22.23 22.23 0 0 0-6.1 7.44 26.19 26.19 0 0 0-2.77 9.78c-.05.47-.24.9-.55 1.2-.31.3-.71.46-1.12.42ZM21.36 38.75c-.42 0-.82-.19-1.11-.53a2 2 0 0 1-.47-1.29c.27-5.02 1.6-9.9 3.89-14.17.1-.22.24-.42.4-.58.18-.16.37-.28.58-.34a1.36 1.36 0 0 1 1.25.21c.19.13.35.31.47.52a2.15 2.15 0 0 1-.03 2.14 29.9 29.9 0 0 0-3.4 12.3c-.03.47-.2.91-.5 1.24-.3.32-.68.5-1.08.5Z"/><path d="M38.82 38.76H1.58c-.42 0-.82-.2-1.12-.55-.3-.34-.46-.81-.46-1.3s.17-.96.46-1.3c.3-.35.7-.55 1.12-.55h37.24c.42 0 .82.2 1.11.54.3.35.47.82.47 1.3 0 .5-.17.97-.47 1.31-.3.35-.7.55-1.11.55Z"/></g><defs><clipPath id="a"><path fill="#fff" d="M0 0h51v38.72H0z" transform="translate(0 .04)"/></clipPath></defs></svg>