<svg width="15" height="16" viewBox="0 0 15 16" fill="none" xmlns="http://www.w3.org/2000/svg">
<path fill-rule="evenodd" clip-rule="evenodd" d="M14.55 12.8918V14.4084C14.55 14.8634 14.2467 15.1668 13.7917 15.1668C13.3367 15.1668 13.0334 14.8634 13.0334 14.4084V12.8918C13.0334 11.6026 12.0475 10.6168 10.7584 10.6168H4.69169C3.40253 10.6168 2.41669 11.6026 2.41669 12.8918V14.4084C2.41669 14.8634 2.11336 15.1668 1.65836 15.1668C1.20336 15.1668 0.900024 14.8634 0.900024 14.4084V12.8918C0.900024 10.7684 2.56836 9.1001 4.69169 9.1001H10.7584C12.8817 9.1001 14.55 10.7684 14.55 12.8918ZM3.93338 3.79167C3.93338 1.66833 5.60172 0 7.72505 0C9.84839 0 11.5167 1.66833 11.5167 3.79167C11.5167 5.91501 9.84839 7.58334 7.72505 7.58334C5.60172 7.58334 3.93338 5.91501 3.93338 3.79167ZM5.45004 3.7916C5.45004 5.08077 6.43588 6.06661 7.72505 6.06661C9.01421 6.06661 10 5.08077 10 3.7916C10 2.50244 9.01421 1.5166 7.72505 1.5166C6.43588 1.5166 5.45004 2.50244 5.45004 3.7916Z" fill="#121212"/>
</svg>
