<svg width="18" height="18" viewBox="0 0 18 18" fill="none" xmlns="http://www.w3.org/2000/svg">
<path d="M16.6673 7.84564L16.6674 7.84569L16.6736 7.85195L16.675 7.85329C17.3065 8.48621 17.3063 9.51504 16.674 10.1476L16.674 10.1476C16.3674 10.4541 15.9594 10.6232 15.5263 10.6232H15.4351V15.2762C15.4351 16.3096 14.5946 17.15 13.5611 17.15H11.0076C10.6658 17.15 10.3889 16.8729 10.3889 16.5313V12.7656C10.3889 12.4148 10.1032 12.1291 9.75235 12.1291H8.24625C7.89534 12.1291 7.60962 12.4148 7.60962 12.7656V16.5313C7.60962 16.8729 7.33265 17.15 6.99087 17.15H4.4374C3.40401 17.15 2.5634 16.3096 2.5634 15.2762V10.6232H2.45339C2.4347 10.6232 2.41612 10.6223 2.39757 10.6207C1.99186 10.6022 1.61206 10.4352 1.32449 10.1475L16.6673 7.84564ZM16.6673 7.84564L10.1469 1.32548C9.84056 1.019 9.43252 0.85 8.9993 0.85C8.56608 0.85 8.15805 1.01901 7.85161 1.32545L1.32828 7.84866L1.43434 7.95473L1.32828 7.84866L1.32139 7.85569L1.32138 7.85568C0.691844 8.48885 0.692876 9.51582 1.32447 10.1474L16.6673 7.84564ZM16.6746 7.85299L16.6749 7.85332L16.6789 7.85746M16.6746 7.85299L16.6789 7.85752L16.6789 7.85746M16.6746 7.85299C16.6747 7.8531 16.6748 7.85321 16.6749 7.85332C16.6764 7.8548 16.6774 7.85593 16.678 7.85656C16.6783 7.85682 16.6786 7.85717 16.6789 7.85746M16.6746 7.85299L16.6789 7.85746M2.19971 9.27249L2.19978 9.27256C2.27019 9.34306 2.36391 9.3829 2.46488 9.38471L2.19971 9.27249ZM2.19971 9.27249C2.05012 9.1229 2.04953 8.87936 2.1981 8.72892C2.1994 8.72767 2.20063 8.72643 2.2018 8.72521L8.72682 2.20043L8.72689 2.20036M2.19971 9.27249L8.72689 2.20036M8.72689 2.20036C8.7998 2.12737 8.896 2.0875 8.9993 2.0875C9.10244 2.0875 9.19869 2.12735 9.27178 2.20043L15.7968 8.72535L15.7999 8.72827L15.8003 8.72871C15.949 8.87933 15.9484 9.12302 15.7989 9.27261C15.7258 9.34573 15.6294 9.38566 15.5263 9.38566M8.72689 2.20036L15.5263 9.38566M15.5263 9.38566H14.8163C14.4746 9.38566 14.1976 9.66266 14.1976 10.0044V15.2762C14.1976 15.6269 13.912 15.9125 13.5611 15.9125H11.6264M15.5263 9.38566L11.6264 15.9125M11.6264 15.9125V12.7656C11.6264 11.7322 10.7859 10.8916 9.75235 10.8916H8.24625C7.21273 10.8916 6.37212 11.7322 6.37212 12.7656V15.9125H4.4374C4.08662 15.9125 3.8009 15.6269 3.8009 15.2762V10.0044C3.8009 9.66266 3.5239 9.38566 3.18215 9.38566H2.48914C2.48173 9.38522 2.47368 9.38485 2.46504 9.38471L11.6264 15.9125ZM2.19996 8.72705L2.20032 8.72669C2.2002 8.72681 2.20008 8.72693 2.19996 8.72705ZM2.22127 8.70017C2.22147 8.69985 2.22153 8.69975 2.22138 8.69999L2.22127 8.70017Z" fill="#121212" stroke="#121212" stroke-width="0.3"/>
</svg>
