<svg xmlns="http://www.w3.org/2000/svg" fill="#fff" xml:space="preserve" viewBox="0 0 211.62 211.62"><path d="M180.95 27.72A94.03 94.03 0 0 0 114.02 0a7.5 7.5 0 1 0 0 15 79.13 79.13 0 0 1 56.32 23.33 79.13 79.13 0 0 1 23.33 56.33 7.5 7.5 0 0 0 15 0 94.03 94.03 0 0 0-27.72-66.94z"/><path d="M150.1 94.66a7.5 7.5 0 1 0 15 0 51.14 51.14 0 0 0-51.08-51.08 7.5 7.5 0 0 0 0 15 36.13 36.13 0 0 1 36.08 36.08zM133.5 132.9c-11.43-.6-17.26 7.9-20.05 11.99a7.5 7.5 0 1 0 12.38 8.47c3.3-4.83 4.8-5.59 6.82-5.49 6.5.76 32.06 19.5 34.62 25.36a7.76 7.76 0 0 1-.07 5.47c-2.68 7.97-7.13 13.56-12.85 16.19-5.44 2.49-12.1 2.26-19.28-.65-26.77-10.92-50.17-26.15-69.53-45.28l-.02-.02c-19.09-19.34-34.29-42.7-45.19-69.44-2.91-7.18-3.14-13.84-.65-19.28 2.63-5.73 8.22-10.17 16.18-12.85a7.75 7.75 0 0 1 5.46-.08c5.88 2.57 24.62 28.14 25.37 34.55.11 2.1-.66 3.6-5.48 6.9a7.5 7.5 0 1 0 8.46 12.38c4.1-2.79 12.6-8.6 12-20.07-.65-11.98-23.96-43.71-35.1-47.8a22.68 22.68 0 0 0-15.48-.1c-12 4.04-20.65 11.24-25.04 20.82-4.26 9.3-4.13 20.08.4 31.19 11.65 28.61 27.97 53.65 48.48 74.41l.16.15c20.75 20.48 45.75 36.76 74.33 48.4a44.5 44.5 0 0 0 16.74 3.5c5.08 0 9.93-1.03 14.44-3.1 9.58-4.39 16.78-13.05 20.82-25.04a22.68 22.68 0 0 0-.08-15.46c-4.1-11.16-35.84-34.47-47.84-35.12z"/></svg>