<svg xmlns="http://www.w3.org/2000/svg" fill="none" viewBox="0 0 24 24"><path fill="#fff" d="M21.1 2.68C19.2.83 16.14-.08 11.98.01 7.8.09 5 .82 3.18 2.3 1.4 3.77.58 5.89.58 8.99v3.16c0 3.66 1.96 7.68 5.7 8.29a.8.8 0 1 0 .26-1.57c-2.84-.46-4.37-3.8-4.37-6.72V8.98c0-4.44 1.64-7.23 9.84-7.39 3.7-.07 6.39.68 7.97 2.23 1.23 1.2 1.83 2.9 1.83 5.16v3.16c0 4.79-2.15 6.9-7.66 7.52h-3.9a.8.8 0 0 0-.57.23l-2.75 2.76a.8.8 0 0 0 1.12 1.12l2.52-2.52h3.71c3.16-.36 5.32-1.18 6.8-2.6 1.56-1.48 2.32-3.6 2.32-6.51V8.98c0-2.68-.78-4.8-2.3-6.3Z"/><path fill="#fff" d="M12.5 5.18a4.75 4.75 0 0 1 4.78 4.79c0 .43.35.79.8.79a.8.8 0 0 0 .79-.8A6.33 6.33 0 0 0 12.5 3.6a.8.8 0 1 0 0 1.59Z"/><path fill="#fff" d="M12.5 7.97a2 2 0 0 1 2 2 .8.8 0 1 0 1.58 0c0-1.98-1.61-3.59-3.58-3.59a.8.8 0 0 0 0 1.59ZM8.94 9.33a.8.8 0 0 0 .9 1.3c.28-.19.94-.64.9-1.55-.03-.55-.52-1.32-.93-1.88-.6-.82-1.1-1.3-1.52-1.46a1.76 1.76 0 0 0-1.2 0c-.85.28-1.47.8-1.79 1.5-.3.67-.3 1.44.02 2.24.76 1.87 1.83 3.5 3.18 4.87 1.36 1.34 3 2.4 4.86 3.17.4.16.8.24 1.2.24.36 0 .72-.07 1.05-.22.7-.32 1.2-.94 1.5-1.8.13-.4.13-.8-.01-1.19-.16-.41-.65-.93-1.46-1.52-.56-.4-1.34-.9-1.88-.93-.91-.05-1.37.62-1.56.9a.8.8 0 0 0 1.31.9c.09-.13.14-.18.16-.2a6.5 6.5 0 0 1 1.95 1.42l-.02.12c-.1.3-.3.69-.65.86-.34.15-.73.06-.99-.05a13.25 13.25 0 0 1-4.34-2.82 13.25 13.25 0 0 1-2.83-4.35c-.1-.27-.2-.65-.05-.99.17-.36.56-.55.85-.65l.13-.02a6.5 6.5 0 0 1 1.43 1.94c-.03.03-.08.08-.21.17Z"/></svg>
